<svg viewBox="0 0 700 809" fill="none" xmlns="http://www.w3.org/2000/svg">
<path d="M486.222 790.671C450.947 804.933 412.873 810.928 374.922 808.195C337.062 811.322 299.005 805.312 263.953 790.671C259.12 786.766 255.232 781.818 252.58 776.2C249.928 770.581 248.58 764.435 248.637 758.223C248.637 746.061 248.195 714.11 247.974 671.601C106.208 702.391 76.2957 603.277 76.2957 603.277C66.9221 572.479 46.8401 546.049 19.6779 528.761C-26.5453 497.142 23.1612 497.805 23.1612 497.805C39.3145 500.039 54.7443 505.93 68.2741 515.031C81.8039 524.132 93.0764 536.202 101.232 550.32C108.137 562.885 117.465 573.957 128.677 582.896C139.889 591.834 152.763 598.461 166.553 602.393C180.343 606.326 194.776 607.486 209.017 605.806C223.259 604.127 237.026 599.641 249.522 592.608C251.856 566.755 263.346 542.585 281.922 524.45C168.797 511.625 49.8114 467.9 49.8114 272.711C49.0681 222.086 67.8367 173.116 102.227 135.952C86.6965 92.024 88.4958 43.83 107.259 1.18226C107.259 1.18226 149.998 -12.5268 247.366 53.4205C330.88 30.5286 419.018 30.5286 502.533 53.4205C599.845 -12.5268 642.529 1.18226 642.529 1.18226C661.327 43.8191 663.146 92.0196 647.616 135.952C682.006 173.113 700.758 222.09 699.977 272.711C699.977 468.397 580.825 511.514 467.313 524.118C479.473 536.46 488.848 551.261 494.809 567.528C500.769 583.795 503.177 601.149 501.869 618.423C501.869 686.526 501.261 741.529 501.261 758.223C501.579 764.446 500.375 770.653 497.755 776.306C495.135 781.96 491.176 786.89 486.222 790.671Z" fill="black"/>
</svg>
