<svg width="29" height="29" viewBox="0 0 29 29" fill="none" xmlns="http://www.w3.org/2000/svg">
<g clip-path="url(#clip0_23_11)">
<path d="M3.91222 25.3468L1.65305 0H26.504L24.2448 25.3468L14.0509 28.2121" fill="#EBEBEB"/>
<path d="M14.106 26.0081L22.3162 23.7489L24.2448 2.03882H14.106" fill="#EBEBEB"/>
<path d="M14.106 11.4612H9.97342L9.6979 8.26524H14.106V5.17957H6.28159L7.10814 14.602H14.106V11.4612ZM14.0509 19.5611L10.5795 18.6244L10.3591 16.1448H7.27341L7.65913 21.0489L14.0509 22.8121V19.5611Z" fill="#151514"/>
<path d="M14.0509 11.4612V14.602H17.9081L17.5224 18.6244L14.0509 19.5611V22.8121L20.4428 21.0489L21.3244 11.4612H14.0509ZM14.0509 5.17957V8.26524H21.5999L21.8754 5.17957H14.0509Z" fill="#151514"/>
</g>
<defs>
<clipPath id="clip0_23_11">
<rect width="28.2121" height="28.2121" fill="white"/>
</clipPath>
</defs>
</svg>
