<svg viewBox="0 0 700 700" fill="none" xmlns="http://www.w3.org/2000/svg">
<path d="M560 0H140C63 0 0 63 0 140V560C0 637 63 700 140 700H560C637 700 700 637 700 560V140C700 63 637 0 560 0ZM350 525C253.75 525 175 446.25 175 350C175 253.75 253.75 175 350 175C446.25 175 525 253.75 525 350C525 446.25 446.25 525 350 525ZM542.5 192.5C523.25 192.5 507.5 176.75 507.5 157.5C507.5 138.25 523.25 122.5 542.5 122.5C561.75 122.5 577.5 138.25 577.5 157.5C577.5 176.75 561.75 192.5 542.5 192.5Z" fill="black"/>
</svg>
