<svg width="31" height="31" viewBox="0 0 31 31" fill="none" xmlns="http://www.w3.org/2000/svg">
<path d="M20.1767 15.5C20.1767 16.425 19.9025 17.3292 19.3886 18.0983C18.8747 18.8673 18.1443 19.4668 17.2897 19.8207C16.4352 20.1747 15.4948 20.2673 14.5876 20.0869C13.6804 19.9064 12.8471 19.461 12.1931 18.807C11.539 18.1529 11.0936 17.3196 10.9132 16.4124C10.7327 15.5052 10.8253 14.5649 11.1793 13.7103C11.5333 12.8558 12.1327 12.1253 12.9018 11.6115C13.6709 11.0976 14.575 10.8233 15.5 10.8233C16.7399 10.8247 17.9286 11.3179 18.8054 12.1946C19.6821 13.0714 20.1753 14.2601 20.1767 15.5ZM30.1148 9.06952V21.9305C30.1123 24.1004 29.2493 26.1806 27.7149 27.7149C26.1806 29.2493 24.1004 30.1123 21.9305 30.1148H9.06952C6.89967 30.1123 4.8194 29.2493 3.28508 27.7149C1.75077 26.1806 0.887711 24.1004 0.885254 21.9305V9.06952C0.887711 6.89967 1.75077 4.8194 3.28508 3.28508C4.8194 1.75077 6.89967 0.887711 9.06952 0.885254H21.9305C24.1004 0.887711 26.1806 1.75077 27.7149 3.28508C29.2493 4.8194 30.1123 6.89967 30.1148 9.06952ZM22.5151 15.5C22.5151 14.1126 22.1037 12.7563 21.3328 11.6026C20.562 10.449 19.4664 9.54988 18.1846 9.01892C16.9027 8.48797 15.4922 8.34905 14.1314 8.61972C12.7706 8.8904 11.5207 9.55852 10.5396 10.5396C9.55852 11.5207 8.8904 12.7706 8.61972 14.1314C8.34905 15.4922 8.48797 16.9027 9.01892 18.1846C9.54988 19.4664 10.449 20.562 11.6026 21.3328C12.7563 22.1037 14.1126 22.5151 15.5 22.5151C17.3599 22.513 19.143 21.7732 20.4581 20.4581C21.7732 19.143 22.513 17.3599 22.5151 15.5ZM24.8535 7.90034C24.8535 7.55348 24.7506 7.2144 24.5579 6.926C24.3652 6.63759 24.0913 6.4128 23.7708 6.28007C23.4504 6.14733 23.0977 6.1126 22.7575 6.18027C22.4174 6.24794 22.1049 6.41497 21.8596 6.66024C21.6143 6.90551 21.4473 7.218 21.3796 7.5582C21.3119 7.89839 21.3467 8.25102 21.4794 8.57148C21.6122 8.89194 21.8369 9.16584 22.1253 9.35855C22.4138 9.55125 22.7528 9.65411 23.0997 9.65411C23.5648 9.65411 24.0109 9.46934 24.3398 9.14044C24.6687 8.81155 24.8535 8.36547 24.8535 7.90034Z" fill="#20201D"/>
</svg>
