<svg width="28" height="28" viewBox="0 0 28 28" fill="none" xmlns="http://www.w3.org/2000/svg">
<g clip-path="url(#clip0_26_247)">
<mask id="mask0_26_247" style="mask-type:luminance" maskUnits="userSpaceOnUse" x="0" y="0" width="28" height="28">
<path d="M27.7255 0H0.274506V28H27.7255V0Z" fill="white"/>
</mask>
<g mask="url(#mask0_26_247)">
<path d="M23.6078 0H4.39215C2.11804 0 0.274506 1.8804 0.274506 4.2V23.8C0.274506 26.1196 2.11804 28 4.39215 28H23.6078C25.8819 28 27.7255 26.1196 27.7255 23.8V4.2C27.7255 1.8804 25.8819 0 23.6078 0Z" fill="#EBEBEB"/>
<path d="M17.6458 20.2343C18.182 21.1641 18.9326 21.8203 20.1658 21.8203C21.2381 21.8203 21.935 21.2734 21.935 20.5078C21.935 19.6328 21.2381 19.3047 20.0585 18.7578L19.4151 18.4843C17.5386 17.6641 16.3054 16.6797 16.3054 14.5469C16.3054 12.5781 17.753 11.0469 20.0585 11.0469C21.7206 11.0469 22.9001 11.6484 23.7044 13.1797L21.7206 14.4922C21.2916 13.6719 20.8091 13.3437 20.0585 13.3437C19.3079 13.3437 18.8254 13.8359 18.8254 14.4922C18.8254 15.2578 19.3079 15.5859 20.4339 16.0781L21.0772 16.3515C23.2754 17.3359 24.5086 18.2656 24.5086 20.5078C24.5086 22.8593 22.6857 24.1719 20.2193 24.1719C17.8067 24.1719 16.2519 23.0234 15.5012 21.4922L17.6458 20.2343ZM8.53127 20.4531C8.96017 21.1641 9.28184 21.8203 10.1933 21.8203C11.0512 21.8203 11.5873 21.4922 11.5873 20.1797V11.1015H14.1609V20.0703C14.1609 22.8047 12.606 24.0078 10.3005 24.0078C8.20955 24.0078 7.03003 22.9141 6.44028 21.6015L8.53127 20.4531Z" fill="#151514"/>
</g>
</g>
<defs>
<clipPath id="clip0_26_247">
<rect width="28" height="28" fill="white"/>
</clipPath>
</defs>
</svg>
