<svg viewBox="0 0 700 700" fill="none" xmlns="http://www.w3.org/2000/svg">
<path d="M156.706 700H11.5754V232.65H156.706V700ZM84.053 168.9C37.6513 168.9 0 130.45 0 84.05C0 37.65 37.6263 0 84.053 0C130.48 0 168.106 37.625 168.106 84.05C168.106 130.45 130.455 168.9 84.053 168.9ZM699.875 700H555.07V472.5C555.07 418.275 553.97 348.75 479.617 348.75C404.164 348.75 392.589 407.65 392.589 468.6V700H247.609V232.65H386.789V296.4H388.814C408.19 259.675 455.516 220.925 526.119 220.925C672.999 220.925 700 317.65 700 443.275V700H699.875Z" fill="white"/>
</svg>
