<svg width="28" height="28" viewBox="0 0 28 28" fill="none" xmlns="http://www.w3.org/2000/svg">
<g clip-path="url(#clip0_26_272)">
<mask id="mask0_26_272" style="mask-type:alpha" maskUnits="userSpaceOnUse" x="0" y="0" width="28" height="28">
<path d="M14 28C21.732 28 28 21.732 28 14C28 6.26802 21.732 0 14 0C6.26802 0 0 6.26802 0 14C0 21.732 6.26802 28 14 28Z" fill="black"/>
</mask>
<g mask="url(#mask0_26_272)">
<path d="M14 28C21.732 28 28 21.732 28 14C28 6.26802 21.732 0 14 0C6.26802 0 0 6.26802 0 14C0 21.732 6.26802 28 14 28Z" fill="#EBEBEA"/>
<path d="M23.2568 24.5032L10.7554 8.40002H8.39999V19.5954H10.2843V10.793L21.7776 25.6426C22.2962 25.2956 22.7903 24.9146 23.2568 24.5032Z" fill="url(#paint0_linear_26_272)"/>
<path d="M19.756 8.40002H17.8894V19.6H19.756V8.40002Z" fill="url(#paint1_linear_26_272)"/>
</g>
</g>
<defs>
<linearGradient id="paint0_linear_26_272" x1="16.9556" y1="18.1222" x2="22.4778" y2="24.9667" gradientUnits="userSpaceOnUse">
<stop stop-color="#151514"/>
<stop offset="1" stop-color="white" stop-opacity="0"/>
</linearGradient>
<linearGradient id="paint1_linear_26_272" x1="18.8227" y1="8.40002" x2="18.7914" y2="16.625" gradientUnits="userSpaceOnUse">
<stop stop-color="#151514"/>
<stop offset="1" stop-color="white" stop-opacity="0"/>
</linearGradient>
<clipPath id="clip0_26_272">
<rect width="28" height="28" fill="white"/>
</clipPath>
</defs>
</svg>
