<svg width="32" height="28" viewBox="0 0 32 28" fill="none" xmlns="http://www.w3.org/2000/svg">
<g clip-path="url(#clip0_26_261)">
<path fill-rule="evenodd" clip-rule="evenodd" d="M32 14.0038C32 11.921 29.3464 9.94828 25.276 8.72265C26.2161 4.64662 25.7969 1.40473 23.9583 0.365896C23.5339 0.122818 23.0391 0.00767614 22.4974 0.00767614V1.438C22.7969 1.438 23.0391 1.49685 23.2422 1.60431C24.1302 2.10326 24.513 4.00695 24.2135 6.45563C24.1406 7.05693 24.0234 7.69149 23.8802 8.33885C22.6016 8.0318 21.2057 7.79384 19.7396 7.64032C18.8594 6.45563 17.9453 5.37842 17.026 4.43681C19.151 2.49219 21.1458 1.43032 22.5026 1.43032V0C20.7083 0 18.362 1.25633 15.987 3.43635C13.612 1.26912 11.2656 0.0255871 9.47135 0.0255871V1.45591C10.8203 1.45591 12.8229 2.51266 14.9505 4.44193C14.0365 5.38353 13.125 6.45307 12.2578 7.64032C10.7839 7.79384 9.38802 8.0318 8.10938 8.34396C7.95833 7.70429 7.84896 7.08252 7.77083 6.48634C7.46354 4.03765 7.84375 2.13397 8.72396 1.62734C8.91927 1.5122 9.17448 1.46103 9.47396 1.46103V0.0332633C8.92708 0.0332633 8.42969 0.148405 8 0.391483C6.16667 1.43032 5.75521 4.66709 6.70313 8.73033C2.64062 9.95851 0 11.9262 0 14.0038C0 16.0866 2.65365 18.0594 6.72396 19.285C5.78385 23.3611 6.20313 26.6029 8.04167 27.6418C8.46615 27.8849 8.96094 28 9.51042 28C11.3047 28 13.651 26.7437 16.026 24.5636C18.401 26.7309 20.7474 27.9744 22.5417 27.9744C23.0885 27.9744 23.5859 27.8593 24.0156 27.6162C25.849 26.5774 26.2604 23.3406 25.3125 19.2773C29.3594 18.0543 32 16.079 32 14.0038ZM18.974 14.0038C18.974 12.3867 17.6406 11.0741 15.9922 11.0741C14.3464 11.0741 13.0104 12.3842 13.0104 14.0038C13.0104 15.6235 14.3438 16.9336 15.9922 16.9336C17.6406 16.931 18.974 15.6209 18.974 14.0038ZM23.5078 9.72823C23.2656 10.5547 22.9661 11.4067 22.6276 12.2588C22.3594 11.7471 22.0807 11.2328 21.7734 10.721C21.474 10.2093 21.1536 9.70776 20.8333 9.2216C21.7604 9.35721 22.6536 9.52353 23.5078 9.72823ZM20.5208 16.5549C20.013 17.4197 19.4896 18.2411 18.9479 19.0036C17.9766 19.088 16.9922 19.1315 16 19.1315C15.0156 19.1315 14.0313 19.0854 13.0651 19.0087C12.5234 18.2462 11.9948 17.4325 11.487 16.5728C10.9922 15.7335 10.5417 14.8815 10.1302 14.0217C10.5339 13.162 10.9922 12.3049 11.4792 11.4656C11.987 10.6007 12.5104 9.7794 13.0521 9.01691C14.0234 8.93247 15.0078 8.88897 16 8.88897C16.9844 8.88897 17.9688 8.93503 18.9349 9.01179C19.4766 9.77429 20.0052 10.588 20.513 11.4477C21.0078 12.2869 21.4583 13.139 21.8698 13.9987C21.4583 14.8559 21.0104 15.7131 20.5208 16.5549ZM22.6276 15.7207C22.9792 16.5805 23.2786 17.4376 23.5286 18.2718C22.6745 18.4765 21.7734 18.6505 20.8411 18.7835C21.1615 18.2897 21.4792 17.7831 21.7813 17.2636C22.0781 16.7519 22.3594 16.2325 22.6276 15.7207ZM16.013 22.5576C15.4063 21.9435 14.7995 21.2578 14.2005 20.5081C14.7865 20.5337 15.388 20.5541 15.9948 20.5541C16.6068 20.5541 17.2135 20.5414 17.8073 20.5081C17.2188 21.2578 16.612 21.9435 16.013 22.5576ZM11.1615 18.7835C10.2344 18.6479 9.34115 18.4816 8.48698 18.2769C8.72917 17.4504 9.02865 16.5984 9.36719 15.7463C9.63542 16.2581 9.91406 16.7724 10.2214 17.2841C10.5286 17.7984 10.8411 18.2974 11.1615 18.7835ZM15.9792 5.4475C16.5859 6.06159 17.1927 6.74733 17.7917 7.49703C17.2057 7.47144 16.6042 7.45097 15.9974 7.45097C15.3854 7.45097 14.7786 7.46377 14.1849 7.49703C14.7734 6.74733 15.3802 6.06159 15.9792 5.4475ZM11.1536 9.2216C10.8333 9.71543 10.5156 10.2221 10.2135 10.7415C9.91406 11.2532 9.63281 11.7675 9.36458 12.2793C9.01302 11.4195 8.71354 10.5624 8.46354 9.72823C9.32031 9.52865 10.2214 9.35721 11.1536 9.2216ZM5.25 17.2457C2.9401 16.2785 1.44792 15.0094 1.44792 14.0038C1.44792 12.9983 2.94271 11.7215 5.25 10.7619C5.8099 10.524 6.42448 10.3142 7.05729 10.1146C7.42969 11.3709 7.91927 12.6784 8.52604 14.0166C7.92708 15.3497 7.44271 16.6495 7.07813 17.9008C6.43229 17.7012 5.81771 17.4837 5.25 17.2457ZM8.76042 26.4034C7.8724 25.9044 7.48958 24.0007 7.78906 21.552C7.86198 20.9507 7.97917 20.3162 8.1224 19.6688C9.40104 19.9759 10.7969 20.2138 12.263 20.3674C13.1432 21.552 14.0573 22.6293 14.9766 23.5709C12.849 25.5129 10.8542 26.5774 9.4974 26.5774C9.20313 26.5697 8.95573 26.5134 8.76042 26.4034ZM24.2318 21.5213C24.5391 23.97 24.1589 25.8737 23.2786 26.3803C23.0833 26.4955 22.8281 26.5466 22.5286 26.5466C21.1797 26.5466 19.1771 25.4899 17.0495 23.5606C17.9635 22.619 18.875 21.5495 19.7422 20.3622C21.2161 20.2087 22.612 19.9708 23.8906 19.656C24.0417 20.3034 24.1589 20.9252 24.2318 21.5213ZM26.7422 17.2457C26.1823 17.4837 25.5677 17.6935 24.9349 17.8931C24.5625 16.6368 24.0729 15.3293 23.4661 13.991C24.0651 12.658 24.5495 11.3581 24.9141 10.1069C25.5599 10.3065 26.1719 10.524 26.7474 10.7594C29.0573 11.7266 30.5495 12.9957 30.5495 14.0013C30.5443 15.0094 29.0521 16.2837 26.7422 17.2457Z" fill="#EBEBEA"/>
</g>
<defs>
<clipPath id="clip0_26_261">
<rect width="32" height="28" fill="white"/>
</clipPath>
</defs>
</svg>
