<svg width="28" height="28" viewBox="0 0 28 28" fill="none" xmlns="http://www.w3.org/2000/svg">
<g clip-path="url(#clip0_44_49)">
<mask id="mask0_44_49" style="mask-type:luminance" maskUnits="userSpaceOnUse" x="0" y="0" width="28" height="28">
<path d="M27.5014 0H0.0503998V27.451H27.5014V0Z" fill="white"/>
</mask>
<g mask="url(#mask0_44_49)">
<path d="M23.3837 0H4.16805C1.89393 0 0.0503998 1.84353 0.0503998 4.11765V23.3333C0.0503998 25.6074 1.89393 27.451 4.16805 27.451H23.3837C25.6578 27.451 27.5014 25.6074 27.5014 23.3333V4.11765C27.5014 1.84353 25.6578 0 23.3837 0Z" fill="#EBEBEA"/>
<path d="M13.8831 4.71812C8.73606 6.4874 5.41192 10.0796 5.73364 12.2243C6.05531 14.3689 9.27224 16.0845 10.7198 17.2105C8.84329 18.1755 6.4842 19.6231 6.53784 21.4997C6.64507 24.0732 9.43304 23.269 10.6126 22.5184C11.7921 21.7678 12.9717 19.6768 12.2211 17.4786C13.8831 17.0496 15.3307 17.5858 15.7597 17.9074C17.4217 19.087 16.5639 20.4274 15.9741 20.6418C15.3844 20.8563 15.7597 20.9635 16.135 20.8563C16.5103 20.7491 17.3145 20.2129 17.3145 19.3015C17.3145 16.996 14.8482 15.9237 11.7921 16.7279C10.0229 14.8514 7.61013 13.9935 7.71736 11.9562C7.771 11.2056 8.03908 9.27543 12.8108 6.86271C17.5826 4.45004 20.9603 5.41512 20.5314 7.61333C19.888 10.9375 14.0976 13.1893 12.0602 11.2591C11.953 11.0447 11.5777 10.8839 11.7921 11.4737C12.8644 14.1544 21.5501 12.9213 21.9254 7.23802C22.0327 4.23559 17.6898 3.43136 13.8831 4.71812ZM9.27224 21.875C7.93186 22.3039 7.98544 21.446 8.03908 21.1244C8.19989 20.2129 8.95051 19.087 11.2024 17.9611C11.8458 19.9984 10.3982 21.5533 9.27224 21.875Z" fill="#151514"/>
</g>
</g>
<defs>
<clipPath id="clip0_44_49">
<rect width="28" height="27.451" fill="white"/>
</clipPath>
</defs>
</svg>
