<svg width="36" height="22" viewBox="0 0 36 22" fill="none" xmlns="http://www.w3.org/2000/svg">
<g clip-path="url(#clip0_44_29)">
<path d="M9 7.33333C10.2 2.44444 13.2 0 18 0C25.2 0 26.1 5.5 29.7 6.41667C32.1 7.02778 34.2 6.11111 36 3.66667C34.8 8.55558 31.8 11 27 11C19.8 11 18.9 5.5 15.3 4.58333C12.9 3.97222 10.8 4.88889 9 7.33333ZM0 18.3333C1.2 13.4444 4.2 11 9 11C16.2 11 17.1 16.5 20.7 17.4167C23.1 18.0278 25.2 17.1111 27 14.6667C25.8 19.5556 22.8 22 18 22C10.8 22 9.9 16.5 6.3 15.5833C3.9 14.9722 1.8 15.8889 0 18.3333Z" fill="#EBEBEA"/>
</g>
<defs>
<clipPath id="clip0_44_29">
<rect width="36" height="22" fill="white"/>
</clipPath>
</defs>
</svg>
