<svg width="42" height="42" viewBox="0 0 42 42" fill="none" xmlns="http://www.w3.org/2000/svg">
<rect width="42" height="42" rx="17" fill="#0A0A0A"/>
<path d="M20.4938 10.3567L10.3367 20.6699C10.1485 20.8609 10.1446 21.1664 10.3277 21.3622L11.5083 22.6248C11.7005 22.8303 12.0245 22.8368 12.2248 22.6391L20.4968 14.4732C20.6903 14.2822 21.0011 14.2808 21.1963 14.4702L29.6347 22.6592C29.8299 22.8486 30.1406 22.8473 30.3342 22.6562L31.6395 21.3676C31.8379 21.1718 31.8379 20.8517 31.6395 20.6559L21.2013 10.3517C21.0046 10.1575 20.6877 10.1597 20.4938 10.3567Z" fill="#D9D9D9"/>
<path d="M20.4938 18.3567L10.3367 28.6699C10.1485 28.8609 10.1446 29.1664 10.3277 29.3622L11.5083 30.6248C11.7005 30.8303 12.0245 30.8368 12.2248 30.6391L20.4968 22.4732C20.6903 22.2822 21.0011 22.2808 21.1963 22.4702L29.6347 30.6592C29.8299 30.8486 30.1406 30.8473 30.3342 30.6562L31.6395 29.3676C31.8379 29.1718 31.8379 28.8517 31.6395 28.6559L21.2013 18.3517C21.0046 18.1575 20.6877 18.1597 20.4938 18.3567Z" fill="#D9D9D9"/>
</svg>
