<svg width="28" height="28" viewBox="0 0 28 28" fill="none" xmlns="http://www.w3.org/2000/svg">
<g clip-path="url(#clip0_26_254)">
<mask id="mask0_26_254" style="mask-type:luminance" maskUnits="userSpaceOnUse" x="0" y="0" width="28" height="28">
<path d="M27.9335 0H0.482536V28H27.9335V0Z" fill="white"/>
</mask>
<g mask="url(#mask0_26_254)">
<path d="M23.8159 0H4.60019C2.32607 0 0.482536 1.8804 0.482536 4.2V23.8C0.482536 26.1196 2.32607 28 4.60019 28H23.8159C26.09 28 27.9335 26.1196 27.9335 23.8V4.2C27.9335 1.8804 26.09 0 23.8159 0Z" fill="#EBEBEB"/>
<path d="M12.9749 15.5312H16.4062V13.2891H6.8091V15.5312H10.2405V25.5391H12.9749V15.5312ZM17.4785 24.9922C17.9129 25.2219 18.4437 25.3914 19.0334 25.5063C19.6232 25.6211 20.2666 25.6758 20.9099 25.6758C21.5533 25.6758 22.1431 25.6156 22.7328 25.4898C23.3226 25.3641 23.8052 25.1562 24.2341 24.8883C24.6683 24.5984 25.0383 24.232 25.2528 23.7398C25.4672 23.2477 25.6335 22.7008 25.6335 21.9898C25.6335 21.4922 25.5583 21.0601 25.4136 20.6773C25.2688 20.2945 25.0597 19.9664 24.7702 19.6929C24.4968 19.4031 24.1805 19.1461 23.8052 18.9273C23.4299 18.7086 23.0009 18.4789 22.5184 18.2711C22.1645 18.1234 21.875 17.9812 21.5533 17.8391C21.2745 17.6969 21.0332 17.5547 20.8563 17.4125C20.658 17.2648 20.5078 17.1117 20.4006 16.9531C20.2934 16.7891 20.2397 16.6086 20.2397 16.4062C20.2397 16.2203 20.2875 16.0508 20.3845 15.8977C20.4816 15.7445 20.615 15.6187 20.7866 15.5094C20.9582 15.4 21.1727 15.3179 21.43 15.2578C21.682 15.1977 21.9608 15.1703 22.2878 15.1703C22.513 15.1703 22.7489 15.1872 22.9848 15.2217C23.2315 15.2562 23.4834 15.3092 23.7354 15.3803C23.9874 15.4514 24.2341 15.5389 24.4861 15.6483C24.722 15.7577 24.9418 15.8834 25.1295 16.0256V13.4553C24.722 13.2967 24.2716 13.1764 23.7891 13.0998C23.3065 13.0233 22.7704 12.985 22.127 12.985C21.4836 12.985 20.8938 13.0561 20.3041 13.1928C19.7143 13.3295 19.2318 13.5483 18.8028 13.8491C18.3685 14.1444 18.0523 14.5053 17.7842 14.9975C17.5322 15.4569 17.4089 15.9819 17.4089 16.6381C17.4089 17.4584 17.6394 18.1694 18.1058 18.7163C18.567 19.3178 19.2854 19.7553 20.1968 20.1928C20.5668 20.3459 20.8938 20.4991 21.2155 20.6467C21.5372 20.7944 21.8053 20.9475 22.0197 21.1061C22.2503 21.2647 22.4326 21.4397 22.5559 21.6256C22.6899 21.8115 22.7597 22.0303 22.7597 22.2819C22.7597 22.4569 22.7178 22.6209 22.6364 22.7741C22.5548 22.9272 22.4272 23.0584 22.2557 23.1678C22.0841 23.2772 21.875 23.3647 21.6123 23.4303C21.3603 23.4905 21.0761 23.5233 20.7008 23.5233C20.1111 23.5233 19.5213 23.4194 18.9852 23.2115C18.3954 23.0037 17.8592 22.692 17.4785 22.3672V24.9922Z" fill="#151514"/>
</g>
</g>
<defs>
<clipPath id="clip0_26_254">
<rect width="28" height="28" fill="white"/>
</clipPath>
</defs>
</svg>
