<svg viewBox="0 0 3860 4076" fill="none" xmlns="http://www.w3.org/2000/svg">
<path fill-rule="evenodd" clip-rule="evenodd" d="M2272.92 67.3862C2664.61 67.3862 3134.57 257.168 3174.53 260.964L3175.61 261.022C3196.63 261.022 3278.77 323.569 3422.04 448.662L3266.86 751.148L3279.42 763.132C3339.51 820.714 3415.51 775.127 3456 816.5C3786.63 1154.31 3653.5 2356 3653.5 2895C3575.58 3357.54 3393.89 3851 2722 3851C2050.11 3851 1430.15 3515.74 1315 3390C1238.24 3306.17 1151.81 3302.94 1056.12 3306.45C1052.19 3301.49 1048.29 3296.54 1044.42 3291.61L1030.34 3289.62C897.908 3270.45 803.018 3244.65 745.674 3212.22C633.663 3148.89 510.549 2815.93 510.549 2742.58C510.549 2669.97 326.715 2141.73 323.039 2085.83L322.983 2084.28C322.983 2037.55 82.822 1822.73 82.822 1754.51C82.822 1686.29 34.4136 1690.43 82.822 1450.03L96.8859 1379.41C148.4 1123.45 361.238 632.828 745.674 448.662C1168.13 246.283 1877.27 67.3862 2272.92 67.3862Z" fill="white"/>
<path fill-rule="evenodd" clip-rule="evenodd" d="M570.383 507.668C781.79 283.401 1981.99 -63.4886 2589.2 10.0436L2607.41 12.4011C2655.87 18.5426 2703.63 27.8426 2750.76 40.4765C2903.1 76.0357 3060.46 129.879 3186.33 219.817C3291.42 293.392 3622.92 413.546 3525.21 606.02C3561.44 674.62 3638.98 703.935 3614.5 771.5C3611.42 794.838 3652.21 854.487 3643 876.772C3720.4 990.925 3667.5 1190.5 3688.5 1445.5C3712.65 1738.7 3720.32 2001.69 3742 2340.5C3775.69 2867 3771.64 3461.81 3108.5 3825.5C2773 4009.5 2177.5 3871.62 2138.5 3825.5C2118.39 3801.71 2028.09 3769.18 2059.64 3757.92C2069.04 3767.83 2078.69 3777.49 2088.52 3786.96C2088.08 3785.91 2087.99 3784.86 2088.17 3783.71L2078.93 3775.35C2061.51 3759.24 2038.95 3735.89 2064.65 3740.46C2065.78 3741.78 2067.02 3742.92 2068.24 3744.23C2073.68 3747.5 2077.79 3750.33 2080.99 3752.82L2082.64 3754.14L2082.13 3753.61C2067.33 3737.83 2058.45 3721.74 2080.58 3732.02L2083.51 3733.44C2093.35 3743.8 2103.35 3753.71 2113.53 3763.36C2113.37 3762.22 2113.53 3761.08 2114.16 3759.85L2104.66 3750.68C2095.4 3741.61 2096.81 3741.57 2101.34 3734.23C2081.64 3706.64 2080.93 3722.68 2083.51 3733.44C2106.52 3728 2162.28 3728.08 2177.5 3732.02C2951.5 3932.5 3664 3681 3621 2474.5V2367C3572 1920.5 3581.51 1634 3530.99 1260.5C3513.09 1221.72 3491.92 1034.08 3469.89 997.584C3454.7 970.21 3438.46 943.539 3421 917.569C3372.09 913.621 3323.81 904.672 3276.24 890.81C3259.9 886.686 3243.75 882.124 3227.61 876.772C2991.64 889.634 2760.94 903.628 2524.32 916.893L2450.41 921.494C2249.96 934.374 2042.66 955.002 1880.91 1078.91C1722.19 1191.73 1721.47 1414.18 1585.61 1538.04C1391.87 1669.45 1390.46 1787.96 1353.15 1981.63C1355.92 2127.62 1457.2 2339.74 1271.34 2401.18C1302.69 2445.86 1258.99 2424.39 1255.54 2408.72C1255.19 2408.81 1254.84 2408.9 1254.58 2408.9C1282.52 2460.81 1241.45 2428.12 1237.81 2411.44C1235.62 2410.83 1233.42 2409.25 1231.23 2407.06C1259.38 2452.54 1213.87 2420.69 1216.57 2412.41C1162.17 2328.84 1050.21 2315.86 971.291 2338.01C970.326 2340.99 966.823 2341.25 964.629 2339.68C629.057 2412.36 715.639 3106.66 1059.52 3039.54C1074.24 3036.54 1073.89 3043.6 1076.82 3044.28C1068.87 3023.43 1091.27 3031.92 1091.03 3036.3L1092.39 3036.23C1093.47 3036.13 1093.03 3036.02 1093.84 3036.3C1086.16 2993.66 1129.38 3055.43 1125.97 3057.97C1127.29 3057.18 1128.78 3056.74 1130.1 3056.56L1128.61 3052.52C1121.44 3033.42 1122.05 3041.35 1122.1 3030.42C1116.71 3016.9 1116.32 3022.81 1117.58 3014C1136.53 2999.33 1142.12 3043.83 1148.44 3047.09C1137.61 3032 1146.22 3019.67 1156.44 3027.86C1233.89 3190.68 1333.94 3343.67 1463.23 3464.18C1477.37 3475.32 1491.68 3486.29 1506.51 3496.64C1561.51 3544.52 1645.87 3575.31 1697.35 3617.72C1697.35 3618.42 1697.01 3619.3 1696.48 3620.18L1697.66 3621.24L1698.85 3622.37L1716.76 3630.97C1722.03 3635.44 1726.77 3640.44 1730.97 3645.97C1735.46 3651.15 1739.4 3656.85 1742.74 3662.9C1744.41 3670.27 1740.73 3673.34 1733.7 3670.19C1730.62 3669.13 1727.56 3667.9 1724.49 3666.76C1724.66 3667.03 1724.74 3667.2 1724.92 3667.38C1725.93 3668.9 1732.75 3684.7 1724.89 3682.13L1723.96 3681.77C1719.65 3680.19 1715.36 3678.43 1711.14 3676.77C1716.15 3682.99 1720.7 3689.75 1724.74 3695.45C1729.05 3699.93 1731.67 3705.19 1732.74 3711.16C1732.55 3714.49 1730.72 3715.9 1727.38 3715.46C1722.29 3713.79 1717.29 3712.03 1712.27 3710.19L1713.7 3712.91C1717.24 3719.87 1722.27 3731.55 1713.34 3727.65C1705.69 3725.28 1698.33 3722.56 1690.95 3719.58C1690.33 3720.81 1689.11 3721.25 1686.65 3720.11C1663.21 3711.77 1640.56 3701.59 1618.88 3689.57C1599.83 3675.71 1580.6 3662.11 1561.47 3648.34C1543.47 3637.55 1526.08 3625.53 1509.5 3612.02C1398.49 3540.35 1301.31 3449.32 1224.21 3347.93C1095.26 3459.54 837.447 3352.92 677.971 3265.55C536.911 3187.46 481.467 3043.09 467.132 2887.43C437.329 2677.86 265.975 2606.13 277.896 2146.31C277.633 2146.39 277.36 2146.39 277.009 2146.39C270.777 2144.55 264.728 2142.09 259.022 2138.94C253.141 2136.13 247.611 2132.79 242.423 2128.76L236.014 2119.9C232.687 2118.06 229.703 2116.12 227.42 2114.19L226.237 2115.72C222.49 2120.24 225.008 2113.44 225.226 2112.09L214.093 2096.96C187.698 2060.94 158.739 2020.53 135.151 1988.21L134.408 1989.52C133.874 1990.51 133.592 1991.23 133.843 1991.54C77.705 1910.93 24.9118 1813.56 10.2431 1719.3C-7.07661 1646.69 -0.308476 1571.87 14.7991 1504.61C79.5748 1269.08 291.766 736.106 570.383 507.668ZM2093.85 3764.88L2090.33 3761.75L2093.43 3765.62C2095.05 3767.62 2096.71 3769.42 2099.41 3771.26C2099.23 3770.64 2099.23 3770.03 2099.31 3769.33C2097.52 3767.96 2095.69 3766.46 2093.85 3764.88ZM2586.51 128.388C2174.74 93.0038 1769.73 183.67 1376.79 293.418L1349.68 301.205C1126.26 364.923 890.004 422.26 701.189 558.643C437.39 760.584 301.167 1081.84 182.291 1378.44C78.4863 1598.82 131.552 1847.31 287.982 2001.19C304.257 1848.28 332.006 1699.84 375.371 1552.59C384.422 1529.59 377.574 1522.05 397.08 1519.05C426.54 1915.86 281.442 2209.04 568.583 2679.32C693.175 2901.22 548.946 3063.58 900.784 3180.35L910.305 3183.98C983.605 3211.63 1063.65 3233.45 1135.45 3218L1129.02 3207.54C1122.46 3196.77 1120.46 3191.54 1130 3186.94C1129.75 3186.41 1129.4 3185.88 1129.04 3185.27C1121.32 3170.71 1113.86 3155.97 1106.74 3141.05C1103.85 3142.02 1100.96 3142.72 1097.96 3143.51C1099.9 3147.11 1100.16 3150.7 1094.72 3151.93C1075.38 3158.56 1055.52 3161.22 1035.18 3159.98L1030.82 3159.65C1007.84 3158.25 993.369 3154.06 980.421 3150.18C976.128 3149.47 971.827 3148.77 967.605 3147.9C925.951 3138.67 881.857 3115.19 853.319 3091.92C528.01 2907.25 561.631 2278.64 962.61 2219.21C970.835 1823.42 1159.19 1155.68 1471.79 778.534C1754.35 431.619 2525.74 281.258 3062.42 334.277C3070.24 336.865 3078.06 339.479 3085.88 342.12C3168.68 349.472 3247.59 386.339 3330.45 403.465C3270.96 358.904 3203.47 329.223 3133.95 303.999C2995.45 219.325 2836.66 173.51 2683.26 141.197C2651.48 133.388 2619.27 129.089 2586.51 128.388ZM944.257 2537.17C965.816 2525.46 963.35 2536.76 968.309 2533.48C1123.39 2520.84 1290.61 2656.54 1377.29 2769.67C1370.45 2776.77 1351.92 2755.72 1348.68 2752.38C1348.24 2752.82 1347.71 2753.17 1347.18 2753.35L1349.6 2756.75C1384.73 2807.15 1315.08 2747.85 1308.56 2735.62C1307.42 2736.24 1306.28 2736.59 1304.96 2736.33C1310.48 2741.74 1327.35 2755.86 1330.24 2765.89L1334.71 2769.61C1376.87 2805.69 1373.37 2832.83 1325.51 2781.6C1326.64 2783.97 1327.08 2786.16 1326.29 2787.92L1327.94 2789.01C1351.47 2805.45 1370.83 2851.27 1321.64 2804.23C1326.76 2838.59 1272.89 2772.18 1271.16 2772.65C1177.95 2699.52 1040.72 2628.4 923.803 2618.85L919.779 2618.39C898.324 2615.63 888.18 2609.27 895.712 2595.25C869.289 2588.97 875.478 2575.96 887.987 2576.38C869.351 2564.14 886.126 2552.42 896.941 2557C889.506 2536.42 919.326 2550.13 922.047 2547.26C937.524 2523.4 941.693 2543.3 944.257 2537.17ZM619.194 1261.93C693.679 1234.66 913.691 1316.29 896.091 1424.4C885.609 1449.22 851.075 1463.44 826.803 1449.43L795.123 1428.17C739.992 1391.26 690.27 1358.91 631.08 1326.72C598.863 1310.75 584.994 1276.83 619.194 1261.93ZM1042.97 1101.28L1014.2 1082.57C858.967 981.025 639.514 827.165 1028.7 986.351C1073.06 1005.36 1132 1016.61 1156.2 1058.83C1194.22 1136.64 1094.17 1141.87 1042.97 1101.28ZM1060.41 645.674C1047.96 598.428 1202.96 653.868 1248.08 668.485L1254.95 671.079C1298.84 687.425 1349.16 702.589 1375.41 740.446C1406.17 792.754 1343.91 803.589 1305.35 779.962C1226.28 728.321 1139.59 689.357 1060.41 645.674ZM1454.57 425.59C1367.32 330.367 1600.81 421.587 1635.79 446.909L1636.79 447.656C1662.89 466.019 1657.59 505.57 1633.07 517.186C1563.31 518.511 1511.98 460.395 1454.57 425.59ZM1851.58 321.262C1712.88 221.638 1895.58 269.024 1959.04 308.067C2002.29 346.188 1957.74 410.542 1851.58 321.262Z" fill="black"/>
<path fill-rule="evenodd" clip-rule="evenodd" d="M2497.04 2878.04C2549.1 2792.45 2660.07 3002.11 2671.86 3038.16C2682.3 3070.1 2689.19 3102.81 2692.69 3135.91C2733.05 3144.95 2774.97 3144.96 2816.32 3137.04C2877.78 3125.26 2915.36 3092.23 2968.77 3063.87C3005.67 3044.28 3052.17 3067.26 3071.36 3099.75C3093.93 3138 3079.55 3177.71 3049.87 3206.22C2993.57 3260.29 2882.82 3272.72 2809.33 3258.36C2767.23 3250.13 2728.65 3234.35 2694.57 3211.42C2694.35 3215.7 2694.2 3219.98 2693.86 3224.25L2693.21 3231.67C2687.56 3291.64 2671.07 3367.05 2624.46 3406.07C2548.02 3470.08 2453.68 3346.98 2527.96 3283.04L2530.26 3281.12C2576.43 3243.83 2586.5 3143.8 2584.01 3088.71C2582.38 3052.75 2575.83 3016.32 2564.47 2982.07L2562.13 2975.25C2558.71 2965.58 2521.43 2873.8 2507.95 2885.49L2507.31 2886.15C2501.76 2892.78 2492.78 2885.06 2497.04 2878.04ZM2912.69 2395.09C2982.97 2437.78 3090.04 2537.33 3014.45 2643.17C2925.46 2736.49 2797.34 2629.49 2734.2 2581.1C2675.66 2543.6 2609.88 2640.05 2664.2 2683.84C3120.42 3021.42 3305.56 2406.25 2948.24 2344.9C2908.89 2338.13 2894.28 2381.88 2912.69 2395.09ZM2162.29 2000.48C2230.97 1988.31 2301.32 2005.38 2358.16 2045.54L2362.46 2048.63C2417.22 2088.65 2478.48 2158.93 2447.06 2227.91C2434.45 2255.61 2396.68 2259.95 2372.72 2247.39C2332.83 2226.49 2325.6 2175.04 2290 2146.57C2260.81 2123.24 2221.5 2109.08 2183.9 2112.49C2095.58 2120.51 2041.25 2207.58 2013.81 2282.61C2010.3 2292.21 1996.21 2295.94 1990.7 2285.63C1926.01 2164.79 2040.51 2022.08 2162.29 2000.48ZM3262.37 1954.88C3393.93 1944.05 3547.92 2080.36 3513.28 2219.15C3496.67 2285.74 3397.83 2283.84 3380.26 2219.15C3370.59 2183.55 3371.56 2152.06 3345.92 2122.5C3324.76 2098.1 3294.69 2083.92 3262.37 2086.1C3226.75 2088.5 3193.89 2106.29 3168.92 2131.3C3146.37 2153.88 3132.89 2186.93 3109.53 2206.92C3103.78 2211.83 3096.08 2212.14 3090.4 2206.92C3050.2 2169.87 3074.33 2092.75 3099.82 2054.08C3136.3 1998.73 3195.7 1960.38 3262.37 1954.88ZM1911.76 1754.33C1996.16 1679.67 2149.52 1607.56 2263.32 1644.3C2328.75 1665.43 2357.27 1770.8 2284.23 1804.2C2199.65 1842.87 2102.13 1827.13 2016.04 1867.22C1979.88 1884.06 1945.88 1905.11 1920.71 1935.98C1900.88 1960.31 1880.7 1992.32 1852.02 2006.35C1844.48 2010.04 1834.27 2010.14 1828.23 2003.29C1765.36 1932.21 1856.87 1802.89 1911.76 1754.33ZM3117.31 1640.6C3169.47 1625.97 3227.34 1626.26 3280.32 1635.45C3333.3 1644.64 3387.08 1666.58 3430.32 1698.59L3435.34 1702.34C3482.55 1737.89 3538.89 1789.62 3535.87 1852.61C3533.35 1905.21 3477.99 1940.78 3430.19 1913.22C3391.23 1890.74 3372.89 1845.7 3339.9 1815.71C3312.68 1790.96 3280.71 1771.45 3246.59 1757.78C3208.7 1742.59 3170.74 1735.48 3130.07 1734.8C3098.75 1734.28 3067.25 1744.54 3036.52 1747.83C3039.06 1753.02 3014.77 1750.6 3000.84 1745.99C2990.53 1741.6 2990.48 1728.57 2994.05 1720.12C3011.78 1678.24 3076.28 1652.09 3117.31 1640.6Z" fill="black"/>
</svg>
