<svg width="9816" height="10569" viewBox="0 0 9816 10569" fill="none" xmlns="http://www.w3.org/2000/svg">
<path fill-rule="evenodd" clip-rule="evenodd" d="M9516.18 5704.75C9376.25 5718.48 9236.31 5732.2 9096.38 5745.95C8426.21 5797.15 7756.3 5904.07 7091.26 5968.25C7074.7 5941.3 7042.29 5945.74 7022.61 5964.46C6956.25 5958.64 6881.87 5907.93 6821.77 5960.69C6819.81 5960.41 6817.86 5960.09 6815.88 5959.9C6708.86 5754.49 6634.88 5535.39 6563.06 5316.02C6517.24 5181.13 6455.57 5050.56 6341.63 4960C6147.17 4825.03 5701.6 4551.31 5473.26 4562.82C5469.47 4521.94 5450.41 4479.8 5419.12 4452.57C5488.08 4335 5212.31 4258.28 5192.87 4271.92C5205.32 3879.1 5020.54 3537.97 4613.08 3459.75C4248.04 3383.69 3728.83 3370.91 3532.5 3752.36C3510.92 3749.94 3290.32 3748.78 3268.97 3751.17C3235.8 3709.15 2871.36 4107.4 3020.72 4246.03C1685.31 4836.73 925.989 4766.25 556.368 6426.84C506.399 6582.84 502.759 6753.54 449.994 6906.06C262.271 7344.38 110.008 7811.11 72.1141 8288.04C-19.4084 8311.48 -29.934 8472.84 76.0764 8496.18C116.571 8505.11 150.433 8517.3 179.959 8540.41C156.877 8931.26 251.411 9824.06 310.974 9821.3C432.425 10207.8 974.161 10316.9 1357.69 10181.1C1291.57 10305.4 1357.69 10383.6 1357.69 10450.1C2737.73 10502.3 4246.67 10472.2 5626.33 10543.8C5802.82 10541.3 5988.44 10587.2 6162.51 10560.8C6268.67 10535.3 6268.85 10368.4 6161.17 10347.8L6631.66 10245.6C6621.16 10241.6 6825.61 10105.7 6980.14 9851.54C7123.98 9567.28 7026.08 9224.16 7091.26 8914.94C7600.29 8873.32 8117.74 8855.52 8621.2 8769.31C8689.85 8974.69 8987.01 8729.07 9081.47 8630.27C9081.35 8630.11 9081.23 8629.97 9081.11 8629.81C9126.82 8617.31 9163.48 8574.47 9164.71 8523.75C9196.76 8477.95 9203.49 8413.39 9172.75 8369.13C9313.65 7556.14 9528.46 6726.07 9606.1 5905.43C9633.55 5899.35 9659.4 5887.33 9681.31 5868.78L9679.54 5867C9716.67 5825.62 9723.89 5754.17 9661.99 5719.01C9612.06 5690.61 9570.36 5699.42 9516.18 5704.75Z" fill="#EBEBEA"/>
<path fill-rule="evenodd" clip-rule="evenodd" d="M3617.08 3627.6C3658.66 3523.11 3799.24 3563.73 3783.57 3673.5C3774.19 3739.25 3738.16 3808.68 3705.82 3866.32C3679.48 3913.22 3649.43 3959 3608.68 3994.16C3681.21 4061.8 3756.48 4126.99 3833.68 4188.87C3917.89 4256.4 4006.47 4318.64 4098.01 4375.84C4178.29 4426.01 4262.19 4470.46 4337.86 4527.7C4408.21 4580.92 4472.31 4644.93 4504.93 4728.48C4539.67 4817.45 4524.58 4909.34 4498.99 4998.25L4496.04 5008.3C4469.91 5096.4 4424.66 5202.59 4487.41 5285.58C4519.34 5327.83 4565.78 5357.76 4605.88 5391.54C4641.5 5421.55 4674.95 5454.21 4705.64 5489.27C4772.52 5565.73 4826.93 5651.74 4861.25 5747.59L4864.32 5756.3C4893.74 5841.16 4915.25 5945.11 4875.5 6028.41C4864.08 6052.29 4827.29 6044.52 4820.9 6021.27C4806.46 5968.59 4807.21 5913.43 4795.1 5860.01C4782.5 5804.45 4761.52 5751.71 4734.13 5701.82C4681.13 5605.29 4609.36 5522.84 4524.55 5453.14L4499.16 5432.5C4433.02 5378.22 4372.23 5320.63 4358.8 5230.8C4344.43 5134.69 4382.95 5043.12 4407.72 4952.15C4424.98 4888.76 4430.62 4827.98 4411.95 4770.69C4389.18 4807.87 4358.09 4843.17 4333.5 4874.66C4284.52 4937.37 4235.09 4999.71 4185.78 5062.17C4135.23 5126.22 4085.93 5191.27 4038.97 5258.01C4017.97 5287.86 3997.19 5317.89 3976.49 5347.96C3960.91 5370.56 3939.19 5393.13 3922.22 5416.18C3926.34 5428.51 3926.04 5442.71 3918.55 5452.81C3828.53 5574.4 3700.48 5320.68 3667.08 5256.58C3599.06 5126.03 3548.44 4987.34 3480.2 4856.82C3409.49 4721.52 3328.97 4589.83 3239.22 4466.3C3184.94 4391.58 3124.09 4321.41 3074.44 4244.33C2957.45 4350.39 2803.5 4421.48 2662.11 4485.96C2506.74 4556.79 2345.34 4614.65 2186.05 4676.1L2139 4694.37C1864.54 4801.46 1583.37 4919.12 1355.24 5109.34C1087.17 5332.88 928.574 5644.44 810.508 5967.07C674.594 6338.48 562.154 6719.93 457.338 7101.13C403.7 7296.17 352.805 7492.1 304.959 7688.65C262.799 7861.8 227.85 8036.7 179.043 8208.07C278.028 8204.57 390.92 8242.88 475.43 8253.94C860.579 8304.35 1240.54 8384.7 1604.17 8523.81C1649.09 8541 1662.08 8585.85 1652.3 8622.2C1678.21 8614.89 1704.08 8607.48 1729.99 8600.21C1701.61 8556.74 1715.15 8479.01 1717.39 8430.83L1717.52 8427.51C1719.81 8363.3 1726.79 8299.02 1731.31 8234.93C1739.91 8112.75 1751.11 7991.47 1766 7869.99L1769.8 7839.61C1786.68 7707.45 1799.15 7574.51 1817.57 7442.57L1819.74 7427.48C1810.91 7393.72 1800.63 7360.37 1789.84 7327.17C1761.09 7238.74 1720.51 7155.5 1684.94 7069.84C1680.74 7059.77 1695.1 7053.97 1701.82 7060.02C1762.06 7114.19 1809.9 7182.92 1848.34 7254.81C1849.01 7251.41 1849.6 7248.01 1850.29 7244.62L1854.68 7223.04C1865.49 7170.4 1878.65 7115.02 1910.94 7072.33C1914.39 7067.8 1921.19 7066.84 1924.44 7072.33C1955.35 7124.63 1958.81 7190.85 1963.56 7250.35C1968.95 7317.68 1969.62 7385.85 1968.67 7453.35C1966.82 7585.26 1957.51 7717.56 1950.11 7849.27C1942.84 7978.69 1928.57 8106.46 1910.17 8234.62L1906.67 8258.65C1897.68 8319.65 1890.32 8381.4 1878.46 8441.98L1875.11 8458.48C1868.76 8488.52 1864.87 8530.88 1852.25 8566.06C2177.01 8475.5 2502.28 8387 2828.17 8300.06C3063.7 8237.2 3299.48 8175.3 3535.16 8112.99C3547.6 8090.59 3563.08 8069.66 3582.41 8050.95C3646.09 7989.29 3730.47 7961.79 3807.86 8009.25C3814.15 8013.12 3814.67 8022.98 3807.86 8026.71C3793.03 8034.82 3778.18 8043.12 3763.58 8051.78L3905.09 8013.46C4010.88 7984.8 4117.92 7948.98 4226.19 7929C4425.59 7830.62 4640.07 7759.4 4850.13 7689.02L4874.88 7680.64C4982.44 7643.98 5093.69 7602.94 5204.81 7582.62C5286.17 7567.74 5381.67 7585.69 5414.38 7669.02C5455.8 7696.3 5494.77 7728.38 5532.37 7759.91C5559.56 7782.71 5585.62 7806.95 5612.12 7830.54L5617 7834.83C5638.67 7853.62 5655.83 7866.2 5661.15 7896.12C5663.9 7911.57 5654.07 7932.46 5635.01 7930.41C5576.69 7924.18 5529.26 7856.59 5489.71 7816.22C5459.15 7785.02 5428.35 7752.76 5400.45 7718.48C5384.19 7727.33 5361.91 7725.75 5351.57 7706.14C5297.89 7604.54 5150.88 7674.95 5069.53 7699.05L4953.01 7733.52C4894.74 7750.8 4836.5 7768.14 4778.37 7785.8C4618.58 7834.31 4459.58 7888.61 4298.35 7933.17C4312.77 7949.01 4310.78 7977.22 4283.38 7987.95C4157.17 8037.45 4018.7 8063.06 3887.59 8097.04C3804.8 8118.5 3722.07 8140.1 3639.36 8161.82C3625.18 8184.79 3614.98 8210.77 3610.68 8241.02C3594.89 8352.24 3625.34 8480.57 3654.99 8588.14L3659.46 8604.19C3683.83 8690.67 3719.69 8796.7 3794.32 8851.31C3812.55 8864.63 3835.74 8873.89 3859.13 8875.99C4005.22 8800.8 4151.31 8725.63 4297.48 8650.59C4324.56 8636.68 4349.59 8655.51 4355.66 8677.89C4407.2 8669.43 4458.62 8656.1 4505.46 8640.21C4584.16 8613.49 4645.61 8562.53 4719.38 8527.28C4862.14 8459.1 5007.92 8542.85 5135.73 8606.53L5165.19 8621C5222.51 8648.8 5341.75 8702.21 5369.25 8626.17C5395.85 8552.6 5311.75 8473.98 5257.44 8440.87C5192.7 8401.39 5117.31 8380.27 5044.14 8362.67C5002.36 8352.61 4960.07 8344.4 4917.52 8338.43C4869.27 8331.64 4819.42 8332.65 4772.96 8317C4749.87 8309.25 4746.32 8272.57 4772.96 8266.52C4844.48 8250.25 4929.85 8267.99 5004.49 8286.14L5043.51 8295.75C5118.7 8314.2 5194.63 8337.36 5263.12 8374.16C5312.93 8400.93 5365.5 8441.6 5399.84 8491.37C5429.67 8463.67 5466.78 8464.61 5505.44 8474.88L5526.43 8480.72C5561.08 8490.32 5589.17 8496.92 5622.89 8490.27C5627.4 8465.74 5631.96 8441.21 5636.86 8416.67C5684.91 8175.48 5737.61 7935.22 5795.75 7696.25C5896.04 7284.04 6012.1 6876.36 6142.94 6472.85L6156.07 6432.51C6186.25 6340.23 6210.54 6239.67 6259.19 6154.88C6305.2 6074.7 6378.91 6028.53 6466.51 6004.07C6565.91 5976.32 6670.35 5961.79 6771.74 5943.05C6794.36 5938.88 6817.04 5934.9 6839.68 5930.8C6820.55 5896.26 6806.26 5857.06 6793.4 5826.97L6791.15 5821.77C6763.51 5758.77 6738.68 5694.64 6714.72 5630.18L6696.79 5581.71C6653.5 5465 6608.83 5350.2 6547.96 5241.04C6483.91 5126.17 6398.93 5032.25 6293 4954.52C6077.01 4796.01 5816.68 4715.16 5607.2 4545.77C5598.61 4538.83 5609.62 4526.97 5618.33 4531.36C5759.79 4602.42 5912.48 4650.73 6059.61 4708.59L6088.63 4720.04C6204.91 4766.12 6323.02 4816.3 6423.67 4890.92C6535.88 4974.13 6624.26 5077.47 6690.69 5200.36C6756.15 5321.48 6798.04 5457.07 6844.22 5586.45L6856.57 5620.93C6875.21 5672.62 6894.45 5724.15 6916.51 5774.47C6934 5814.4 6966.68 5860 6981.52 5905.62C7022.14 5898.58 7062.75 5891.51 7103.42 5884.72C7984.15 5737.7 8874.74 5651.32 9767.3 5626.05C9802.22 5625.06 9820.28 5658.37 9815.14 5688.83C9729.47 6195.23 9653.36 6703.36 9569.84 7210.16C9533.37 7431.35 9496.2 7652.36 9458.15 7873.27C9438.86 7985.2 9416.58 8096.68 9398.32 8208.77C9383.58 8299.29 9372.88 8390.52 9347.57 8478.93C9324.88 8558.21 9290.04 8634.66 9232.83 8695.15C9171.17 8760.35 9085.11 8791.92 8998.46 8806.83C8778.54 8844.67 8552.95 8860.12 8331.24 8885.33L7150.8 9019.6C7168.04 9176.37 7169.34 9330.7 7161.42 9489.29L7156.9 9575.86C7153.22 9645.5 7148.81 9715.24 7138.81 9784.16C7126.26 9870.62 7086.71 9943.81 7028.45 10008.4C6974.95 10067.7 6909.94 10118.3 6846.73 10166.8C6781.1 10217.1 6713.29 10265.7 6636.13 10296.8L6626.12 10300.8C6558.42 10327.2 6431.45 10368.2 6338.92 10353.2C6351.02 10413.8 6374.42 10478.9 6353.67 10538.9C6344.04 10566.7 6307.64 10580.6 6285.33 10556.9C6241.14 10510 6237.69 10448 6227.22 10386.7C6216.34 10323 6206.95 10259 6198.61 10194.9C6182.48 10071 6169.92 9945.86 6166.09 9820.85C6162.15 9692.47 6163.67 9563.91 6170.59 9435.67C6174.15 9369.81 6178.56 9303.99 6186.91 9238.55C6190.49 9210.66 6194.12 9182.72 6198.29 9154.88C6199.82 9144.74 6201.5 9134.63 6203.31 9124.55L6097.36 9136.5C5934.9 9154.64 5772.36 9171.01 5608.75 9173.56C5589.38 9173.85 5574.48 9165.03 5564.74 9152.19C5554.36 9169.08 5536.29 9181.18 5510.4 9181.07C5281.91 9180.23 5069.15 9105.53 4861.34 9017.5C4756.59 8973.11 4653.48 8925.06 4548.57 8881.05C4450.65 8839.98 4345.97 8810.66 4250.41 8764.4L3999.34 8896.08C3997.49 8902.55 3995.12 8908.68 3992.62 8913.8C3976.28 8947.17 3944.04 8965.27 3911.12 8978.89C3879.51 8992 3846.79 8996.08 3814.91 8992.76C3624.48 9092.54 3434.02 9192.22 3243.42 9291.66L3052.78 9391.01C2672.95 9588.74 2294.62 9789.71 1912.4 9982.8L1884.27 9996.95C1752.25 10063.1 1610.49 10130.2 1463.98 10180.3C1461.37 10217.4 1463.02 10253.4 1466.12 10292.7L1466.86 10301.2C1471.24 10347.6 1480.61 10405.7 1443.39 10438.7C1424.04 10455.9 1389.46 10456 1376.3 10430.1C1352.42 10383.1 1373.86 10309.1 1381.42 10258.1C1384.12 10240 1387.39 10221.3 1392.22 10203.2C1224.27 10253.2 1051.22 10277.5 880.297 10249.4C713.885 10222.1 584.999 10117.3 481.094 9989.08C371.436 9853.79 293.513 9696.12 251.704 9527.1C204.122 9334.77 201.016 9136.15 202.133 8939.16C203.319 8729.37 211.081 8518.55 236.601 8310.19C208.64 8303.61 177.632 8297.93 149.377 8299.88C135.382 8322.27 108.235 8331.7 83.7041 8328.79C30.3601 8387.61 165.665 8447.73 208.905 8462.78C223.919 8468.01 222.312 8492.39 204.994 8491.65L194.086 8491.13C127.273 8487.58 58.2459 8476.18 18.962 8414.1C-12.5172 8364.34 -3.05965 8305.39 34.4664 8264.82C59.2519 8030.51 118.505 7802.34 173.653 7573.78C227.771 7349.44 287.956 7126.55 351.748 6904.77L380.345 6805.51C480.783 6457.77 585.766 6107.23 724.313 5773.3C793.494 5606.57 873.191 5442.9 981.223 5297.51C1081.92 5161.99 1200.81 5046.03 1337.47 4946.98C1592.24 4762.31 1891.18 4650.74 2184.89 4544.43L2198.04 4539.68C2350.25 4484.63 2502.09 4428.92 2652.56 4369.28C2785.64 4316.54 2913.15 4249.66 3045.59 4196.12C3041.3 4188.31 3037.13 4180.41 3033.15 4172.42L3030.69 4174.48C3030.27 4174.81 3029.84 4175.14 3029.39 4175.45C3016.07 4184.67 2996.47 4180.14 2985.49 4169.77C2954.49 4140.53 2964.99 4108.08 2985.68 4077.76L2988.37 4073.9C3013.67 4038.46 3036.25 4000.98 3059.61 3964.26L3074.23 3941.29C3113.42 3879.94 3154.63 3818.18 3206.89 3767.47C3231.1 3743.97 3257.6 3726.39 3285.68 3713.29C3283.28 3708.21 3304.33 3697.83 3310.3 3703.06C3399.26 3670.51 3501.6 3677.32 3598.59 3686.3M7093.67 9026.1L6969.99 9040.16C6833.92 9055.63 6697.8 9070.6 6561.66 9085.42L6265.95 9117.56C6265.2 9134.41 6263.15 9150.89 6262.78 9163.61C6260.85 9229.24 6259.41 9294.89 6258.05 9360.53C6255.32 9492.11 6258.32 9623.81 6266.98 9755.14C6275.38 9882.38 6286.44 10009.6 6303.61 10136L6307.14 10161.3L6309.18 10174.6C6323.2 10175.9 6336.98 10182.6 6348.44 10196.3C6373.44 10226.1 6464.02 10197.1 6499.38 10184.5C6557.55 10163.8 6612.33 10128.9 6662.86 10093.8C6712.22 10059.6 6756.67 10019.7 6799.38 9977.62L6834.33 9943.07C6869.08 9908.53 6903.88 9871.75 6925.18 9828.3C6954.06 9769.39 6957.79 9697.07 6966.26 9632.92C6976.69 9553.99 6989.1 9475.08 7002.23 9396.55M3503.22 8197.7L3490.39 8201.06C3024.37 8324.87 2559.04 8452.33 2091.59 8570.67C1860.26 8629.25 1627.83 8683.56 1396.21 8741.01L1358.71 8750.38C1176 8796.56 991.083 8852.13 851.16 8984.63C845.995 8989.52 838.498 8982.02 843.359 8976.83C994.159 8816.34 1208.63 8748.38 1414.57 8689.49C1452.63 8678.61 1490.74 8667.97 1528.81 8657.15C1248.75 8557.32 964.277 8470.48 673.233 8408.54C598.288 8392.59 522.472 8380.88 447.587 8364.87C395.36 8353.7 344.358 8337.55 292.683 8324.15L252.037 8313.93L251.498 8442.36C250.821 8624.27 251.144 8806.04 260.427 8987.93L262.183 9021.63C273.013 9224.03 289.918 9430.65 361.764 9621.51C420.145 9776.6 513.201 9922.71 634.894 10035.7C696.47 10092.8 762.671 10137.3 844.506 10159.3C920.489 10179.7 1000.1 10182.1 1078.21 10176.6C1452.87 10150.5 1786.38 9947.02 2111.84 9778.54C2644.16 9502.97 3176.56 9227.54 3709.43 8953.04C3695.03 8943.19 3681.46 8931.84 3669.12 8919.09C3597.67 8845.31 3559.97 8744.3 3535.22 8646.49C3508.86 8542.36 3493.11 8430.77 3491.27 8323.27M4181.24 9059.41C4185.95 9056.88 4191.4 9060.04 4191.62 9065.36C4193.27 9106.05 4170.77 9146.19 4153.97 9182.84L4152.19 9186.76C4131.78 9232.17 4109.41 9276.96 4086.3 9321.05C4040.09 9409.16 3992.06 9496.31 3941.95 9582.24C3841.16 9755.09 3729.16 9920.67 3596.78 10071.2C3566.88 10105.2 3517.7 10061.6 3536.89 10025C3629.4 9848.51 3737.26 9681.88 3848.28 9516.7C3903.86 9434.01 3959.39 9351.22 4015.53 9268.9C4038.94 9234.54 4062.65 9200.31 4087 9166.6L4101.7 9146.45M9708.28 5727.12C9240.62 5741.24 8773.53 5771.73 8308.11 5819.52C7875.25 5863.95 7443.99 5923.11 7015.16 5996.86C6925.59 6012.26 6836.14 6028.3 6746.79 6044.96L6693.2 6055.03C6603.84 6071.96 6494.68 6078.95 6415.11 6126.68C6331.23 6176.99 6308.56 6282.16 6280.65 6368.88C6247.83 6470.86 6215.86 6573.13 6184.74 6675.65C6061.17 7082.73 5948.31 7493.32 5847.62 7906.62C5797.64 8111.78 5753.28 8318.08 5706.56 8523.98C5665.04 8706.92 5619.23 8887.79 5571.37 9068.9C5577.28 9064.32 5584.51 9060.83 5593.24 9058.97C5830.88 9008.42 6073.46 8986.44 6314.65 8958.52L6337.99 8955.79C6587.51 8926.46 6837.01 8897.34 7086.67 8869.27L8739.61 8683.42C8837.1 8672.47 8941.53 8670.98 9036.4 8644.83C9197.69 8600.34 9235.49 8420.05 9262.55 8276.46L9263.38 8272.12C9344.96 7838.3 9409.92 7400.72 9486.01 6965.8M5609.84 8564.6C5545.68 8560.37 5457.83 8501.61 5409.15 8505.82C5434.71 8548.71 5446.24 8597.61 5431.51 8649.84C5390.52 8795.17 5205.12 8719.97 5115.82 8675.57C5042.6 8639.16 4971.9 8594.58 4890.84 8577.53C4799.01 8558.23 4736.8 8594.74 4659.22 8636.83C4595.5 8671.38 4526.09 8696.2 4454.73 8709.05C4416.78 8715.89 4380.74 8716.62 4344.76 8713.94C4342.6 8715.71 4340.15 8717.34 4337.37 8718.8L4318.34 8728.79C4404.39 8732.73 4492.06 8759.28 4572.14 8783.6C4655.13 8808.77 4736.6 8839.13 4817.64 8870.18L4897.37 8900.81C5094.02 8976.1 5297.57 9047.6 5510.4 9046.97C5525.7 9046.94 5538.23 9051.17 5548.1 9058.08M5250.79 8109.23C5314.2 8101.47 5372.71 8109.78 5423.37 8151.05C5484.47 8200.81 5525.51 8283.32 5613.35 8288.75C5638.95 8290.33 5644.91 8326.32 5619.46 8333.85C5554.08 8353.19 5501.14 8317.84 5456.6 8271.92L5426.64 8240.64C5382.63 8195.06 5342.04 8159.83 5267.34 8162.55C5187.34 8165.47 5107.22 8183.96 5027.74 8193.36C4937.72 8203.99 4847.72 8213.07 4757.4 8220.9C4753.2 8221.26 4752.49 8214.66 4756.42 8213.69L4857.58 8188.52M5189.6 7850.08L5200.05 7849.03C5292.12 7840.1 5376.31 7839.75 5458.53 7889.26L5474.31 7898.81C5548.43 7943.85 5629.12 7996.93 5675.47 8069.86C5683.06 8081.8 5670.53 8095.85 5657.84 8092.81C5568.74 8071.42 5503.6 8006.07 5428.68 7957.16C5344.59 7902.27 5257.74 7911.31 5161.86 7919.85C5069.03 7928.11 4976.24 7939.45 4884.32 7954.92C4797.95 7969.44 4711.31 7992.37 4624.06 7999.68L4624.08 7999.5C4614.11 7999.48 4608.43 7984.53 4618.59 7979.44C4707.13 7935.25 4809.67 7914.33 4905.98 7894.14M2037.15 5347.18C2037.04 5339.9 2047.27 5337.18 2050.85 5343.47C2110.76 5448.84 2142.07 5578 2173.98 5694.08C2207.4 5815.69 2234.38 5938.52 2258.62 6062.25C2307.7 6312.82 2333.86 6561.94 2335.63 6817.31C2335.88 6853.78 2276.48 6863.47 2270.66 6826.11C2232.07 6577.71 2195.11 6329.05 2156.23 6080.7C2136.67 5955.8 2113.9 5831.38 2092.11 5706.85M2630.16 5530.7C2625.75 5516.17 2646.9 5511.31 2652.31 5524.61C2772.53 5819.63 2813.23 6153.97 2736.05 6465.23C2724.24 6512.84 2654.49 6492.21 2663.4 6445.21M4180.77 5268.55C4180.16 5257.68 4194.28 5255.96 4199.61 5263.45C4256.57 5343.7 4280.19 5451.15 4380.13 5492.62C4430.03 5513.32 4486.17 5509.72 4530.26 5544.69C4559.72 5568.08 4582.32 5605.01 4560.2 5640.42C4553.07 5651.87 4533.09 5657.6 4523.41 5645.17C4509.28 5627.05 4501.8 5605.35 4482.61 5591.77C4455.52 5572.61 4419 5571.42 4387.96 5562.42C4347.8 5550.79 4312.39 5530.42 4283.4 5500.14M5132.37 3930.22C5138.24 3927.23 5143.88 3929.14 5147.63 3934.21C5153 3941.45 5152.34 3948.48 5145.77 3953.43C5154.54 3971.36 5164.91 4016.26 5166.39 4022.79C5172.38 4049.29 5178.77 4075.63 5185.44 4101.94C5198.91 4155.03 5210.7 4208.52 5224.18 4261.61C5238.46 4317.9 5255.49 4373.58 5274.43 4428.46C5275.66 4432.03 5277 4435.65 5278.41 4439.33L5280.57 4444.89L5281.1 4444.05C5284.95 4437.96 5292.96 4442.22 5292.02 4448.64C5291.14 4454.5 5289.95 4460.34 5288.95 4466.2L5290.94 4471.44C5303.33 4504.79 5311.81 4539.9 5289.08 4569.33C5280.57 4580.33 5271.21 4586.85 5259.55 4588.79C5240.85 4650.42 5217.39 4710.92 5192.27 4769L5184.91 4785.96C5147.95 4870.73 5108.55 4954.37 5049.72 5026.53C4985.49 5105.31 4897.13 5159.1 4841.19 5245.43C4815.15 5285.58 4797.04 5327.81 4782.35 5373.16L4776.82 5390.37C4766.38 5422.45 4754.35 5453.54 4724.25 5472.35C4714.64 5478.34 4700.26 5476.43 4692.52 5468.26C4630.8 5402.99 4695.4 5281.11 4732.61 5217.91C4784.35 5130.04 4859.21 5073.83 4934.17 5007.53C5014.98 4936.07 5066.52 4840.47 5116.37 4746.3C5146.92 4688.61 5176.39 4629.67 5207.43 4571.72C5175 4543.06 5164.62 4486.14 5153.63 4446.57L5152.63 4443.03C5134.48 4379.67 5120.04 4314.67 5110.94 4249.37C5102.16 4186.6 5098.5 4124.73 5100.82 4061.6L5101.49 4045.52M5252.95 4229C5245.78 4219.17 5257.64 4208.05 5267.47 4210.1C5327.24 4222.45 5385.66 4258.62 5439.3 4287.87L5445.03 4290.98C5487.85 4314.07 5530.93 4342.34 5553.42 4387.2C5577.87 4435.93 5575.85 4492.08 5572.52 4545.06L5572.21 4550.01C5568.12 4613.54 5567.47 4679.54 5554.02 4741.91C5547.13 4773.84 5518.21 4782.83 5493.48 4775.29C5464.07 4868.18 5381.42 4936.6 5321.05 5009.9C5244.08 5103.34 5258.56 5229.49 5266.61 5342.04C5269.87 5387.6 5213.18 5400.55 5183.98 5376.24L5116.7 5320.36C5105.49 5311.04 5094.3 5301.7 5083.15 5292.31C5073.58 5284.27 5064.11 5276.17 5054.72 5267.97L5040.68 5255.58C5034.46 5250.01 5007.01 5219.36 4998.99 5218.08C4979.54 5214.99 4933.36 5266.21 4917.55 5282.29L4915.55 5284.29C4885.79 5313.46 4858.91 5344.85 4833.87 5378.14C4829.26 5384.24 4820.26 5379.17 4823.55 5372.1C4845.99 5324.06 4872.07 5278.11 4903.05 5235.1L4909.31 5226.55C4929.92 5198.78 4957.58 5149.75 4993.96 5141.55C5038.39 5131.53 5082.75 5176.07 5115.07 5200.79L5117.11 5202.34C5132.49 5213.88 5147.69 5225.62 5162.86 5237.43C5161.27 5153.64 5171.86 5068.98 5215.12 4996.77C5245.63 4945.86 5291.34 4908.13 5330.46 4864.38C5374 4815.65 5396.73 4755.76 5436.16 4705.01C5441.23 4698.49 5448.23 4694.97 5455.81 4693.85C5457.32 4653.05 5463.33 4611.85 5467.98 4571.5L5469.32 4559.41C5474.01 4515.57 5485.11 4462.01 5463.63 4420.94C5443.35 4382.15 5396.82 4354.77 5362.36 4328.46L5334.21 4306.63M3313.28 3765.34C3295.29 3775.75 3278.47 3788.69 3263.22 3804.87C3215.18 3855.81 3180.84 3919.21 3147.42 3980.19C3129.44 4013.04 3112.08 4046.25 3093.94 4079.01C3086.06 4093.27 3077.94 4107.38 3069.74 4121.45C3065.95 4127.93 3054.68 4140.83 3049.09 4148.78C3055.29 4157.48 3061.71 4166.03 3068.25 4174.5C3070.76 4177.74 3243.06 4365.39 3303.12 4438.84C3395.08 4551.34 3477.28 4670.17 3547.57 4797.35C3616.39 4921.9 3668.78 5053.77 3732.53 5180.74C3764.45 5244.3 3800.07 5307.41 3845.5 5362.42C3847.25 5364.57 3849.11 5366.59 3850.9 5368.71C3868.24 5321.89 3912.66 5271.76 3934.48 5242.96L3936.52 5240.24C3986.01 5173.55 4038.26 5108.87 4091.65 5045.29C4140.42 4987.23 4190.42 4930.42 4241.64 4874.55L4260.91 4853.64C4296.59 4815.11 4341.91 4757.44 4394.15 4729.91C4388.55 4719.93 4382.08 4710.07 4374.63 4700.33C4325.69 4636.39 4256.5 4589.98 4188.23 4548.1L4143.96 4521.18C3977.08 4419.49 3812.79 4313.11 3667.92 4181C3591.27 4111.09 3515.68 4037.87 3451.25 3956.33L3428.46 3927.5M3591.74 3715C3513.59 3721.55 3429.2 3720 3356.98 3745.46C3421.17 3806.14 3482.2 3871.67 3544.9 3933.36C3550.48 3891.64 3561.89 3850.41 3571.55 3809.72" fill="black"/>
<path d="M7534 6948.33L7706.65 6942.75L7729 7634.94L7815.31 7632.15L7792.96 6939.96L8224.56 6926L8250 7713.65L8077.35 7719.24L8054.61 7015.13L7968.3 7017.92L7991.04 7722.03L7559.44 7736L7534 6948.33Z" fill="black"/>
<path fill-rule="evenodd" clip-rule="evenodd" d="M4337.92 67.3857C4729.61 67.3857 5199.57 257.168 5239.53 260.964L5240.61 261.022C5261.63 261.022 5343.77 323.569 5487.04 448.662L5331.86 751.148L5344.42 763.132C5404.51 820.714 5480.51 775.127 5521 816.5C5851.63 1154.31 5718.5 2356 5718.5 2895C5640.58 3357.54 5458.89 3851 4787 3851C4115.11 3851 3495.15 3515.74 3380 3390C3303.24 3306.17 3216.81 3302.94 3121.12 3306.45C3117.19 3301.49 3113.29 3296.54 3109.42 3291.61L3095.34 3289.62C2962.91 3270.45 2868.02 3244.65 2810.67 3212.22C2698.66 3148.89 2575.55 2815.93 2575.55 2742.58C2575.55 2669.97 2391.72 2141.73 2388.04 2085.83L2387.98 2084.28C2387.98 2037.55 2147.82 1822.73 2147.82 1754.51C2147.82 1686.29 2099.41 1690.43 2147.82 1450.03L2161.89 1379.41C2213.4 1123.45 2426.24 632.828 2810.67 448.662C3233.13 246.283 3942.27 67.3857 4337.92 67.3857Z" fill="#EBEBEA"/>
<path fill-rule="evenodd" clip-rule="evenodd" d="M2635.38 507.668C2846.79 283.401 4046.99 -63.4886 4654.2 10.0436L4672.41 12.4011C4720.87 18.5426 4768.63 27.8426 4815.76 40.4765C4968.1 76.0357 5125.46 129.879 5251.33 219.817C5356.42 293.392 5687.92 413.546 5590.21 606.02C5626.44 674.62 5703.98 703.935 5679.5 771.5C5676.42 794.838 5717.21 854.487 5708 876.772C5785.4 990.925 5732.5 1190.5 5753.5 1445.5C5777.65 1738.7 5785.32 2001.69 5807 2340.5C5840.69 2867 5836.64 3461.81 5173.5 3825.5C4838 4009.5 4242.5 3871.62 4203.5 3825.5C4183.39 3801.71 4093.09 3769.18 4124.64 3757.92C4134.04 3767.83 4143.69 3777.49 4153.52 3786.96C4153.08 3785.91 4152.99 3784.86 4153.17 3783.71L4143.93 3775.35C4126.51 3759.24 4103.95 3735.89 4129.65 3740.46C4130.78 3741.78 4132.02 3742.92 4133.24 3744.23C4138.68 3747.5 4142.79 3750.33 4145.99 3752.82L4147.64 3754.14L4147.13 3753.61C4132.33 3737.83 4123.45 3721.74 4145.58 3732.02L4148.51 3733.44C4158.35 3743.8 4168.35 3753.71 4178.53 3763.36C4178.37 3762.22 4178.53 3761.08 4179.16 3759.85L4169.66 3750.68C4160.4 3741.61 4161.81 3741.57 4166.34 3734.23C4146.64 3706.64 4145.93 3722.68 4148.51 3733.44C4171.52 3728 4227.28 3728.08 4242.5 3732.02C5016.5 3932.5 5729 3681 5686 2474.5V2367C5637 1920.5 5646.51 1634 5595.99 1260.5C5578.09 1221.72 5556.92 1034.08 5534.89 997.584C5519.7 970.21 5503.46 943.539 5486 917.569C5437.09 913.621 5388.81 904.672 5341.24 890.81C5324.9 886.686 5308.75 882.124 5292.61 876.772C5056.64 889.634 4825.94 903.628 4589.32 916.893L4515.41 921.494C4314.96 934.374 4107.66 955.002 3945.91 1078.91C3787.19 1191.73 3786.47 1414.18 3650.61 1538.04C3456.87 1669.45 3455.46 1787.96 3418.15 1981.63C3420.92 2127.62 3522.2 2339.74 3336.34 2401.18C3367.69 2445.86 3323.99 2424.39 3320.54 2408.72C3320.19 2408.81 3319.84 2408.9 3319.58 2408.9C3347.52 2460.81 3306.45 2428.12 3302.81 2411.44C3300.62 2410.83 3298.42 2409.25 3296.23 2407.06C3324.38 2452.54 3278.87 2420.69 3281.57 2412.41C3227.17 2328.84 3115.21 2315.86 3036.29 2338.01C3035.33 2340.99 3031.82 2341.25 3029.63 2339.68C2694.06 2412.36 2780.64 3106.66 3124.52 3039.54C3139.24 3036.54 3138.89 3043.6 3141.82 3044.28C3133.87 3023.43 3156.27 3031.92 3156.03 3036.3L3157.39 3036.23C3158.47 3036.13 3158.03 3036.02 3158.84 3036.3C3151.16 2993.66 3194.38 3055.43 3190.97 3057.97C3192.29 3057.18 3193.78 3056.74 3195.1 3056.56L3193.61 3052.52C3186.44 3033.42 3187.05 3041.35 3187.1 3030.42C3181.71 3016.9 3181.32 3022.81 3182.58 3014C3201.53 2999.33 3207.12 3043.83 3213.44 3047.09C3202.61 3032 3211.22 3019.67 3221.44 3027.86C3298.89 3190.68 3398.94 3343.67 3528.23 3464.18C3542.37 3475.32 3556.68 3486.29 3571.51 3496.64C3626.51 3544.52 3710.87 3575.31 3762.35 3617.72C3762.35 3618.42 3762.01 3619.3 3761.48 3620.18L3762.66 3621.24L3763.85 3622.37L3781.76 3630.97C3787.03 3635.44 3791.77 3640.44 3795.97 3645.97C3800.46 3651.15 3804.4 3656.85 3807.74 3662.9C3809.41 3670.27 3805.73 3673.34 3798.7 3670.19C3795.62 3669.13 3792.56 3667.9 3789.49 3666.76C3789.66 3667.03 3789.74 3667.2 3789.92 3667.38C3790.93 3668.9 3797.75 3684.7 3789.89 3682.13L3788.96 3681.77C3784.65 3680.19 3780.36 3678.43 3776.14 3676.77C3781.15 3682.99 3785.7 3689.75 3789.74 3695.45C3794.05 3699.93 3796.67 3705.19 3797.74 3711.16C3797.55 3714.49 3795.72 3715.9 3792.38 3715.46C3787.29 3713.79 3782.29 3712.03 3777.27 3710.19L3778.7 3712.91C3782.24 3719.87 3787.27 3731.55 3778.34 3727.65C3770.69 3725.28 3763.33 3722.56 3755.95 3719.58C3755.33 3720.81 3754.11 3721.25 3751.65 3720.11C3728.21 3711.77 3705.56 3701.59 3683.88 3689.57C3664.83 3675.71 3645.6 3662.11 3626.47 3648.34C3608.47 3637.55 3591.08 3625.53 3574.5 3612.02C3463.49 3540.35 3366.31 3449.32 3289.21 3347.93C3160.26 3459.54 2902.45 3352.92 2742.97 3265.55C2601.91 3187.46 2546.47 3043.09 2532.13 2887.43C2502.33 2677.86 2330.97 2606.13 2342.9 2146.31C2342.63 2146.39 2342.36 2146.39 2342.01 2146.39C2335.78 2144.55 2329.73 2142.09 2324.02 2138.94C2318.14 2136.13 2312.61 2132.79 2307.42 2128.76L2301.01 2119.9C2297.69 2118.06 2294.7 2116.12 2292.42 2114.19L2291.24 2115.72C2287.49 2120.24 2290.01 2113.44 2290.23 2112.09L2279.09 2096.96C2252.7 2060.94 2223.74 2020.53 2200.15 1988.21L2199.41 1989.52C2198.87 1990.51 2198.59 1991.23 2198.84 1991.54C2142.7 1910.93 2089.91 1813.56 2075.24 1719.3C2057.92 1646.69 2064.69 1571.87 2079.8 1504.61C2144.57 1269.08 2356.77 736.106 2635.38 507.668ZM4158.85 3764.88L4155.33 3761.75L4158.43 3765.62C4160.05 3767.62 4161.71 3769.42 4164.41 3771.26C4164.23 3770.64 4164.23 3770.03 4164.31 3769.33C4162.52 3767.96 4160.69 3766.46 4158.85 3764.88ZM4651.51 128.388C4239.74 93.0038 3834.73 183.67 3441.79 293.418L3414.68 301.205C3191.26 364.923 2955 422.26 2766.19 558.643C2502.39 760.584 2366.17 1081.84 2247.29 1378.44C2143.49 1598.82 2196.55 1847.31 2352.98 2001.19C2369.26 1848.28 2397.01 1699.84 2440.37 1552.59C2449.42 1529.59 2442.57 1522.05 2462.08 1519.05C2491.54 1915.86 2346.44 2209.04 2633.58 2679.32C2758.17 2901.22 2613.95 3063.58 2965.78 3180.35L2975.3 3183.98C3048.61 3211.63 3128.65 3233.45 3200.45 3218L3194.02 3207.54C3187.46 3196.77 3185.46 3191.54 3195 3186.94C3194.75 3186.41 3194.4 3185.88 3194.04 3185.27C3186.32 3170.71 3178.86 3155.97 3171.74 3141.05C3168.85 3142.02 3165.96 3142.72 3162.96 3143.51C3164.9 3147.11 3165.16 3150.7 3159.72 3151.93C3140.38 3158.56 3120.52 3161.22 3100.18 3159.98L3095.82 3159.65C3072.84 3158.25 3058.37 3154.06 3045.42 3150.18C3041.13 3149.47 3036.83 3148.77 3032.6 3147.9C2990.95 3138.67 2946.86 3115.19 2918.32 3091.92C2593.01 2907.25 2626.63 2278.64 3027.61 2219.21C3035.83 1823.42 3224.19 1155.68 3536.79 778.534C3819.35 431.619 4590.74 281.258 5127.42 334.277C5135.24 336.865 5143.06 339.479 5150.88 342.12C5233.68 349.472 5312.59 386.339 5395.45 403.465C5335.96 358.904 5268.47 329.223 5198.95 303.999C5060.45 219.325 4901.66 173.51 4748.26 141.197C4716.48 133.388 4684.27 129.089 4651.51 128.388ZM3009.26 2537.17C3030.82 2525.46 3028.35 2536.76 3033.31 2533.48C3188.39 2520.84 3355.61 2656.54 3442.29 2769.67C3435.45 2776.77 3416.92 2755.72 3413.68 2752.38C3413.24 2752.82 3412.71 2753.17 3412.18 2753.35L3414.6 2756.75C3449.73 2807.15 3380.08 2747.85 3373.56 2735.62C3372.42 2736.24 3371.28 2736.59 3369.96 2736.33C3375.48 2741.74 3392.35 2755.86 3395.24 2765.89L3399.71 2769.61C3441.87 2805.69 3438.37 2832.83 3390.51 2781.6C3391.64 2783.97 3392.08 2786.16 3391.29 2787.92L3392.94 2789.01C3416.47 2805.45 3435.83 2851.27 3386.64 2804.23C3391.76 2838.59 3337.89 2772.18 3336.16 2772.65C3242.95 2699.52 3105.72 2628.4 2988.8 2618.85L2984.78 2618.39C2963.32 2615.63 2953.18 2609.27 2960.71 2595.25C2934.29 2588.97 2940.48 2575.96 2952.99 2576.38C2934.35 2564.14 2951.13 2552.42 2961.94 2557C2954.51 2536.42 2984.33 2550.13 2987.05 2547.26C3002.52 2523.4 3006.69 2543.3 3009.26 2537.17ZM2684.19 1261.93C2758.68 1234.66 2978.69 1316.29 2961.09 1424.4C2950.61 1449.22 2916.08 1463.44 2891.8 1449.43L2860.12 1428.17C2804.99 1391.26 2755.27 1358.91 2696.08 1326.72C2663.86 1310.75 2649.99 1276.83 2684.19 1261.93ZM3107.97 1101.28L3079.2 1082.57C2923.97 981.025 2704.51 827.165 3093.7 986.351C3138.06 1005.36 3197 1016.61 3221.2 1058.83C3259.22 1136.64 3159.17 1141.87 3107.97 1101.28ZM3125.41 645.674C3112.96 598.428 3267.96 653.868 3313.08 668.485L3319.95 671.079C3363.84 687.425 3414.16 702.589 3440.41 740.446C3471.17 792.754 3408.91 803.589 3370.35 779.962C3291.28 728.321 3204.59 689.357 3125.41 645.674ZM3519.57 425.59C3432.32 330.367 3665.81 421.587 3700.79 446.909L3701.79 447.656C3727.89 466.019 3722.59 505.57 3698.07 517.186C3628.31 518.511 3576.98 460.395 3519.57 425.59ZM3916.58 321.262C3777.88 221.638 3960.58 269.024 4024.04 308.067C4067.29 346.188 4022.74 410.542 3916.58 321.262Z" fill="black"/>
<path fill-rule="evenodd" clip-rule="evenodd" d="M4562.04 2878.04C4614.1 2792.45 4725.07 3002.11 4736.86 3038.16C4747.3 3070.1 4754.19 3102.81 4757.69 3135.91C4798.05 3144.95 4839.97 3144.96 4881.32 3137.04C4942.78 3125.26 4980.36 3092.23 5033.77 3063.87C5070.67 3044.28 5117.17 3067.26 5136.36 3099.75C5158.93 3138 5144.55 3177.71 5114.87 3206.22C5058.57 3260.29 4947.82 3272.72 4874.33 3258.36C4832.23 3250.13 4793.65 3234.35 4759.57 3211.42C4759.35 3215.7 4759.2 3219.98 4758.86 3224.25L4758.21 3231.67C4752.56 3291.64 4736.07 3367.05 4689.46 3406.07C4613.02 3470.08 4518.68 3346.98 4592.96 3283.04L4595.26 3281.12C4641.43 3243.83 4651.5 3143.8 4649.01 3088.71C4647.38 3052.75 4640.83 3016.32 4629.47 2982.07L4627.13 2975.25C4623.71 2965.58 4586.43 2873.8 4572.95 2885.49L4572.31 2886.15C4566.76 2892.78 4557.78 2885.06 4562.04 2878.04ZM4977.69 2395.09C5047.97 2437.78 5155.04 2537.33 5079.45 2643.17C4990.46 2736.49 4862.34 2629.49 4799.2 2581.1C4740.66 2543.6 4674.88 2640.05 4729.2 2683.84C5185.42 3021.42 5370.56 2406.25 5013.24 2344.9C4973.89 2338.13 4959.28 2381.88 4977.69 2395.09ZM4227.29 2000.48C4295.97 1988.31 4366.32 2005.38 4423.16 2045.54L4427.46 2048.63C4482.22 2088.65 4543.48 2158.93 4512.06 2227.91C4499.45 2255.61 4461.68 2259.95 4437.72 2247.39C4397.83 2226.49 4390.6 2175.04 4355 2146.57C4325.81 2123.24 4286.5 2109.08 4248.9 2112.49C4160.58 2120.51 4106.25 2207.58 4078.81 2282.61C4075.3 2292.21 4061.21 2295.94 4055.7 2285.63C3991.01 2164.79 4105.51 2022.08 4227.29 2000.48ZM5327.37 1954.88C5458.93 1944.05 5612.92 2080.36 5578.28 2219.15C5561.67 2285.74 5462.83 2283.84 5445.26 2219.15C5435.59 2183.55 5436.56 2152.06 5410.92 2122.5C5389.76 2098.1 5359.69 2083.92 5327.37 2086.1C5291.75 2088.5 5258.89 2106.29 5233.92 2131.3C5211.37 2153.88 5197.89 2186.93 5174.53 2206.92C5168.78 2211.83 5161.08 2212.14 5155.4 2206.92C5115.2 2169.87 5139.33 2092.75 5164.82 2054.08C5201.3 1998.73 5260.7 1960.38 5327.37 1954.88ZM3976.76 1754.33C4061.16 1679.67 4214.52 1607.56 4328.32 1644.3C4393.75 1665.43 4422.27 1770.8 4349.23 1804.2C4264.65 1842.87 4167.13 1827.13 4081.04 1867.22C4044.88 1884.06 4010.88 1905.11 3985.71 1935.98C3965.88 1960.31 3945.7 1992.32 3917.02 2006.35C3909.48 2010.04 3899.27 2010.14 3893.23 2003.29C3830.36 1932.21 3921.87 1802.89 3976.76 1754.33ZM5182.31 1640.6C5234.47 1625.97 5292.34 1626.26 5345.32 1635.45C5398.3 1644.64 5452.08 1666.58 5495.32 1698.59L5500.34 1702.34C5547.55 1737.89 5603.89 1789.62 5600.87 1852.61C5598.35 1905.21 5542.99 1940.78 5495.19 1913.22C5456.23 1890.74 5437.89 1845.7 5404.9 1815.71C5377.68 1790.96 5345.71 1771.45 5311.59 1757.78C5273.7 1742.59 5235.74 1735.48 5195.07 1734.8C5163.75 1734.28 5132.25 1744.54 5101.52 1747.83C5104.06 1753.02 5079.77 1750.6 5065.84 1745.99C5055.53 1741.6 5055.48 1728.57 5059.05 1720.12C5076.78 1678.24 5141.28 1652.09 5182.31 1640.6Z" fill="black"/>
</svg>
