<svg viewBox="0 0 8343 9533" fill="none" xmlns="http://www.w3.org/2000/svg">
<path fill-rule="evenodd" clip-rule="evenodd" d="M8138.88 5368.26C8019.94 5379.93 7900.99 5391.59 7782.05 5403.27C7212.39 5446.78 6642.96 5537.65 6077.66 5592.19C6063.59 5569.29 6036.04 5573.06 6019.31 5588.97C5962.9 5584.03 5899.68 5540.93 5848.59 5585.77C5846.93 5585.53 5845.27 5585.26 5843.59 5585.1C5752.62 5410.53 5689.73 5224.33 5628.69 5037.89C5589.74 4923.26 5537.32 4812.29 5440.47 4735.33C5275.17 4620.62 4896.43 4388 4702.34 4397.78C4699.12 4363.04 4682.92 4327.23 4656.32 4304.09C4714.94 4204.17 4480.53 4138.97 4464 4150.56C4474.59 3816.72 4317.52 3526.81 3971.17 3460.33C3660.88 3395.69 3219.55 3384.83 3052.66 3709.01C3034.32 3706.95 2846.81 3705.97 2828.66 3708C2800.46 3672.29 2490.68 4010.74 2617.64 4128.56C1482.52 4630.57 837.088 4570.67 522.904 5981.93C480.43 6114.51 477.336 6259.58 432.485 6389.2C272.917 6761.7 143.491 7158.36 111.281 7563.68C33.4854 7583.6 24.5385 7720.73 114.649 7740.57C149.07 7748.16 177.853 7758.52 202.951 7778.16C183.331 8110.32 263.686 8869.07 314.316 8866.73C417.551 9195.2 878.035 9287.9 1204.04 9172.47C1147.84 9278.17 1204.04 9344.63 1204.04 9401.11C2377.1 9445.48 3659.72 9419.93 4832.45 9480.78C4982.47 9478.64 5140.25 9517.61 5288.21 9495.18C5378.45 9473.56 5378.6 9331.71 5287.07 9314.18L5687 9227.33C5678.07 9223.96 5851.86 9108.39 5983.21 8892.43C6105.48 8650.85 6022.26 8359.24 6077.66 8096.45C6510.35 8061.08 6950.19 8045.95 7378.14 7972.69C7436.49 8147.23 7689.08 7938.49 7769.37 7854.52C7769.27 7854.39 7769.17 7854.27 7769.07 7854.13C7807.92 7843.51 7839.08 7807.1 7840.13 7764C7867.37 7725.07 7873.09 7670.21 7846.96 7632.59C7966.73 6941.67 8149.32 6236.23 8215.32 5538.81C8238.65 5533.64 8260.62 5523.42 8279.25 5507.66L8277.74 5506.15C8309.3 5470.98 8315.44 5410.26 8262.82 5380.38C8220.38 5356.24 8184.94 5363.73 8138.88 5368.26Z" fill="white"/>
<path fill-rule="evenodd" clip-rule="evenodd" d="M3074.29 3633.72C3109.63 3544.92 3229.11 3579.44 3215.79 3672.73C3207.82 3728.61 3177.2 3787.62 3149.71 3836.6C3127.32 3876.46 3101.78 3915.37 3067.15 3945.25C3128.79 4002.74 3192.77 4058.14 3258.38 4110.73C3329.96 4168.12 3405.24 4221.02 3483.05 4269.63C3551.28 4312.27 3622.59 4350.04 3686.9 4398.69C3746.7 4443.92 3801.18 4498.32 3828.9 4569.33C3858.43 4644.94 3845.6 4723.03 3823.85 4798.6L3821.35 4807.14C3799.14 4882.01 3760.68 4972.26 3814.01 5042.79C3841.15 5078.7 3880.62 5104.13 3914.7 5132.84C3944.98 5158.35 3973.41 5186.1 3999.49 5215.9C4056.34 5280.88 4102.58 5353.98 4131.75 5435.44L4134.36 5442.84C4159.37 5514.96 4177.65 5603.3 4143.86 5674.1C4134.16 5694.39 4102.89 5687.79 4097.46 5668.03C4085.18 5623.26 4085.82 5576.38 4075.53 5530.98C4064.82 5483.76 4046.99 5438.94 4023.71 5396.54C3978.66 5314.5 3917.66 5244.43 3845.58 5185.19L3824 5167.65C3767.78 5121.52 3716.12 5072.58 3704.7 4996.23C3692.49 4914.55 3725.23 4836.73 3746.28 4759.42C3760.95 4705.54 3765.74 4653.89 3749.88 4605.2C3730.52 4636.8 3704.1 4666.8 3683.2 4693.56C3641.57 4746.86 3599.56 4799.84 3557.65 4852.92C3514.68 4907.35 3472.78 4962.64 3432.87 5019.36C3415.02 5044.73 3397.36 5070.25 3379.76 5095.8C3366.52 5115.01 3348.06 5134.19 3333.64 5153.78C3337.14 5164.26 3336.88 5176.33 3330.52 5184.91C3254.01 5288.25 3145.17 5072.62 3116.78 5018.14C3058.97 4907.19 3015.95 4789.32 2957.95 4678.4C2897.85 4563.41 2829.41 4451.49 2753.13 4346.51C2707 4283.01 2655.28 4223.37 2613.08 4157.86C2513.64 4248 2382.8 4308.42 2262.62 4363.22C2130.57 4423.41 1993.39 4472.59 1858 4524.81L1818.01 4540.34C1584.74 4631.35 1345.76 4731.35 1151.87 4893.01C924.021 5082.99 789.229 5347.77 688.88 5621.97C573.362 5937.62 477.795 6261.8 388.708 6585.77C343.119 6751.53 299.862 6918.04 259.196 7085.08C223.362 7232.24 193.658 7380.88 152.175 7526.52C236.306 7523.55 332.257 7556.11 404.085 7565.51C731.437 7608.35 1054.38 7676.64 1363.44 7794.86C1401.62 7809.47 1412.66 7847.59 1404.35 7878.48C1426.37 7872.27 1448.36 7865.97 1470.38 7859.79C1446.26 7822.85 1457.77 7756.79 1459.67 7715.84L1459.78 7713.02C1461.73 7658.45 1467.66 7603.82 1471.5 7549.35C1478.81 7445.51 1488.33 7342.44 1500.99 7239.2L1504.22 7213.38C1518.56 7101.06 1529.16 6988.08 1544.82 6875.95L1546.66 6863.12C1539.16 6834.43 1530.42 6806.09 1521.25 6777.87C1496.81 6702.72 1462.32 6631.98 1432.09 6559.18C1428.52 6550.62 1440.73 6545.69 1446.44 6550.83C1497.64 6596.87 1538.3 6655.28 1570.97 6716.38C1571.54 6713.49 1572.04 6710.6 1572.63 6707.72L1576.36 6689.38C1585.55 6644.64 1596.73 6597.57 1624.18 6561.29C1627.11 6557.44 1632.89 6556.63 1635.65 6561.29C1661.92 6605.74 1664.86 6662.02 1668.9 6712.59C1673.48 6769.81 1674.05 6827.74 1673.24 6885.11C1671.67 6997.22 1663.76 7109.65 1657.47 7221.59C1651.29 7331.58 1639.16 7440.17 1623.52 7549.09L1620.55 7569.51C1612.91 7621.35 1606.65 7673.83 1596.57 7725.32L1593.72 7739.34C1588.33 7764.87 1585.02 7800.87 1574.29 7830.77C1850.32 7753.8 2126.78 7678.59 2403.76 7604.7C2603.95 7551.28 2804.35 7498.67 3004.66 7445.72C3015.23 7426.68 3028.39 7408.89 3044.82 7392.99C3098.94 7340.59 3170.66 7317.22 3236.44 7357.55C3241.78 7360.84 3242.23 7369.22 3236.44 7372.39C3223.83 7379.28 3211.21 7386.34 3198.8 7393.7L3319.08 7361.13C3408.99 7336.77 3499.97 7306.33 3591.99 7289.35C3761.47 7205.74 3943.76 7145.21 4122.3 7085.4L4143.34 7078.28C4234.76 7047.12 4329.31 7012.24 4423.76 6994.97C4492.91 6982.33 4574.08 6997.58 4601.88 7068.4C4637.08 7091.59 4670.2 7118.85 4702.16 7145.65C4725.27 7165.02 4747.42 7185.62 4769.94 7205.67L4774.09 7209.32C4792.51 7225.29 4807.09 7235.98 4811.62 7261.41C4813.95 7274.54 4805.6 7292.29 4789.4 7290.55C4739.83 7285.25 4699.52 7227.81 4665.9 7193.5C4639.93 7166.99 4613.75 7139.57 4590.04 7110.44C4576.22 7117.96 4557.28 7116.61 4548.49 7099.95C4502.87 7013.6 4377.92 7073.44 4308.78 7093.92L4209.74 7123.22C4160.22 7137.9 4110.72 7152.64 4061.31 7167.65C3925.5 7208.88 3790.36 7255.02 3653.32 7292.89C3665.58 7306.36 3663.89 7330.33 3640.6 7339.45C3533.33 7381.52 3415.64 7403.28 3304.2 7432.16C3233.84 7450.4 3163.52 7468.76 3093.22 7487.22C3081.17 7506.74 3072.5 7528.82 3068.85 7554.53C3055.43 7649.05 3081.31 7758.11 3106.51 7849.53L3110.31 7863.17C3131.02 7936.67 3161.5 8026.78 3224.93 8073.19C3240.42 8084.51 3260.13 8092.38 3280.01 8094.17C3404.18 8030.27 3528.35 7966.38 3652.58 7902.61C3675.6 7890.79 3696.87 7906.79 3702.03 7925.81C3745.84 7918.62 3789.54 7907.29 3829.35 7893.79C3896.24 7871.08 3948.47 7827.77 4011.17 7797.81C4132.51 7739.87 4256.41 7811.04 4365.04 7865.16L4390.08 7877.46C4438.8 7901.09 4540.15 7946.48 4563.52 7881.85C4586.13 7819.33 4514.65 7752.51 4468.49 7724.37C4413.46 7690.82 4349.39 7672.87 4287.2 7657.91C4251.69 7649.36 4215.74 7642.39 4179.58 7637.31C4138.57 7631.54 4096.2 7632.4 4056.71 7619.1C4037.09 7612.51 4034.07 7581.34 4056.71 7576.2C4117.5 7562.37 4190.06 7577.45 4253.5 7592.87L4286.66 7601.04C4350.57 7616.72 4415.1 7636.4 4473.32 7667.68C4515.65 7690.43 4560.33 7724.99 4589.52 7767.29C4614.87 7743.75 4646.41 7744.55 4679.27 7753.28L4697.11 7758.24C4726.56 7766.4 4750.44 7772.01 4779.1 7766.36C4782.93 7745.51 4786.81 7724.66 4790.97 7703.81C4831.81 7498.83 4876.6 7294.64 4926.02 7091.54C5011.26 6741.22 5109.9 6394.74 5221.11 6051.81L5232.27 6017.53C5257.92 5939.1 5278.56 5853.64 5319.91 5781.58C5359.02 5713.44 5421.67 5674.2 5496.12 5653.41C5580.6 5629.83 5669.37 5617.48 5755.55 5601.55C5774.77 5598.01 5794.05 5594.63 5813.29 5591.14C5797.03 5561.79 5784.89 5528.47 5773.96 5502.9L5772.04 5498.48C5748.55 5444.94 5727.45 5390.44 5707.08 5335.65L5691.84 5294.46C5655.05 5195.27 5617.08 5097.71 5565.35 5004.94C5510.91 4907.31 5438.68 4827.49 5348.65 4761.43C5165.07 4626.72 4943.81 4558.01 4765.76 4414.05C4758.46 4408.15 4767.82 4398.07 4775.22 4401.8C4895.45 4462.19 5025.23 4503.25 5150.28 4552.42L5174.95 4562.15C5273.78 4601.32 5374.16 4643.96 5459.71 4707.38C5555.08 4778.1 5630.2 4865.92 5686.66 4970.36C5742.3 5073.3 5777.9 5188.53 5817.15 5298.49L5827.65 5327.79C5843.49 5371.72 5859.84 5415.52 5878.59 5458.28C5893.46 5492.22 5921.23 5530.97 5933.85 5569.74C5968.37 5563.76 6002.89 5557.75 6037.45 5551.98C6786.02 5427.03 7542.96 5353.62 8301.58 5332.14C8331.26 5331.3 8346.61 5359.61 8342.24 5385.5C8269.43 5815.87 8204.74 6247.72 8133.75 6678.43C8102.76 6866.41 8071.16 7054.24 8038.82 7241.99C8022.43 7337.11 8003.49 7431.86 7987.97 7527.12C7975.44 7604.05 7966.35 7681.58 7944.84 7756.72C7925.55 7824.1 7895.94 7889.07 7847.32 7940.48C7794.91 7995.89 7721.76 8022.72 7648.12 8035.39C7461.2 8067.55 7269.46 8080.68 7081.02 8102.11L6077.72 8216.22C6092.38 8349.45 6093.48 8480.61 6086.75 8615.39L6082.91 8688.97C6079.78 8748.15 6076.03 8807.42 6067.53 8865.99C6056.87 8939.47 6023.25 9001.68 5973.73 9056.56C5928.26 9106.96 5873.01 9149.96 5819.28 9191.17C5763.5 9233.95 5705.87 9275.25 5640.29 9301.71L5631.78 9305.08C5574.24 9327.54 5466.32 9362.32 5387.68 9349.61C5397.96 9401.1 5417.85 9456.46 5400.21 9507.41C5392.03 9531.07 5361.09 9542.87 5342.13 9522.74C5304.57 9482.84 5301.64 9430.14 5292.74 9378.1C5283.49 9323.93 5275.51 9269.58 5268.42 9215.09C5254.71 9109.74 5244.04 9003.42 5240.78 8897.18C5237.43 8788.07 5238.73 8678.81 5244.61 8569.82C5247.63 8513.85 5251.38 8457.91 5258.48 8402.3C5261.52 8378.59 5264.61 8354.85 5268.15 8331.19C5269.45 8322.57 5270.88 8313.98 5272.42 8305.41L5182.37 8315.57C5044.29 8330.98 4906.14 8344.9 4767.08 8347.06C4750.62 8347.31 4737.95 8339.81 4729.67 8328.9C4720.85 8343.26 4705.49 8353.54 4683.49 8353.45C4489.29 8352.73 4308.45 8289.25 4131.83 8214.43C4042.8 8176.71 3955.16 8135.87 3865.99 8098.47C3782.77 8063.56 3693.8 8038.65 3612.58 7999.33L3399.18 8111.24C3397.61 8116.74 3395.6 8121.95 3393.47 8126.3C3379.58 8154.66 3352.18 8170.04 3324.2 8181.62C3297.34 8192.76 3269.53 8196.23 3242.43 8193.41C3080.58 8278.21 2918.7 8362.92 2756.7 8447.43L2594.67 8531.87C2271.84 8699.91 1950.28 8870.71 1625.42 9034.81L1601.51 9046.84C1489.3 9103.09 1368.81 9160.11 1244.29 9202.66C1242.07 9234.17 1243.47 9264.82 1246.11 9298.17L1246.74 9305.43C1250.46 9344.85 1258.42 9394.23 1226.79 9422.29C1210.34 9436.88 1180.95 9436.94 1169.77 9414.94C1149.47 9375.04 1167.69 9312.14 1174.12 9268.8C1176.41 9253.38 1179.19 9237.53 1183.3 9222.16C1040.55 9264.65 893.468 9285.25 748.196 9261.39C606.757 9238.18 497.212 9149.1 408.899 9040.15C315.697 8925.17 249.467 8791.17 213.932 8647.53C173.491 8484.07 170.851 8315.27 171.8 8147.85C172.808 7969.56 179.405 7790.39 201.096 7613.31C177.331 7607.72 150.976 7602.89 126.961 7604.55C115.066 7623.58 91.9925 7631.59 71.1431 7629.12C25.8041 7679.11 140.805 7730.2 177.556 7742.99C190.317 7747.44 188.951 7768.16 174.232 7767.53L164.961 7767.09C108.174 7764.07 49.5053 7754.38 16.1165 7701.62C-10.6388 7659.33 -2.60052 7609.23 29.2942 7574.75C50.3603 7375.62 100.722 7181.71 147.594 6987.46C193.591 6796.8 244.744 6607.37 298.963 6418.89L323.269 6334.53C408.635 6039 497.864 5741.08 615.62 5457.29C674.419 5315.59 742.157 5176.49 833.977 5052.93C919.565 4937.75 1020.61 4839.2 1136.76 4755.02C1353.3 4598.08 1607.38 4503.26 1857.02 4412.91L1868.19 4408.87C1997.56 4362.09 2126.62 4314.74 2254.51 4264.05C2367.62 4219.23 2475.99 4162.39 2588.56 4116.89C2584.91 4110.25 2581.37 4103.54 2577.98 4096.75L2575.89 4098.5C2575.54 4098.78 2575.17 4099.06 2574.79 4099.32C2563.47 4107.16 2546.81 4103.31 2537.48 4094.5C2511.13 4069.65 2520.05 4042.07 2537.64 4016.3L2539.92 4013.02C2561.43 3982.9 2580.62 3951.05 2600.47 3919.84L2612.9 3900.32C2646.21 3848.18 2681.23 3795.69 2725.65 3752.59C2746.23 3732.62 2768.75 3717.68 2792.62 3706.55C2790.58 3702.23 2808.47 3693.41 2813.54 3697.85C2889.15 3670.19 2976.14 3675.98 3058.57 3683.61M6029.17 8221.74L5924.05 8233.69C5808.4 8246.84 5692.7 8259.56 5576.99 8272.16L5325.66 8299.47C5325.02 8313.79 5323.28 8327.8 5322.96 8338.61C5321.32 8394.38 5320.1 8450.18 5318.94 8505.96C5316.62 8617.79 5319.17 8729.72 5326.53 8841.33C5333.67 8949.47 5343.07 9057.63 5357.67 9165.04L5360.67 9186.51L5362.4 9197.8C5374.32 9198.95 5386.03 9204.62 5395.77 9216.25C5417.02 9241.62 5494 9216.96 5524.06 9206.26C5573.5 9188.68 5620.06 9158.96 5663.01 9129.17C5704.96 9100.07 5742.74 9066.15 5779.04 9030.41L5808.74 9001.05C5838.28 8971.69 5867.86 8940.43 5885.96 8903.51C5910.51 8853.44 5913.68 8791.98 5920.88 8737.46C5929.74 8670.38 5940.29 8603.32 5951.45 8536.58M2977.51 7517.71L2966.61 7520.57C2570.52 7625.79 2175.02 7734.11 1777.72 7834.69C1581.1 7884.47 1383.55 7930.63 1186.69 7979.45L1154.82 7987.42C999.521 8026.66 842.357 8073.89 723.432 8186.5C719.042 8190.65 712.67 8184.28 716.801 8179.87C844.972 8043.47 1027.26 7985.72 1202.29 7935.67C1234.64 7926.42 1267.03 7917.38 1299.39 7908.18C1061.36 7823.34 819.574 7749.54 572.205 7696.9C508.507 7683.34 444.068 7673.39 380.42 7659.78C336.031 7650.29 292.682 7636.56 248.762 7625.18L214.215 7616.49L213.757 7725.64C213.182 7880.24 213.456 8034.72 221.346 8189.3L222.839 8217.94C232.044 8389.96 246.412 8565.56 307.476 8727.76C357.096 8859.57 436.188 8983.74 539.619 9079.75C591.955 9128.33 648.222 9166.14 717.776 9184.81C782.357 9202.14 850.02 9204.17 916.408 9199.55C1234.85 9177.34 1518.31 9004.4 1794.93 8861.22C2247.37 8627.02 2699.87 8392.94 3152.78 8159.65C3140.54 8151.28 3129.01 8141.63 3118.52 8130.8C3057.79 8068.09 3025.75 7982.25 3004.71 7899.12C2982.31 7810.63 2968.92 7715.79 2967.36 7624.43M3553.79 8250.05C3557.79 8247.9 3562.42 8250.59 3562.61 8255.11C3564.01 8289.69 3544.89 8323.8 3530.61 8354.95L3529.1 8358.28C3511.75 8396.87 3492.74 8434.94 3473.09 8472.41C3433.82 8547.29 3393 8621.36 3350.41 8694.39C3264.74 8841.29 3169.55 8982.01 3057.03 9109.92C3031.62 9138.82 2989.82 9101.77 3006.13 9070.66C3084.76 8920.68 3176.43 8779.07 3270.79 8638.69C3318.03 8568.41 3365.23 8498.05 3412.94 8428.09C3432.84 8398.89 3452.99 8369.8 3473.69 8341.15L3486.18 8324.02M8251.42 5418.04C7853.94 5430.04 7456.94 5455.95 7061.36 5496.57C6693.46 5534.33 6326.92 5584.61 5962.44 5647.28C5886.31 5660.37 5810.28 5674 5734.34 5688.16L5688.79 5696.72C5612.84 5711.11 5520.06 5717.05 5452.43 5757.61C5381.14 5800.37 5361.87 5889.75 5338.15 5963.45C5310.26 6050.12 5283.08 6137.04 5256.63 6224.17C5151.61 6570.13 5055.68 6919.08 4970.1 7270.33C4927.62 7444.69 4889.92 7620.02 4850.21 7795.01C4814.92 7950.48 4775.99 8104.2 4735.31 8258.12C4740.33 8254.22 4746.48 8251.26 4753.9 8249.68C4955.88 8206.72 5162.05 8188.04 5367.05 8164.31L5386.89 8161.99C5598.96 8137.06 5811.02 8112.31 6023.22 8088.46L7428.11 7930.51C7510.97 7921.2 7599.73 7919.94 7680.36 7897.71C7817.45 7859.9 7849.58 7706.68 7872.58 7584.65L7873.28 7580.96C7942.62 7212.27 7997.83 6840.38 8062.5 6470.76M4768.01 7829.53C4713.47 7825.93 4638.81 7775.99 4597.43 7779.57C4619.16 7816.02 4628.96 7857.58 4616.44 7901.97C4581.6 8025.48 4424.02 7961.57 4348.12 7923.84C4285.89 7892.89 4225.8 7855.01 4156.9 7840.52C4078.85 7824.11 4025.98 7855.14 3960.04 7890.91C3905.88 7920.28 3846.89 7941.37 3786.24 7952.29C3753.98 7958.1 3723.35 7958.72 3692.77 7956.45C3690.93 7957.95 3688.85 7959.34 3686.49 7960.58L3670.31 7969.07C3743.45 7972.42 3817.96 7994.98 3886.03 8015.65C3956.56 8037.04 4025.81 8062.84 4094.69 8089.23L4162.45 8115.26C4329.59 8179.25 4502.6 8240.01 4683.49 8239.48C4696.49 8239.45 4707.14 8243.05 4715.53 8248.92M4462.84 7442.52C4516.73 7435.93 4566.46 7442.99 4609.52 7478.06C4661.45 7520.35 4696.33 7590.48 4770.99 7595.09C4792.75 7596.43 4797.81 7627.02 4776.18 7633.42C4720.61 7649.86 4675.62 7619.81 4637.76 7580.79L4612.3 7554.2C4574.89 7515.47 4540.39 7485.53 4476.9 7487.84C4408.91 7490.32 4340.81 7506.03 4273.26 7514.02C4196.75 7523.06 4120.25 7530.77 4043.49 7537.43C4039.92 7537.73 4039.31 7532.12 4042.65 7531.3L4128.63 7509.91M4410.83 7222.28L4419.71 7221.39C4497.96 7213.8 4569.52 7213.5 4639.4 7255.58L4652.81 7263.69C4715.81 7301.97 4784.39 7347.08 4823.79 7409.06C4830.24 7419.21 4819.59 7431.15 4808.8 7428.57C4733.07 7410.39 4677.71 7354.85 4614.03 7313.28C4542.56 7266.63 4468.74 7274.32 4387.25 7281.57C4308.35 7288.59 4229.49 7298.23 4151.36 7311.38C4077.95 7323.72 4004.31 7343.21 3930.16 7349.42L3930.17 7349.27C3921.7 7349.25 3916.87 7336.54 3925.51 7332.22C4000.76 7294.66 4087.91 7276.88 4169.77 7259.72M1731.45 5095.14C1731.35 5088.95 1740.05 5086.64 1743.09 5091.99C1794.01 5181.54 1820.62 5291.31 1847.74 5389.96C1876.15 5493.31 1899.08 5597.7 1919.68 5702.86C1961.4 5915.81 1983.63 6127.53 1985.14 6344.56C1985.35 6375.55 1934.86 6383.79 1929.92 6352.04C1897.12 6140.93 1865.7 5929.6 1832.66 5718.54C1816.03 5612.39 1796.68 5506.65 1778.16 5400.81M2235.47 5251.11C2231.72 5238.76 2249.7 5234.63 2254.29 5245.93C2356.47 5496.66 2391.07 5780.81 2325.47 6045.34C2315.43 6085.8 2256.15 6068.27 2263.72 6028.32M3553.39 5028.32C3552.87 5019.08 3564.87 5017.62 3569.4 5023.98C3617.81 5092.18 3637.89 5183.5 3722.83 5218.75C3765.24 5236.34 3812.96 5233.28 3850.43 5263C3875.47 5282.88 3894.68 5314.26 3875.88 5344.36C3869.82 5354.09 3852.84 5358.96 3844.61 5348.39C3832.6 5332.99 3826.24 5314.55 3809.93 5303.01C3786.91 5286.73 3755.87 5285.72 3729.49 5278.07C3695.35 5268.18 3665.26 5250.87 3640.62 5225.14M4362.19 3890.91C4367.18 3888.37 4371.97 3889.99 4375.16 3894.3C4379.72 3900.45 4379.16 3906.43 4373.58 3910.64C4381.03 3925.87 4389.84 3964.03 4391.1 3969.58C4396.19 3992.1 4401.62 4014.49 4407.29 4036.85C4418.74 4081.97 4428.76 4127.43 4440.22 4172.55C4452.36 4220.39 4466.83 4267.71 4482.93 4314.35C4483.97 4317.38 4485.11 4320.46 4486.31 4323.59L4488.15 4328.31L4488.6 4327.6C4491.87 4322.42 4498.68 4326.04 4497.88 4331.5C4497.13 4336.48 4496.12 4341.44 4495.27 4346.42L4496.96 4350.88C4507.49 4379.22 4514.7 4409.06 4495.38 4434.07C4488.15 4443.42 4480.19 4448.96 4470.28 4450.61C4454.39 4502.99 4434.45 4554.4 4413.1 4603.76L4406.84 4618.18C4375.43 4690.22 4341.94 4761.3 4291.94 4822.63C4237.35 4889.58 4162.25 4935.3 4114.7 5008.67C4092.57 5042.79 4077.18 5078.68 4064.69 5117.22L4059.99 5131.85C4051.12 5159.11 4040.89 5185.53 4015.31 5201.52C4007.14 5206.61 3994.92 5204.99 3988.34 5198.04C3935.88 5142.57 3990.79 5038.99 4022.42 4985.28C4066.39 4910.6 4130.02 4862.83 4193.73 4806.48C4262.41 4745.75 4306.22 4664.5 4348.59 4584.47C4374.55 4535.44 4399.6 4485.35 4425.98 4436.1C4398.42 4411.74 4389.6 4363.37 4380.26 4329.74L4379.41 4326.73C4363.98 4272.88 4351.71 4217.64 4343.97 4162.15C4336.51 4108.8 4333.4 4056.22 4335.37 4002.57L4335.94 3988.9M4464.67 4144.83C4458.58 4136.48 4468.66 4127.03 4477.01 4128.77C4527.81 4139.27 4577.47 4170.01 4623.06 4194.87L4627.93 4197.51C4664.32 4217.13 4700.94 4241.16 4720.05 4279.28C4740.83 4320.7 4739.12 4368.42 4736.29 4413.44L4736.02 4417.65C4732.55 4471.64 4731.99 4527.73 4720.56 4580.74C4714.71 4607.88 4690.13 4615.52 4669.11 4609.11C4644.11 4688.05 4573.86 4746.2 4522.55 4808.5C4457.13 4887.91 4469.44 4995.12 4476.28 5090.77C4479.05 5129.49 4430.87 5140.5 4406.05 5119.84L4348.87 5072.35C4339.34 5064.43 4329.83 5056.49 4320.35 5048.51C4312.22 5041.68 4304.17 5034.79 4296.19 5027.82L4284.26 5017.29C4278.97 5012.56 4255.64 4986.51 4248.82 4985.42C4232.29 4982.8 4193.04 5026.33 4179.6 5039.99L4177.9 5041.69C4152.61 5066.48 4129.76 5093.16 4108.48 5121.45C4104.56 5126.64 4096.91 5122.33 4099.71 5116.32C4118.78 5075.49 4140.95 5036.44 4167.28 4999.89L4172.6 4992.62C4190.12 4969.02 4213.63 4927.35 4244.55 4920.38C4282.31 4911.87 4320.01 4949.72 4347.48 4970.73L4349.22 4972.05C4362.29 4981.85 4375.21 4991.83 4388.1 5001.87C4386.75 4930.66 4395.75 4858.71 4432.52 4797.34C4458.45 4754.07 4497.3 4722.01 4530.55 4684.82C4567.56 4643.41 4586.88 4592.51 4620.39 4549.38C4624.7 4543.84 4630.65 4540.85 4637.09 4539.9C4638.37 4505.22 4643.48 4470.21 4647.43 4435.91L4648.57 4425.64C4652.56 4388.38 4661.99 4342.86 4643.74 4307.96C4626.5 4274.99 4586.95 4251.72 4557.66 4229.36L4533.74 4210.81M2816.08 3750.78C2800.79 3759.63 2786.49 3770.63 2773.53 3784.38C2732.7 3827.67 2703.51 3881.55 2675.11 3933.38C2659.82 3961.3 2645.07 3989.52 2629.65 4017.36C2622.95 4029.48 2616.05 4041.47 2609.08 4053.43C2605.86 4058.94 2596.28 4069.9 2591.53 4076.66C2596.8 4084.05 2602.26 4091.32 2607.82 4098.52C2609.95 4101.27 2756.39 4260.75 2807.44 4323.17C2885.6 4418.78 2955.47 4519.77 3015.21 4627.86C3073.7 4733.71 3118.23 4845.78 3172.41 4953.69C3199.54 5007.71 3229.82 5061.34 3268.43 5108.09C3269.92 5109.92 3271.5 5111.64 3273.02 5113.44C3287.76 5073.65 3325.51 5031.04 3344.06 5006.57L3345.79 5004.26C3387.85 4947.58 3432.26 4892.61 3477.64 4838.57C3519.09 4789.23 3561.59 4740.95 3605.12 4693.47L3621.5 4675.7C3651.83 4642.95 3690.35 4593.94 3734.75 4570.54C3729.99 4562.06 3724.49 4553.68 3718.16 4545.4C3676.56 4491.06 3617.75 4451.62 3559.73 4416.03L3522.1 4393.15C3380.26 4306.73 3240.63 4216.32 3117.5 4104.04C3052.35 4044.63 2988.1 3982.4 2933.34 3913.1L2913.97 3888.6M3052.75 3708C2986.33 3713.57 2914.6 3712.25 2853.22 3733.89C2907.78 3785.46 2959.65 3841.15 3012.94 3893.58C3017.68 3858.12 3027.38 3823.08 3035.59 3788.5" fill="black"/>
<path d="M6453.05 6425.26L6599.73 6420.52L6618.72 7008.13L6692.05 7005.76L6673.06 6418.15L7039.75 6406.3L7061.36 7074.95L6914.68 7079.69L6895.36 6481.96L6822.03 6484.33L6841.35 7082.06L6474.66 7093.92L6453.05 6425.26Z" fill="black"/>
<path fill-rule="evenodd" clip-rule="evenodd" d="M3772.92 67.3862C4164.61 67.3862 4634.57 257.168 4674.53 260.964L4675.61 261.022C4696.63 261.022 4778.77 323.569 4922.04 448.662L4766.86 751.148L4779.42 763.132C4839.51 820.714 4915.51 775.127 4956 816.5C5286.63 1154.31 5153.5 2356 5153.5 2895C5075.58 3357.54 4893.89 3851 4222 3851C3550.11 3851 2930.15 3515.74 2815 3390C2738.24 3306.17 2651.81 3302.94 2556.12 3306.45C2552.19 3301.49 2548.29 3296.54 2544.42 3291.61L2530.34 3289.62C2397.91 3270.45 2303.02 3244.65 2245.67 3212.22C2133.66 3148.89 2010.55 2815.93 2010.55 2742.58C2010.55 2669.97 1826.72 2141.73 1823.04 2085.83L1822.98 2084.28C1822.98 2037.55 1582.82 1822.73 1582.82 1754.51C1582.82 1686.29 1534.41 1690.43 1582.82 1450.03L1596.89 1379.41C1648.4 1123.45 1861.24 632.828 2245.67 448.662C2668.13 246.283 3377.27 67.3862 3772.92 67.3862Z" fill="white"/>
<path fill-rule="evenodd" clip-rule="evenodd" d="M2070.38 507.668C2281.79 283.401 3481.99 -63.4886 4089.2 10.0436L4107.41 12.4011C4155.87 18.5426 4203.63 27.8426 4250.76 40.4765C4403.1 76.0357 4560.46 129.879 4686.33 219.817C4791.42 293.392 5122.92 413.546 5025.21 606.02C5061.44 674.62 5138.98 703.935 5114.5 771.5C5111.42 794.838 5152.21 854.487 5143 876.772C5220.4 990.925 5167.5 1190.5 5188.5 1445.5C5212.65 1738.7 5220.32 2001.69 5242 2340.5C5275.69 2867 5271.64 3461.81 4608.5 3825.5C4273 4009.5 3677.5 3871.62 3638.5 3825.5C3618.39 3801.71 3528.09 3769.18 3559.64 3757.92C3569.04 3767.83 3578.69 3777.49 3588.52 3786.96C3588.08 3785.91 3587.99 3784.86 3588.17 3783.71L3578.93 3775.35C3561.51 3759.24 3538.95 3735.89 3564.65 3740.46C3565.78 3741.78 3567.02 3742.92 3568.24 3744.23C3573.68 3747.5 3577.79 3750.33 3580.99 3752.82L3582.64 3754.14L3582.13 3753.61C3567.33 3737.83 3558.45 3721.74 3580.58 3732.02L3583.51 3733.44C3593.35 3743.8 3603.35 3753.71 3613.53 3763.36C3613.37 3762.22 3613.53 3761.08 3614.16 3759.85L3604.66 3750.68C3595.4 3741.61 3596.81 3741.57 3601.34 3734.23C3581.64 3706.64 3580.93 3722.68 3583.51 3733.44C3606.52 3728 3662.28 3728.08 3677.5 3732.02C4451.5 3932.5 5164 3681 5121 2474.5V2367C5072 1920.5 5081.51 1634 5030.99 1260.5C5013.09 1221.72 4991.92 1034.08 4969.89 997.584C4954.7 970.21 4938.46 943.539 4921 917.569C4872.09 913.621 4823.81 904.672 4776.24 890.81C4759.9 886.686 4743.75 882.124 4727.61 876.772C4491.64 889.634 4260.94 903.628 4024.32 916.893L3950.41 921.494C3749.96 934.374 3542.66 955.002 3380.91 1078.91C3222.19 1191.73 3221.47 1414.18 3085.61 1538.04C2891.87 1669.45 2890.46 1787.96 2853.15 1981.63C2855.92 2127.62 2957.2 2339.74 2771.34 2401.18C2802.69 2445.86 2758.99 2424.39 2755.54 2408.72C2755.19 2408.81 2754.84 2408.9 2754.58 2408.9C2782.52 2460.81 2741.45 2428.12 2737.81 2411.44C2735.62 2410.83 2733.42 2409.25 2731.23 2407.06C2759.38 2452.54 2713.87 2420.69 2716.57 2412.41C2662.17 2328.84 2550.21 2315.86 2471.29 2338.01C2470.33 2340.99 2466.82 2341.25 2464.63 2339.68C2129.06 2412.36 2215.64 3106.66 2559.52 3039.54C2574.24 3036.54 2573.89 3043.6 2576.82 3044.28C2568.87 3023.43 2591.27 3031.92 2591.03 3036.3L2592.39 3036.23C2593.47 3036.13 2593.03 3036.02 2593.84 3036.3C2586.16 2993.66 2629.38 3055.43 2625.97 3057.97C2627.29 3057.18 2628.78 3056.74 2630.1 3056.56L2628.61 3052.52C2621.44 3033.42 2622.05 3041.35 2622.1 3030.42C2616.71 3016.9 2616.32 3022.81 2617.58 3014C2636.53 2999.33 2642.12 3043.83 2648.44 3047.09C2637.61 3032 2646.22 3019.67 2656.44 3027.86C2733.89 3190.68 2833.94 3343.67 2963.23 3464.18C2977.37 3475.32 2991.68 3486.29 3006.51 3496.64C3061.51 3544.52 3145.87 3575.31 3197.35 3617.72C3197.35 3618.42 3197.01 3619.3 3196.48 3620.18L3197.66 3621.24L3198.85 3622.37L3216.76 3630.97C3222.03 3635.44 3226.77 3640.44 3230.97 3645.97C3235.46 3651.15 3239.4 3656.85 3242.74 3662.9C3244.41 3670.27 3240.73 3673.34 3233.7 3670.19C3230.62 3669.13 3227.56 3667.9 3224.49 3666.76C3224.66 3667.03 3224.74 3667.2 3224.92 3667.38C3225.93 3668.9 3232.75 3684.7 3224.89 3682.13L3223.96 3681.77C3219.65 3680.19 3215.36 3678.43 3211.14 3676.77C3216.15 3682.99 3220.7 3689.75 3224.74 3695.45C3229.05 3699.93 3231.67 3705.19 3232.74 3711.16C3232.55 3714.49 3230.72 3715.9 3227.38 3715.46C3222.29 3713.79 3217.29 3712.03 3212.27 3710.19L3213.7 3712.91C3217.24 3719.87 3222.27 3731.55 3213.34 3727.65C3205.69 3725.28 3198.33 3722.56 3190.95 3719.58C3190.33 3720.81 3189.11 3721.25 3186.65 3720.11C3163.21 3711.77 3140.56 3701.59 3118.88 3689.57C3099.83 3675.71 3080.6 3662.11 3061.47 3648.34C3043.47 3637.55 3026.08 3625.53 3009.5 3612.02C2898.49 3540.35 2801.31 3449.32 2724.21 3347.93C2595.26 3459.54 2337.45 3352.92 2177.97 3265.55C2036.91 3187.46 1981.47 3043.09 1967.13 2887.43C1937.33 2677.86 1765.97 2606.13 1777.9 2146.31C1777.63 2146.39 1777.36 2146.39 1777.01 2146.39C1770.78 2144.55 1764.73 2142.09 1759.02 2138.94C1753.14 2136.13 1747.61 2132.79 1742.42 2128.76L1736.01 2119.9C1732.69 2118.06 1729.7 2116.12 1727.42 2114.19L1726.24 2115.72C1722.49 2120.24 1725.01 2113.44 1725.23 2112.09L1714.09 2096.96C1687.7 2060.94 1658.74 2020.53 1635.15 1988.21L1634.41 1989.52C1633.87 1990.51 1633.59 1991.23 1633.84 1991.54C1577.7 1910.93 1524.91 1813.56 1510.24 1719.3C1492.92 1646.69 1499.69 1571.87 1514.8 1504.61C1579.57 1269.08 1791.77 736.106 2070.38 507.668ZM3593.85 3764.88L3590.33 3761.75L3593.43 3765.62C3595.05 3767.62 3596.71 3769.42 3599.41 3771.26C3599.23 3770.64 3599.23 3770.03 3599.31 3769.33C3597.52 3767.96 3595.69 3766.46 3593.85 3764.88ZM4086.51 128.388C3674.74 93.0038 3269.73 183.67 2876.79 293.418L2849.68 301.205C2626.26 364.923 2390 422.26 2201.19 558.643C1937.39 760.584 1801.17 1081.84 1682.29 1378.44C1578.49 1598.82 1631.55 1847.31 1787.98 2001.19C1804.26 1848.28 1832.01 1699.84 1875.37 1552.59C1884.42 1529.59 1877.57 1522.05 1897.08 1519.05C1926.54 1915.86 1781.44 2209.04 2068.58 2679.32C2193.17 2901.22 2048.95 3063.58 2400.78 3180.35L2410.3 3183.98C2483.61 3211.63 2563.65 3233.45 2635.45 3218L2629.02 3207.54C2622.46 3196.77 2620.46 3191.54 2630 3186.94C2629.75 3186.41 2629.4 3185.88 2629.04 3185.27C2621.32 3170.71 2613.86 3155.97 2606.74 3141.05C2603.85 3142.02 2600.96 3142.72 2597.96 3143.51C2599.9 3147.11 2600.16 3150.7 2594.72 3151.93C2575.38 3158.56 2555.52 3161.22 2535.18 3159.98L2530.82 3159.65C2507.84 3158.25 2493.37 3154.06 2480.42 3150.18C2476.13 3149.47 2471.83 3148.77 2467.6 3147.9C2425.95 3138.67 2381.86 3115.19 2353.32 3091.92C2028.01 2907.25 2061.63 2278.64 2462.61 2219.21C2470.83 1823.42 2659.19 1155.68 2971.79 778.534C3254.35 431.619 4025.74 281.258 4562.42 334.277C4570.24 336.865 4578.06 339.479 4585.88 342.12C4668.68 349.472 4747.59 386.339 4830.45 403.465C4770.96 358.904 4703.47 329.223 4633.95 303.999C4495.45 219.325 4336.66 173.51 4183.26 141.197C4151.48 133.388 4119.27 129.089 4086.51 128.388ZM2444.26 2537.17C2465.82 2525.46 2463.35 2536.76 2468.31 2533.48C2623.39 2520.84 2790.61 2656.54 2877.29 2769.67C2870.45 2776.77 2851.92 2755.72 2848.68 2752.38C2848.24 2752.82 2847.71 2753.17 2847.18 2753.35L2849.6 2756.75C2884.73 2807.15 2815.08 2747.85 2808.56 2735.62C2807.42 2736.24 2806.28 2736.59 2804.96 2736.33C2810.48 2741.74 2827.35 2755.86 2830.24 2765.89L2834.71 2769.61C2876.87 2805.69 2873.37 2832.83 2825.51 2781.6C2826.64 2783.97 2827.08 2786.16 2826.29 2787.92L2827.94 2789.01C2851.47 2805.45 2870.83 2851.27 2821.64 2804.23C2826.76 2838.59 2772.89 2772.18 2771.16 2772.65C2677.95 2699.52 2540.72 2628.4 2423.8 2618.85L2419.78 2618.39C2398.32 2615.63 2388.18 2609.27 2395.71 2595.25C2369.29 2588.97 2375.48 2575.96 2387.99 2576.38C2369.35 2564.14 2386.13 2552.42 2396.94 2557C2389.51 2536.42 2419.33 2550.13 2422.05 2547.26C2437.52 2523.4 2441.69 2543.3 2444.26 2537.17ZM2119.19 1261.93C2193.68 1234.66 2413.69 1316.29 2396.09 1424.4C2385.61 1449.22 2351.08 1463.44 2326.8 1449.43L2295.12 1428.17C2239.99 1391.26 2190.27 1358.91 2131.08 1326.72C2098.86 1310.75 2084.99 1276.83 2119.19 1261.93ZM2542.97 1101.28L2514.2 1082.57C2358.97 981.025 2139.51 827.165 2528.7 986.351C2573.06 1005.36 2632 1016.61 2656.2 1058.83C2694.22 1136.64 2594.17 1141.87 2542.97 1101.28ZM2560.41 645.674C2547.96 598.428 2702.96 653.868 2748.08 668.485L2754.95 671.079C2798.84 687.425 2849.16 702.589 2875.41 740.446C2906.17 792.754 2843.91 803.589 2805.35 779.962C2726.28 728.321 2639.59 689.357 2560.41 645.674ZM2954.57 425.59C2867.32 330.367 3100.81 421.587 3135.79 446.909L3136.79 447.656C3162.89 466.019 3157.59 505.57 3133.07 517.186C3063.31 518.511 3011.98 460.395 2954.57 425.59ZM3351.58 321.262C3212.88 221.638 3395.58 269.024 3459.04 308.067C3502.29 346.188 3457.74 410.542 3351.58 321.262Z" fill="black"/>
<path fill-rule="evenodd" clip-rule="evenodd" d="M4177.07 3292.26C4117.3 3267.87 4063.98 3227.19 4024.99 3175.22C4011.44 3157.15 4007.92 3138.07 4010.76 3120.62C4013.96 3101 4025.57 3083.22 4041.39 3071.29C4057.27 3059.32 4077.12 3053.42 4096.32 3056.43C4113 3059.04 4129.61 3068.18 4142.75 3087.13L4145.5 3090.92C4168.68 3122.29 4198.88 3148.02 4233.3 3164.61C4266.47 3180.6 4303.57 3188.06 4341.96 3183.72C4415.08 3175.46 4465.47 3135.91 4519.04 3082.19C4525.68 3075.41 4532.32 3068.42 4539 3061.31C4543.21 3054.87 4549.06 3050.73 4555.56 3048.55C4562.77 3046.14 4570.93 3046.28 4578.41 3048.89C4585.61 3051.4 4592.06 3056.17 4596.38 3062.52C4600.48 3068.55 4602.81 3076 4602.06 3084.57C4597.15 3140.24 4568.06 3189.92 4526.73 3228.93C4480.83 3272.25 4419.99 3302.23 4362.71 3312.74C4299.6 3324.32 4235.3 3316.02 4177.07 3292.26ZM4392.48 2433.49C4459.62 2474.31 4561.92 2569.5 4489.69 2670.7C4404.67 2759.94 4282.27 2657.62 4221.95 2611.35C4166.02 2575.49 4103.18 2667.72 4155.07 2709.6C4590.94 3032.4 4767.82 2444.16 4426.44 2385.49C4388.85 2379.02 4374.89 2420.86 4392.48 2433.49ZM3611.4 2057.99C3618.82 1965.88 3759.05 1944.96 3773 2036.11C3785.5 2117.75 3770.79 2192.75 3734.03 2266.26C3698.9 2336.48 3610.61 2303.72 3603.93 2239.78C3594.98 2154.06 3606.79 2115.28 3611.4 2057.99ZM4678.88 2017.21C4698.43 1991.6 4726.66 1974.11 4760.48 1983.99C4866.15 2014.88 4835.01 2164.94 4797.9 2237.99C4777.73 2277.65 4712.55 2287.71 4683.1 2252.79C4635.08 2195.83 4612.09 2082.09 4673.13 2025.99C4674.78 2023.09 4676.62 2020.16 4678.88 2017.21ZM3732.54 1654.96L3749.23 1652.04C3800.87 1643.1 3865.07 1634.52 3901.6 1676.05C3920.97 1698.07 3927.64 1739 3901.6 1760.07C3855.79 1797.16 3805.15 1782.79 3750.26 1785.93C3705.02 1788.52 3661.54 1796.01 3617.97 1808.47C3522.37 1835.8 3444.48 1885.7 3362.83 1940.48C3352.12 1947.67 3341.18 1933.96 3346.3 1923.94C3393.43 1831.6 3484.76 1755.74 3576.25 1709.5C3625.08 1684.82 3678.52 1664.35 3732.54 1654.96ZM4582.56 1613.59L4595.33 1616.21C4734.36 1645.28 4914.99 1703.35 4980.83 1839.95C4983.34 1859.27 4980.69 1863.41 4978.53 1866.11L4977.82 1867.01C4976.04 1869.32 4974.62 1872.51 4966.25 1875.13C4963.93 1874.58 4961.58 1873.99 4959.21 1873.37C4929.03 1865.46 4905.16 1854.56 4882.04 1843.25L4856.98 1830.9C4827.9 1816.64 4798.57 1802.9 4767.48 1792.75C4701.13 1771.11 4632.89 1755.86 4563.59 1747.71C4548.57 1745.95 4534.11 1740.88 4522.7 1732.19C4511.87 1723.94 4503.59 1712.52 4499.82 1697.34C4494.93 1677.69 4496.33 1662.82 4506.87 1645.09C4514.8 1631.78 4526.13 1622.56 4539.15 1617.26C4552.43 1611.86 4567.54 1610.58 4582.56 1613.59Z" fill="black"/>
</svg>
