<svg width="9535" height="10359" viewBox="0 0 9535 10359" fill="none" xmlns="http://www.w3.org/2000/svg">
<path fill-rule="evenodd" clip-rule="evenodd" d="M9243.67 5634.18C9107.75 5647.52 8971.82 5660.84 8835.9 5674.19C8184.91 5723.92 7534.19 5827.78 6888.19 5890.12C6872.11 5863.94 6840.63 5868.25 6821.51 5886.44C6757.05 5880.79 6684.8 5831.53 6626.42 5882.78C6624.52 5882.51 6622.62 5882.2 6620.7 5882.01C6516.75 5682.49 6444.88 5469.67 6375.12 5256.58C6330.61 5125.57 6270.71 4998.74 6160.03 4910.77C5971.14 4779.67 5538.33 4513.8 5316.53 4524.97C5312.85 4485.27 5294.34 4444.34 5263.94 4417.89C5330.93 4303.69 5063.05 4229.17 5044.16 4242.41C5056.26 3860.85 4876.77 3529.5 4480.98 3453.52C4126.39 3379.64 3622.05 3367.23 3431.34 3737.75C3410.38 3735.39 3196.1 3734.27 3175.36 3736.59C3143.14 3695.78 2789.13 4082.61 2934.22 4217.27C1637.05 4791.04 899.472 4722.58 540.435 6335.57C491.898 6487.1 488.362 6652.91 437.108 6801.06C254.76 7226.8 106.857 7680.16 70.0491 8143.42C-18.8526 8166.19 -29.0768 8322.92 73.8979 8345.6C113.233 8354.27 146.125 8366.11 174.806 8388.56C152.385 8768.2 244.211 9635.41 302.069 9632.74C420.042 10008.2 946.265 10114.1 1318.81 9982.18C1254.59 10103 1318.81 10178.9 1318.81 10243.5C2659.34 10294.2 4125.06 10265 5465.21 10334.6C5636.65 10332.1 5816.95 10376.7 5986.04 10351C6089.16 10326.3 6089.33 10164.2 5984.73 10144.1L6441.76 10044.9C6431.55 10041 6630.15 9908.94 6780.25 9662.11C6919.98 9386 6824.88 9052.7 6888.19 8752.35C7382.65 8711.92 7885.28 8694.63 8374.33 8610.9C8441.01 8810.39 8729.66 8571.81 8821.41 8475.84C8821.29 8475.69 8821.18 8475.55 8821.06 8475.39C8865.46 8463.25 8901.07 8421.64 8902.27 8372.38C8933.4 8327.88 8939.93 8265.18 8910.07 8222.18C9046.94 7432.5 9255.6 6626.22 9331.02 5829.11C9357.68 5823.2 9382.79 5811.52 9404.08 5793.51L9402.35 5791.78C9438.42 5751.58 9445.43 5682.18 9385.3 5648.03C9336.8 5620.44 9296.3 5629 9243.67 5634.18Z" fill="white"/>
<path fill-rule="evenodd" clip-rule="evenodd" d="M3513.54 3616.86C3553.93 3515.37 3690.48 3554.82 3675.26 3661.44C3666.15 3725.3 3631.15 3792.75 3599.73 3848.72C3574.14 3894.28 3544.96 3938.75 3505.38 3972.9C3575.82 4038.6 3648.95 4101.92 3723.93 4162.02C3805.74 4227.61 3891.77 4288.07 3980.7 4343.62C4058.68 4392.35 4140.18 4435.52 4213.68 4491.12C4282.02 4542.81 4344.28 4604.99 4375.97 4686.14C4409.71 4772.56 4395.05 4861.8 4370.19 4948.17L4367.34 4957.93C4341.95 5043.5 4298 5146.64 4358.95 5227.25C4389.97 5268.29 4435.07 5297.35 4474.02 5330.16C4508.63 5359.32 4541.12 5391.03 4570.93 5425.09C4635.9 5499.35 4688.75 5582.9 4722.09 5676L4725.07 5684.45C4753.65 5766.88 4774.54 5867.84 4735.93 5948.76C4724.84 5971.94 4689.1 5964.4 4682.9 5941.82C4668.86 5890.65 4669.59 5837.07 4657.83 5785.19C4645.59 5731.22 4625.22 5680 4598.61 5631.54C4547.12 5537.78 4477.41 5457.7 4395.03 5389.99L4370.37 5369.95C4306.11 5317.23 4247.07 5261.29 4234.02 5174.04C4220.07 5080.69 4257.48 4991.75 4281.54 4903.39C4298.31 4841.81 4303.78 4782.78 4285.65 4727.14C4263.53 4763.25 4233.33 4797.54 4209.45 4828.12C4161.87 4889.04 4113.86 4949.59 4065.96 5010.25C4016.85 5072.46 3968.96 5135.65 3923.35 5200.47C3902.95 5229.46 3882.77 5258.63 3862.65 5287.83C3847.52 5309.79 3826.42 5331.71 3809.94 5354.09C3813.94 5366.07 3813.65 5379.87 3806.38 5389.67C3718.94 5507.78 3594.55 5261.34 3562.1 5199.08C3496.03 5072.27 3446.86 4937.56 3380.58 4810.8C3311.89 4679.38 3233.67 4551.47 3146.49 4431.49C3093.77 4358.91 3034.66 4290.75 2986.43 4215.88C2872.78 4318.9 2723.25 4387.96 2585.9 4450.58C2434.98 4519.37 2278.2 4575.58 2123.47 4635.26L2077.76 4653.01C1811.16 4757.02 1538.04 4871.31 1316.45 5056.07C1056.04 5273.19 901.992 5575.8 787.306 5889.18C655.283 6249.93 546.061 6620.42 444.246 6990.68C392.143 7180.12 342.706 7370.42 296.229 7561.33C255.276 7729.51 221.327 7899.39 173.917 8065.84C270.069 8062.45 379.729 8099.66 461.82 8110.4C835.943 8159.36 1205.03 8237.41 1558.25 8372.52C1601.88 8389.22 1614.5 8432.78 1605 8468.09C1630.17 8460.99 1655.3 8453.79 1680.46 8446.73C1652.9 8404.51 1666.05 8329.01 1668.22 8282.21L1668.35 8278.99C1670.58 8216.62 1677.36 8154.18 1681.74 8091.93C1690.1 7973.26 1700.98 7855.46 1715.45 7737.47L1719.14 7707.96C1735.53 7579.59 1747.64 7450.47 1765.54 7322.32L1767.64 7307.66C1759.07 7274.87 1749.08 7242.48 1738.6 7210.23C1710.67 7124.34 1671.25 7043.49 1636.7 6960.29C1632.62 6950.51 1646.58 6944.87 1653.1 6950.75C1711.62 7003.37 1758.09 7070.12 1795.43 7139.95C1796.08 7136.65 1796.65 7133.35 1797.32 7130.05L1801.59 7109.09C1812.09 7057.96 1824.87 7004.17 1856.24 6962.7C1859.59 6958.3 1866.19 6957.38 1869.35 6962.7C1899.37 7013.5 1902.73 7077.82 1907.35 7135.62C1912.58 7201.01 1913.23 7267.22 1912.31 7332.79C1910.51 7460.92 1901.47 7589.41 1894.29 7717.34C1887.22 7843.05 1873.36 7967.15 1855.49 8091.63L1852.09 8114.97C1843.36 8174.22 1836.2 8234.2 1824.68 8293.04L1821.43 8309.07C1815.27 8338.24 1811.48 8379.39 1799.22 8413.56C2114.69 8325.59 2430.65 8239.64 2747.2 8155.19C2976 8094.14 3205.03 8034.01 3433.96 7973.5C3446.04 7951.74 3461.08 7931.4 3479.86 7913.23C3541.71 7853.35 3623.68 7826.64 3698.86 7872.73C3704.96 7876.49 3705.47 7886.07 3698.86 7889.69C3684.44 7897.56 3670.02 7905.63 3655.84 7914.04L3793.3 7876.82C3896.06 7848.98 4000.04 7814.19 4105.21 7794.78C4298.9 7699.23 4507.24 7630.05 4711.29 7561.69L4735.33 7553.56C4839.81 7517.95 4947.87 7478.08 5055.82 7458.34C5134.85 7443.9 5227.61 7461.33 5259.39 7542.27C5299.62 7568.77 5337.47 7599.92 5374 7630.55C5400.41 7652.69 5425.72 7676.23 5451.46 7699.15L5456.2 7703.32C5477.25 7721.57 5493.92 7733.79 5499.09 7762.85C5501.76 7777.86 5492.21 7798.14 5473.7 7796.16C5417.05 7790.1 5370.98 7724.45 5332.55 7685.24C5302.87 7654.94 5272.95 7623.6 5245.86 7590.31C5230.06 7598.91 5208.42 7597.36 5198.37 7578.32C5146.23 7479.64 5003.43 7548.03 4924.41 7571.43L4811.22 7604.92C4754.62 7621.7 4698.05 7638.54 4641.58 7655.7C4486.37 7702.82 4331.92 7755.55 4175.3 7798.83C4189.31 7814.22 4187.38 7841.62 4160.76 7852.04C4038.17 7900.12 3903.66 7924.99 3776.3 7958C3695.88 7978.84 3615.52 7999.83 3535.17 8020.92C3521.4 8043.23 3511.49 8068.47 3507.32 8097.85C3491.98 8205.88 3521.56 8330.52 3550.36 8435L3554.7 8450.59C3578.37 8534.59 3613.21 8637.57 3685.7 8690.61C3703.4 8703.55 3725.93 8712.55 3748.65 8714.59C3890.56 8641.56 4032.47 8568.54 4174.45 8495.66C4200.76 8482.15 4225.07 8500.44 4230.97 8522.18C4281.04 8513.96 4330.98 8501.01 4376.48 8485.58C4452.93 8459.63 4512.62 8410.13 4584.28 8375.89C4722.95 8309.67 4864.56 8391.01 4988.71 8452.86L5017.33 8466.92C5073.01 8493.93 5188.84 8545.8 5215.55 8471.94C5241.39 8400.48 5159.69 8324.12 5106.94 8291.96C5044.05 8253.61 4970.82 8233.1 4899.75 8216C4859.16 8206.23 4818.08 8198.26 4776.75 8192.46C4729.88 8185.86 4681.46 8186.85 4636.32 8171.65C4613.9 8164.12 4610.45 8128.49 4636.32 8122.62C4705.8 8106.81 4788.73 8124.05 4861.23 8141.67L4899.13 8151.01C4972.17 8168.93 5045.92 8191.42 5112.46 8227.17C5160.84 8253.17 5211.9 8292.67 5245.26 8341.01C5274.23 8314.11 5310.28 8315.02 5347.83 8325L5368.22 8330.67C5401.88 8339.99 5429.17 8346.4 5461.93 8339.95C5466.31 8316.12 5470.74 8292.29 5475.49 8268.46C5522.17 8034.19 5573.36 7800.83 5629.84 7568.71C5727.26 7168.34 5839.99 6772.36 5967.09 6380.43L5979.85 6341.25C6009.16 6251.62 6032.75 6153.95 6080.01 6071.59C6124.71 5993.72 6196.31 5948.87 6281.39 5925.11C6377.94 5898.16 6479.4 5884.05 6577.89 5865.84C6599.86 5861.79 6621.89 5857.93 6643.88 5853.94C6625.3 5820.4 6611.42 5782.32 6598.93 5753.1L6596.74 5748.04C6569.89 5686.85 6545.78 5624.57 6522.5 5561.95L6505.08 5514.87C6463.03 5401.51 6419.64 5290.01 6360.52 5183.99C6298.3 5072.41 6215.75 4981.19 6112.85 4905.69C5903.04 4751.73 5650.17 4673.2 5446.68 4508.68C5438.34 4501.93 5449.04 4490.41 5457.49 4494.68C5594.9 4563.69 5743.22 4610.62 5886.14 4666.82L5914.34 4677.94C6027.29 4722.7 6142.01 4771.43 6239.78 4843.92C6348.78 4924.74 6434.63 5025.11 6499.16 5144.47C6562.75 5262.12 6603.43 5393.81 6648.29 5519.48L6660.29 5552.97C6678.4 5603.17 6697.08 5653.23 6718.51 5702.1C6735.51 5740.89 6767.24 5785.18 6781.67 5829.49C6821.12 5822.65 6860.57 5815.78 6900.07 5809.19C7755.59 5666.39 8620.68 5582.49 9487.69 5557.94C9521.61 5556.98 9539.16 5589.33 9534.16 5618.92C9450.95 6110.78 9377.02 6604.33 9295.88 7096.58C9260.47 7311.42 9224.35 7526.08 9187.39 7740.66C9168.66 7849.37 9147.01 7957.66 9129.27 8066.53C9114.95 8154.45 9104.57 8243.05 9079.98 8328.93C9057.94 8405.94 9024.1 8480.19 8968.53 8538.94C8908.63 8602.27 8825.03 8632.93 8740.87 8647.41C8527.24 8684.17 8308.11 8699.17 8092.74 8723.67L6946.09 8854.08C6962.85 9006.34 6964.1 9156.24 6956.41 9310.28L6952.02 9394.37C6948.45 9462.01 6944.16 9529.75 6934.45 9596.69C6922.26 9680.66 6883.84 9751.76 6827.24 9814.48C6775.28 9872.08 6712.13 9921.23 6650.73 9968.33C6586.98 10017.2 6521.11 10064.4 6446.16 10094.7L6436.44 10098.5C6370.68 10124.2 6247.34 10163.9 6157.46 10149.4C6169.21 10208.2 6191.94 10271.5 6171.78 10329.7C6162.43 10356.8 6127.07 10370.3 6105.4 10347.3C6062.48 10301.7 6059.13 10241.4 6048.96 10182C6038.38 10120.1 6029.26 10057.9 6021.16 9995.66C6005.49 9875.26 5993.3 9753.75 5989.57 9632.33C5985.74 9507.63 5987.23 9382.76 5993.95 9258.2C5997.4 9194.23 6001.69 9130.3 6009.8 9066.75C6013.28 9039.65 6016.81 9012.52 6020.85 8985.48C6022.34 8975.63 6023.97 8965.81 6025.73 8956.01L5922.82 8967.63C5765.01 8985.24 5607.12 9001.14 5448.19 9003.61C5429.38 9003.9 5414.9 8995.33 5405.44 8982.86C5395.36 8999.27 5377.8 9011.02 5352.66 9010.92C5130.71 9010.09 4924.03 8937.54 4722.18 8852.03C4620.43 8808.92 4520.27 8762.25 4418.35 8719.51C4323.24 8679.61 4221.56 8651.14 4128.74 8606.2L3884.85 8734.1C3883.05 8740.39 3880.76 8746.34 3878.32 8751.31C3862.45 8783.72 3831.13 8801.3 3799.15 8814.54C3768.46 8827.27 3736.67 8831.23 3705.7 8828.01C3520.73 8924.93 3335.72 9021.74 3150.57 9118.32L2965.39 9214.83C2596.44 9406.88 2228.93 9602.08 1857.66 9789.63L1830.33 9803.37C1702.09 9867.66 1564.38 9932.83 1422.07 9981.46C1419.53 10017.5 1421.13 10052.5 1424.15 10090.6L1424.87 10098.9C1429.12 10144 1438.22 10200.4 1402.07 10232.5C1383.27 10249.1 1349.68 10249.2 1336.9 10224.1C1313.7 10178.5 1334.53 10106.6 1341.88 10057C1344.49 10039.4 1347.67 10021.3 1352.37 10003.7C1189.22 10052.3 1021.12 10075.8 855.097 10048.6C693.449 10022.1 568.253 9920.25 467.322 9795.73C360.803 9664.32 285.11 9511.18 244.498 9347.01C198.279 9160.2 195.262 8967.28 196.346 8775.94C197.498 8572.18 205.038 8367.41 229.828 8165.03C202.668 8158.64 172.547 8153.12 145.101 8155.02C131.506 8176.77 105.136 8185.92 81.3079 8183.1C29.4909 8240.23 160.923 8298.62 202.925 8313.24C217.509 8318.32 215.948 8342 199.126 8341.28L188.53 8340.78C123.63 8337.33 56.5785 8326.26 18.4192 8265.96C-12.1588 8217.62 -2.97206 8160.37 33.4797 8120.96C57.5557 7893.38 115.113 7671.76 168.682 7449.76C221.251 7231.86 279.713 7015.37 341.678 6799.96L369.457 6703.54C467.02 6365.79 568.998 6025.31 703.579 5700.97C770.779 5539.02 848.195 5380.05 953.134 5238.84C1050.95 5107.2 1166.43 4994.57 1299.18 4898.36C1546.66 4719 1837.04 4610.63 2122.35 4507.37L2135.11 4502.76C2282.97 4449.29 2430.47 4395.18 2576.63 4337.25C2705.9 4286.02 2829.75 4221.06 2958.41 4169.06C2954.24 4161.47 2950.19 4153.8 2946.32 4146.04L2943.93 4148.04C2943.53 4148.36 2943.11 4148.68 2942.67 4148.98C2929.73 4157.94 2910.69 4153.54 2900.03 4143.47C2869.92 4115.07 2880.11 4083.55 2900.21 4054.1L2902.82 4050.35C2927.4 4015.93 2949.33 3979.53 2972.02 3943.86L2986.23 3921.55C3024.29 3861.96 3064.32 3801.97 3115.09 3752.71C3138.61 3729.89 3164.34 3712.81 3191.62 3700.09C3189.29 3695.16 3209.74 3685.08 3215.53 3690.15C3301.95 3658.54 3401.36 3665.16 3495.57 3673.88M6890.61 8860.39L6770.47 8874.05C6638.29 8889.08 6506.06 8903.61 6373.82 8918.01L6086.58 8949.22C6085.85 8965.59 6083.86 8981.6 6083.49 8993.96C6081.62 9057.7 6080.22 9121.47 6078.9 9185.22C6076.25 9313.02 6079.16 9440.95 6087.57 9568.5C6095.73 9692.09 6106.48 9815.71 6123.16 9938.46L6126.59 9963L6128.57 9975.9C6142.19 9977.22 6155.57 9983.7 6166.71 9996.99C6190.99 10026 6278.97 9997.8 6313.33 9985.57C6369.83 9965.48 6423.04 9931.51 6472.13 9897.47C6520.07 9864.21 6563.25 9825.44 6604.74 9784.6L6638.68 9751.04C6672.44 9717.49 6706.25 9681.76 6726.93 9639.57C6754.99 9582.34 6758.61 9512.1 6766.84 9449.79C6776.97 9373.13 6789.03 9296.49 6801.78 9220.21M3402.93 8055.77L3390.47 8059.04C2937.79 8179.29 2485.78 8303.09 2031.72 8418.04C1807 8474.93 1581.23 8527.69 1356.24 8583.48L1319.82 8592.59C1142.33 8637.44 962.711 8691.41 826.794 8820.11C821.777 8824.86 814.495 8817.58 819.216 8812.54C965.7 8656.65 1174.03 8590.65 1374.07 8533.45C1411.04 8522.87 1448.06 8512.54 1485.04 8502.03C1213 8405.07 936.673 8320.72 653.96 8260.56C581.161 8245.06 507.516 8233.69 434.774 8218.14C384.042 8207.29 334.5 8191.6 284.305 8178.6L244.822 8168.66L244.298 8293.41C243.641 8470.1 243.954 8646.65 252.971 8823.31L254.678 8856.05C265.198 9052.64 281.619 9253.33 351.408 9438.71C408.117 9589.35 498.51 9731.26 616.719 9840.99C676.532 9896.51 740.839 9939.72 820.33 9961.06C894.139 9980.86 971.469 9983.18 1047.34 9977.9C1411.28 9952.52 1735.24 9754.87 2051.39 9591.23C2568.47 9323.57 3085.62 9056.05 3603.24 8789.43C3589.25 8779.86 3576.08 8768.83 3564.09 8756.46C3494.68 8684.79 3458.06 8586.68 3434.02 8491.67C3408.42 8390.54 3393.11 8282.15 3391.33 8177.74M4061.55 8892.74C4066.12 8890.29 4071.41 8893.36 4071.63 8898.53C4073.23 8938.05 4051.38 8977.03 4035.06 9012.63L4033.33 9016.44C4013.5 9060.54 3991.78 9104.05 3969.32 9146.87C3924.44 9232.45 3877.78 9317.1 3829.11 9400.57C3731.2 9568.46 3622.41 9729.28 3493.81 9875.47C3464.77 9908.5 3417 9866.15 3435.64 9830.6C3525.5 9659.19 3630.27 9497.35 3738.11 9336.91C3792.1 9256.59 3846.05 9176.18 3900.57 9096.22C3923.32 9062.85 3946.35 9029.6 3970 8996.86L3984.28 8977.28M9430.37 5656.11C8976.09 5669.83 8522.37 5699.44 8070.27 5745.86C7649.81 5789.02 7230.9 5846.48 6814.34 5918.1C6727.33 5933.06 6640.44 5948.64 6553.65 5964.82L6501.59 5974.61C6414.79 5991.05 6308.75 5997.84 6231.46 6044.2C6149.99 6093.07 6127.96 6195.22 6100.85 6279.45C6068.98 6378.5 6037.92 6477.84 6007.69 6577.42C5887.66 6972.81 5778.03 7371.61 5680.22 7773.05C5631.67 7972.32 5588.58 8172.7 5543.2 8372.69C5502.87 8550.37 5458.37 8726.06 5411.88 8901.97C5417.62 8897.51 5424.65 8894.13 5433.13 8892.32C5663.97 8843.22 5899.59 8821.87 6133.88 8794.75L6156.56 8792.1C6398.93 8763.61 6641.29 8735.32 6883.81 8708.07L8489.42 8527.55C8584.12 8516.91 8685.56 8515.47 8777.71 8490.06C8934.39 8446.85 8971.11 8271.74 8997.4 8132.27L8998.2 8128.06C9077.44 7706.69 9140.54 7281.67 9214.45 6859.24M5449.25 8412.14C5386.92 8408.03 5301.59 8350.95 5254.3 8355.04C5279.14 8396.7 5290.34 8444.2 5276.03 8494.93C5236.21 8636.09 5056.11 8563.05 4969.37 8519.93C4898.25 8484.55 4829.57 8441.26 4750.83 8424.7C4661.63 8405.95 4601.2 8441.41 4525.84 8482.29C4463.94 8515.86 4396.53 8539.96 4327.21 8552.44C4290.34 8559.08 4255.33 8559.79 4220.39 8557.2C4218.28 8558.91 4215.91 8560.5 4213.21 8561.92L4194.72 8571.62C4278.31 8575.45 4363.46 8601.23 4441.26 8624.85C4521.87 8649.3 4601.01 8678.79 4679.73 8708.95L4757.17 8738.7C4948.19 8811.83 5145.92 8881.27 5352.66 8880.66C5367.52 8880.63 5379.69 8884.74 5389.27 8891.45M5100.48 7969.84C5162.07 7962.31 5218.91 7970.38 5268.12 8010.46C5327.47 8058.79 5367.33 8138.94 5452.66 8144.21C5477.53 8145.74 5483.31 8180.7 5458.59 8188.01C5395.08 8206.8 5343.66 8172.46 5300.39 8127.86L5271.3 8097.47C5228.54 8053.21 5189.11 8018.99 5116.55 8021.63C5038.85 8024.47 4961.02 8042.42 4883.81 8051.55C4796.37 8061.89 4708.94 8070.7 4621.22 8078.31C4617.14 8078.65 4616.44 8072.24 4620.26 8071.3L4718.52 8046.86M5041.04 7718.13L5051.19 7717.11C5140.62 7708.44 5222.4 7708.1 5302.27 7756.19L5317.59 7765.46C5389.6 7809.21 5467.97 7860.76 5513 7931.6C5520.37 7943.2 5508.2 7956.84 5495.87 7953.89C5409.32 7933.12 5346.05 7869.64 5273.27 7822.13C5191.59 7768.82 5107.22 7777.61 5014.09 7785.89C4923.92 7793.92 4833.79 7804.93 4744.5 7819.96C4660.6 7834.06 4576.44 7856.34 4491.69 7863.44L4491.7 7863.26C4482.02 7863.24 4476.5 7848.72 4486.38 7843.78C4572.38 7800.85 4671.98 7780.53 4765.54 7760.92M1978.84 5287.08C1978.72 5280 1988.66 5277.36 1992.14 5283.48C2050.33 5385.82 2080.75 5511.27 2111.74 5624.02C2144.21 5742.14 2170.42 5861.44 2193.96 5981.62C2241.64 6225 2267.05 6466.97 2268.77 6715.01C2269.01 6750.43 2211.31 6759.84 2205.66 6723.56C2168.18 6482.28 2132.27 6240.76 2094.51 5999.55C2075.5 5878.23 2053.39 5757.38 2032.22 5636.42M2554.87 5465.33C2550.58 5451.22 2571.13 5446.5 2576.38 5459.41C2693.16 5745.96 2732.7 6070.71 2657.73 6373.04C2646.25 6419.28 2578.5 6399.24 2587.16 6353.58M4061.09 5210.71C4060.5 5200.15 4074.21 5198.48 4079.39 5205.75C4134.72 5283.69 4157.66 5388.06 4254.74 5428.35C4303.21 5448.45 4357.75 5444.95 4400.57 5478.92C4429.19 5501.64 4451.14 5537.5 4429.66 5571.9C4422.73 5583.02 4403.33 5588.59 4393.92 5576.51C4380.19 5558.91 4372.93 5537.83 4354.28 5524.65C4327.98 5506.04 4292.5 5504.89 4262.35 5496.14C4223.33 5484.84 4188.94 5465.06 4160.78 5435.65M4985.45 3910.79C4991.15 3907.89 4996.63 3909.74 5000.27 3914.67C5005.49 3921.7 5004.85 3928.53 4998.47 3933.34C5006.98 3950.75 5017.05 3994.36 5018.49 4000.7C5024.31 4026.44 5030.51 4052.03 5036.99 4077.58C5050.08 4129.15 5061.53 4181.11 5074.63 4232.67C5088.5 4287.35 5105.04 4341.43 5123.44 4394.73C5124.63 4398.2 5125.93 4401.71 5127.3 4405.29L5129.41 4410.69L5129.92 4409.88C5133.66 4403.96 5141.44 4408.09 5140.53 4414.33C5139.67 4420.02 5138.52 4425.69 5137.54 4431.38L5139.48 4436.48C5151.51 4468.87 5159.75 4502.97 5137.67 4531.56C5129.41 4542.24 5120.31 4548.57 5108.98 4550.46C5090.82 4610.32 5068.04 4669.08 5043.63 4725.49L5036.48 4741.97C5000.58 4824.3 4962.31 4905.54 4905.16 4975.63C4842.77 5052.15 4756.94 5104.4 4702.6 5188.25C4677.31 5227.25 4659.72 5268.27 4645.44 5312.31L4640.07 5329.03C4629.94 5360.19 4618.24 5390.38 4589.01 5408.66C4579.67 5414.47 4565.71 5412.62 4558.19 5404.68C4498.23 5341.28 4560.99 5222.9 4597.13 5161.52C4647.39 5076.17 4720.11 5021.58 4792.92 4957.17C4871.41 4887.77 4921.48 4794.91 4969.91 4703.45C4999.58 4647.41 5028.21 4590.16 5058.35 4533.88C5026.86 4506.04 5016.78 4450.76 5006.1 4412.32L5005.13 4408.88C4987.5 4347.34 4973.47 4284.2 4964.63 4220.79C4956.1 4159.81 4952.55 4099.72 4954.8 4038.41L4955.45 4022.78M5102.57 4200.99C5095.61 4191.45 5107.13 4180.65 5116.68 4182.64C5174.73 4194.64 5231.49 4229.77 5283.59 4258.18L5289.16 4261.2C5330.75 4283.62 5372.6 4311.08 5394.44 4354.65C5418.19 4401.99 5416.24 4456.53 5413 4507.98L5412.69 4512.79C5408.73 4574.49 5408.09 4638.6 5395.02 4699.18C5388.34 4730.2 5360.25 4738.93 5336.22 4731.61C5307.65 4821.82 5227.36 4888.28 5168.72 4959.48C5093.96 5050.24 5108.02 5172.77 5115.84 5282.08C5119.01 5326.33 5063.94 5338.92 5035.58 5315.31L4970.23 5261.03C4959.34 5251.98 4948.47 5242.9 4937.63 5233.78C4928.34 5225.98 4919.14 5218.1 4910.02 5210.14L4896.39 5198.1C4890.34 5192.7 4863.68 5162.93 4855.88 5161.68C4836.99 5158.69 4792.13 5208.44 4776.77 5224.05L4774.83 5225.99C4745.93 5254.32 4719.81 5284.81 4695.49 5317.15C4691.01 5323.08 4682.27 5318.15 4685.47 5311.28C4707.26 5264.62 4732.6 5219.99 4762.69 5178.22L4768.77 5169.91C4788.8 5142.94 4815.66 5095.31 4851 5087.35C4894.16 5077.62 4937.24 5120.88 4968.64 5144.89L4970.63 5146.4C4985.57 5157.6 5000.33 5169.01 5015.06 5180.48C5013.52 5099.1 5023.81 5016.87 5065.83 4946.73C5095.46 4897.28 5139.86 4860.64 5177.87 4818.13C5220.16 4770.81 5242.24 4712.63 5280.54 4663.34C5285.47 4657.01 5292.27 4653.59 5299.63 4652.51C5301.09 4612.87 5306.93 4572.86 5311.45 4533.66L5312.75 4521.92C5317.31 4479.34 5328.09 4427.32 5307.23 4387.43C5287.53 4349.75 5242.32 4323.15 5208.85 4297.6L5181.51 4276.4M3218.44 3750.64C3200.96 3760.76 3184.62 3773.33 3169.81 3789.04C3123.14 3838.52 3089.78 3900.1 3057.32 3959.33C3039.85 3991.24 3022.99 4023.49 3005.37 4055.31C2997.71 4069.16 2989.83 4082.86 2981.86 4096.53C2978.18 4102.83 2967.23 4115.36 2961.8 4123.08C2967.83 4131.53 2974.07 4139.84 2980.42 4148.07C2982.85 4151.21 3150.22 4333.47 3208.56 4404.81C3297.89 4514.08 3377.74 4629.5 3446.02 4753.03C3512.86 4874.01 3563.76 5002.09 3625.68 5125.42C3656.68 5187.16 3691.29 5248.45 3735.42 5301.88C3737.12 5303.97 3738.93 5305.93 3740.66 5307.99C3757.51 5262.52 3800.65 5213.82 3821.85 5185.85L3823.83 5183.21C3871.9 5118.43 3922.65 5055.61 3974.52 4993.85C4021.89 4937.46 4070.46 4882.28 4120.21 4828.02L4138.93 4807.71C4173.6 4770.28 4217.62 4714.27 4268.36 4687.53C4262.92 4677.83 4256.64 4668.26 4249.4 4658.79C4201.86 4596.69 4134.65 4551.61 4068.34 4510.94L4025.33 4484.79C3863.22 4386.02 3703.64 4282.7 3562.92 4154.37C3488.46 4086.48 3415.03 4015.35 3352.45 3936.15L3330.31 3908.15M3488.92 3701.75C3413.01 3708.12 3331.03 3706.61 3260.88 3731.34C3323.24 3790.28 3382.52 3853.92 3443.42 3913.84C3448.84 3873.32 3459.93 3833.27 3469.31 3793.75" fill="black"/>
<path d="M7318 6841.7L7485.82 6836.28L7507.55 7508.81L7591.45 7506.1L7569.73 6833.56L7989.27 6820L8014 7585.29L7846.18 7590.71L7824.07 6906.6L7740.17 6909.31L7762.28 7593.43L7342.73 7607L7318 6841.7Z" fill="black"/>
<path fill-rule="evenodd" clip-rule="evenodd" d="M4207.92 67.3857C4599.61 67.3857 5069.57 257.168 5109.53 260.964L5110.61 261.022C5131.63 261.022 5213.77 323.569 5357.04 448.662L5201.86 751.148L5214.42 763.132C5274.51 820.714 5350.51 775.127 5391 816.5C5721.63 1154.31 5588.5 2356 5588.5 2895C5510.58 3357.54 5328.89 3851 4657 3851C3985.11 3851 3365.15 3515.74 3250 3390C3173.24 3306.17 3086.81 3302.94 2991.12 3306.45C2987.19 3301.49 2983.29 3296.54 2979.42 3291.61L2965.34 3289.62C2832.91 3270.45 2738.02 3244.65 2680.67 3212.22C2568.66 3148.89 2445.55 2815.93 2445.55 2742.58C2445.55 2669.97 2261.72 2141.73 2258.04 2085.83L2257.98 2084.28C2257.98 2037.55 2017.82 1822.73 2017.82 1754.51C2017.82 1686.29 1969.41 1690.43 2017.82 1450.03L2031.89 1379.41C2083.4 1123.45 2296.24 632.828 2680.67 448.662C3103.13 246.283 3812.27 67.3857 4207.92 67.3857Z" fill="white"/>
<path fill-rule="evenodd" clip-rule="evenodd" d="M2505.38 507.668C2716.79 283.401 3916.99 -63.4886 4524.2 10.0436L4542.41 12.4011C4590.87 18.5426 4638.63 27.8426 4685.76 40.4765C4838.1 76.0357 4995.46 129.879 5121.33 219.817C5226.42 293.392 5557.92 413.546 5460.21 606.02C5496.44 674.62 5573.98 703.935 5549.5 771.5C5546.42 794.838 5587.21 854.487 5578 876.772C5655.4 990.925 5602.5 1190.5 5623.5 1445.5C5647.65 1738.7 5655.32 2001.69 5677 2340.5C5710.69 2867 5706.64 3461.81 5043.5 3825.5C4708 4009.5 4112.5 3871.62 4073.5 3825.5C4053.39 3801.71 3963.09 3769.18 3994.64 3757.92C4004.04 3767.83 4013.69 3777.49 4023.52 3786.96C4023.08 3785.91 4022.99 3784.86 4023.17 3783.71L4013.93 3775.35C3996.51 3759.24 3973.95 3735.89 3999.65 3740.46C4000.78 3741.78 4002.02 3742.92 4003.24 3744.23C4008.68 3747.5 4012.79 3750.33 4015.99 3752.82L4017.64 3754.14L4017.13 3753.61C4002.33 3737.83 3993.45 3721.74 4015.58 3732.02L4018.51 3733.44C4028.35 3743.8 4038.35 3753.71 4048.53 3763.36C4048.37 3762.22 4048.53 3761.08 4049.16 3759.85L4039.66 3750.68C4030.4 3741.61 4031.81 3741.57 4036.34 3734.23C4016.64 3706.64 4015.93 3722.68 4018.51 3733.44C4041.52 3728 4097.28 3728.08 4112.5 3732.02C4886.5 3932.5 5599 3681 5556 2474.5V2367C5507 1920.5 5516.51 1634 5465.99 1260.5C5448.09 1221.72 5426.92 1034.08 5404.89 997.584C5389.7 970.21 5373.46 943.539 5356 917.569C5307.09 913.621 5258.81 904.672 5211.24 890.81C5194.9 886.686 5178.75 882.124 5162.61 876.772C4926.64 889.634 4695.94 903.628 4459.32 916.893L4385.41 921.494C4184.96 934.374 3977.66 955.002 3815.91 1078.91C3657.19 1191.73 3656.47 1414.18 3520.61 1538.04C3326.87 1669.45 3325.46 1787.96 3288.15 1981.63C3290.92 2127.62 3392.2 2339.74 3206.34 2401.18C3237.69 2445.86 3193.99 2424.39 3190.54 2408.72C3190.19 2408.81 3189.84 2408.9 3189.58 2408.9C3217.52 2460.81 3176.45 2428.12 3172.81 2411.44C3170.62 2410.83 3168.42 2409.25 3166.23 2407.06C3194.38 2452.54 3148.87 2420.69 3151.57 2412.41C3097.17 2328.84 2985.21 2315.86 2906.29 2338.01C2905.33 2340.99 2901.82 2341.25 2899.63 2339.68C2564.06 2412.36 2650.64 3106.66 2994.52 3039.54C3009.24 3036.54 3008.89 3043.6 3011.82 3044.28C3003.87 3023.43 3026.27 3031.92 3026.03 3036.3L3027.39 3036.23C3028.47 3036.13 3028.03 3036.02 3028.84 3036.3C3021.16 2993.66 3064.38 3055.43 3060.97 3057.97C3062.29 3057.18 3063.78 3056.74 3065.1 3056.56L3063.61 3052.52C3056.44 3033.42 3057.05 3041.35 3057.1 3030.42C3051.71 3016.9 3051.32 3022.81 3052.58 3014C3071.53 2999.33 3077.12 3043.83 3083.44 3047.09C3072.61 3032 3081.22 3019.67 3091.44 3027.86C3168.89 3190.68 3268.94 3343.67 3398.23 3464.18C3412.37 3475.32 3426.68 3486.29 3441.51 3496.64C3496.51 3544.52 3580.87 3575.31 3632.35 3617.72C3632.35 3618.42 3632.01 3619.3 3631.48 3620.18L3632.66 3621.24L3633.85 3622.37L3651.76 3630.97C3657.03 3635.44 3661.77 3640.44 3665.97 3645.97C3670.46 3651.15 3674.4 3656.85 3677.74 3662.9C3679.41 3670.27 3675.73 3673.34 3668.7 3670.19C3665.62 3669.13 3662.56 3667.9 3659.49 3666.76C3659.66 3667.03 3659.74 3667.2 3659.92 3667.38C3660.93 3668.9 3667.75 3684.7 3659.89 3682.13L3658.96 3681.77C3654.65 3680.19 3650.36 3678.43 3646.14 3676.77C3651.15 3682.99 3655.7 3689.75 3659.74 3695.45C3664.05 3699.93 3666.67 3705.19 3667.74 3711.16C3667.55 3714.49 3665.72 3715.9 3662.38 3715.46C3657.29 3713.79 3652.29 3712.03 3647.27 3710.19L3648.7 3712.91C3652.24 3719.87 3657.27 3731.55 3648.34 3727.65C3640.69 3725.28 3633.33 3722.56 3625.95 3719.58C3625.33 3720.81 3624.11 3721.25 3621.65 3720.11C3598.21 3711.77 3575.56 3701.59 3553.88 3689.57C3534.83 3675.71 3515.6 3662.11 3496.47 3648.34C3478.47 3637.55 3461.08 3625.53 3444.5 3612.02C3333.49 3540.35 3236.31 3449.32 3159.21 3347.93C3030.26 3459.54 2772.45 3352.92 2612.97 3265.55C2471.91 3187.46 2416.47 3043.09 2402.13 2887.43C2372.33 2677.86 2200.97 2606.13 2212.9 2146.31C2212.63 2146.39 2212.36 2146.39 2212.01 2146.39C2205.78 2144.55 2199.73 2142.09 2194.02 2138.94C2188.14 2136.13 2182.61 2132.79 2177.42 2128.76L2171.01 2119.9C2167.69 2118.06 2164.7 2116.12 2162.42 2114.19L2161.24 2115.72C2157.49 2120.24 2160.01 2113.44 2160.23 2112.09L2149.09 2096.96C2122.7 2060.94 2093.74 2020.53 2070.15 1988.21L2069.41 1989.52C2068.87 1990.51 2068.59 1991.23 2068.84 1991.54C2012.7 1910.93 1959.91 1813.56 1945.24 1719.3C1927.92 1646.69 1934.69 1571.87 1949.8 1504.61C2014.57 1269.08 2226.77 736.106 2505.38 507.668ZM4028.85 3764.88L4025.33 3761.75L4028.43 3765.62C4030.05 3767.62 4031.71 3769.42 4034.41 3771.26C4034.23 3770.64 4034.23 3770.03 4034.31 3769.33C4032.52 3767.96 4030.69 3766.46 4028.85 3764.88ZM4521.51 128.388C4109.74 93.0038 3704.73 183.67 3311.79 293.418L3284.68 301.205C3061.26 364.923 2825 422.26 2636.19 558.643C2372.39 760.584 2236.17 1081.84 2117.29 1378.44C2013.49 1598.82 2066.55 1847.31 2222.98 2001.19C2239.26 1848.28 2267.01 1699.84 2310.37 1552.59C2319.42 1529.59 2312.57 1522.05 2332.08 1519.05C2361.54 1915.86 2216.44 2209.04 2503.58 2679.32C2628.17 2901.22 2483.95 3063.58 2835.78 3180.35L2845.3 3183.98C2918.61 3211.63 2998.65 3233.45 3070.45 3218L3064.02 3207.54C3057.46 3196.77 3055.46 3191.54 3065 3186.94C3064.75 3186.41 3064.4 3185.88 3064.04 3185.27C3056.32 3170.71 3048.86 3155.97 3041.74 3141.05C3038.85 3142.02 3035.96 3142.72 3032.96 3143.51C3034.9 3147.11 3035.16 3150.7 3029.72 3151.93C3010.38 3158.56 2990.52 3161.22 2970.18 3159.98L2965.82 3159.65C2942.84 3158.25 2928.37 3154.06 2915.42 3150.18C2911.13 3149.47 2906.83 3148.77 2902.6 3147.9C2860.95 3138.67 2816.86 3115.19 2788.32 3091.92C2463.01 2907.25 2496.63 2278.64 2897.61 2219.21C2905.83 1823.42 3094.19 1155.68 3406.79 778.534C3689.35 431.619 4460.74 281.258 4997.42 334.277C5005.24 336.865 5013.06 339.479 5020.88 342.12C5103.68 349.472 5182.59 386.339 5265.45 403.465C5205.96 358.904 5138.47 329.223 5068.95 303.999C4930.45 219.325 4771.66 173.51 4618.26 141.197C4586.48 133.388 4554.27 129.089 4521.51 128.388ZM2879.26 2537.17C2900.82 2525.46 2898.35 2536.76 2903.31 2533.48C3058.39 2520.84 3225.61 2656.54 3312.29 2769.67C3305.45 2776.77 3286.92 2755.72 3283.68 2752.38C3283.24 2752.82 3282.71 2753.17 3282.18 2753.35L3284.6 2756.75C3319.73 2807.15 3250.08 2747.85 3243.56 2735.62C3242.42 2736.24 3241.28 2736.59 3239.96 2736.33C3245.48 2741.74 3262.35 2755.86 3265.24 2765.89L3269.71 2769.61C3311.87 2805.69 3308.37 2832.83 3260.51 2781.6C3261.64 2783.97 3262.08 2786.16 3261.29 2787.92L3262.94 2789.01C3286.47 2805.45 3305.83 2851.27 3256.64 2804.23C3261.76 2838.59 3207.89 2772.18 3206.16 2772.65C3112.95 2699.52 2975.72 2628.4 2858.8 2618.85L2854.78 2618.39C2833.32 2615.63 2823.18 2609.27 2830.71 2595.25C2804.29 2588.97 2810.48 2575.96 2822.99 2576.38C2804.35 2564.14 2821.13 2552.42 2831.94 2557C2824.51 2536.42 2854.33 2550.13 2857.05 2547.26C2872.52 2523.4 2876.69 2543.3 2879.26 2537.17ZM2554.19 1261.93C2628.68 1234.66 2848.69 1316.29 2831.09 1424.4C2820.61 1449.22 2786.08 1463.44 2761.8 1449.43L2730.12 1428.17C2674.99 1391.26 2625.27 1358.91 2566.08 1326.72C2533.86 1310.75 2519.99 1276.83 2554.19 1261.93ZM2977.97 1101.28L2949.2 1082.57C2793.97 981.025 2574.51 827.165 2963.7 986.351C3008.06 1005.36 3067 1016.61 3091.2 1058.83C3129.22 1136.64 3029.17 1141.87 2977.97 1101.28ZM2995.41 645.674C2982.96 598.428 3137.96 653.868 3183.08 668.485L3189.95 671.079C3233.84 687.425 3284.16 702.589 3310.41 740.446C3341.17 792.754 3278.91 803.589 3240.35 779.962C3161.28 728.321 3074.59 689.357 2995.41 645.674ZM3389.57 425.59C3302.32 330.367 3535.81 421.587 3570.79 446.909L3571.79 447.656C3597.89 466.019 3592.59 505.57 3568.07 517.186C3498.31 518.511 3446.98 460.395 3389.57 425.59ZM3786.58 321.262C3647.88 221.638 3830.58 269.024 3894.04 308.067C3937.29 346.188 3892.74 410.542 3786.58 321.262Z" fill="black"/>
<path fill-rule="evenodd" clip-rule="evenodd" d="M4432.04 2878.04C4484.1 2792.45 4595.07 3002.11 4606.86 3038.16C4617.3 3070.1 4624.19 3102.81 4627.69 3135.91C4668.05 3144.95 4709.97 3144.96 4751.32 3137.04C4812.78 3125.26 4850.36 3092.23 4903.77 3063.87C4940.67 3044.28 4987.17 3067.26 5006.36 3099.75C5028.93 3138 5014.55 3177.71 4984.87 3206.22C4928.57 3260.29 4817.82 3272.72 4744.33 3258.36C4702.23 3250.13 4663.65 3234.35 4629.57 3211.42C4629.35 3215.7 4629.2 3219.98 4628.86 3224.25L4628.21 3231.67C4622.56 3291.64 4606.07 3367.05 4559.46 3406.07C4483.02 3470.08 4388.68 3346.98 4462.96 3283.04L4465.26 3281.12C4511.43 3243.83 4521.5 3143.8 4519.01 3088.71C4517.38 3052.75 4510.83 3016.32 4499.47 2982.07L4497.13 2975.25C4493.71 2965.58 4456.43 2873.8 4442.95 2885.49L4442.31 2886.15C4436.76 2892.78 4427.78 2885.06 4432.04 2878.04ZM4847.69 2395.09C4917.97 2437.78 5025.04 2537.33 4949.45 2643.17C4860.46 2736.49 4732.34 2629.49 4669.2 2581.1C4610.66 2543.6 4544.88 2640.05 4599.2 2683.84C5055.42 3021.42 5240.56 2406.25 4883.24 2344.9C4843.89 2338.13 4829.28 2381.88 4847.69 2395.09ZM4097.29 2000.48C4165.97 1988.31 4236.32 2005.38 4293.16 2045.54L4297.46 2048.63C4352.22 2088.65 4413.48 2158.93 4382.06 2227.91C4369.45 2255.61 4331.68 2259.95 4307.72 2247.39C4267.83 2226.49 4260.6 2175.04 4225 2146.57C4195.81 2123.24 4156.5 2109.08 4118.9 2112.49C4030.58 2120.51 3976.25 2207.58 3948.81 2282.61C3945.3 2292.21 3931.21 2295.94 3925.7 2285.63C3861.01 2164.79 3975.51 2022.08 4097.29 2000.48ZM5197.37 1954.88C5328.93 1944.05 5482.92 2080.36 5448.28 2219.15C5431.67 2285.74 5332.83 2283.84 5315.26 2219.15C5305.59 2183.55 5306.56 2152.06 5280.92 2122.5C5259.76 2098.1 5229.69 2083.92 5197.37 2086.1C5161.75 2088.5 5128.89 2106.29 5103.92 2131.3C5081.37 2153.88 5067.89 2186.93 5044.53 2206.92C5038.78 2211.83 5031.08 2212.14 5025.4 2206.92C4985.2 2169.87 5009.33 2092.75 5034.82 2054.08C5071.3 1998.73 5130.7 1960.38 5197.37 1954.88ZM3846.76 1754.33C3931.16 1679.67 4084.52 1607.56 4198.32 1644.3C4263.75 1665.43 4292.27 1770.8 4219.23 1804.2C4134.65 1842.87 4037.13 1827.13 3951.04 1867.22C3914.88 1884.06 3880.88 1905.11 3855.71 1935.98C3835.88 1960.31 3815.7 1992.32 3787.02 2006.35C3779.48 2010.04 3769.27 2010.14 3763.23 2003.29C3700.36 1932.21 3791.87 1802.89 3846.76 1754.33ZM5052.31 1640.6C5104.47 1625.97 5162.34 1626.26 5215.32 1635.45C5268.3 1644.64 5322.08 1666.58 5365.32 1698.59L5370.34 1702.34C5417.55 1737.89 5473.89 1789.62 5470.87 1852.61C5468.35 1905.21 5412.99 1940.78 5365.19 1913.22C5326.23 1890.74 5307.89 1845.7 5274.9 1815.71C5247.68 1790.96 5215.71 1771.45 5181.59 1757.78C5143.7 1742.59 5105.74 1735.48 5065.07 1734.8C5033.75 1734.28 5002.25 1744.54 4971.52 1747.83C4974.06 1753.02 4949.77 1750.6 4935.84 1745.99C4925.53 1741.6 4925.48 1728.57 4929.05 1720.12C4946.78 1678.24 5011.28 1652.09 5052.31 1640.6Z" fill="black"/>
</svg>
