<svg viewBox="0 0 7037 9976" fill="none" xmlns="http://www.w3.org/2000/svg">
<path fill-rule="evenodd" clip-rule="evenodd" d="M6826.67 9803.52C6993.94 9795.45 6926.66 9502.95 6914.66 9395.52C6782.23 9003.18 6813.36 8575.12 6761.28 8163.87C6728.83 7779.97 6687.14 7397.27 6652.07 7013.66C6583.19 6234.98 6088.59 4649.78 5524.16 4394.84C5453.06 4082.95 5159.39 3791.81 4787.83 3791.81C4534.42 3491.91 4229.39 3280.86 3838.16 3323.47C3676.49 3330.83 3519.7 3502.25 3364.78 3535.36C3278.05 3547.31 2508.28 3516.54 2354.08 3608.09C2246.67 3663.23 2149.71 3765.11 2181.29 3894.82C2231.68 4051.97 2075.09 3881.93 1748.43 4049.66C1082.32 4449.61 1480.35 4984.66 1497.99 5001.24C1082.32 5579.43 718.992 6048.51 550.888 6755.23C441.939 7279.92 454.203 7821.57 362.92 8348.94C330.689 8531.81 281.244 8708.42 227.739 8886C169.751 9118.4 141.555 9697.64 109.592 9702.81C51.3703 9717.27 143.241 9836.78 204.933 9836.88C1915.35 10120.5 3652.72 9848.63 5372.34 9804.2C5856.95 9787.36 6342.08 9783.47 6826.67 9803.52Z" fill="white"/>
<path fill-rule="evenodd" clip-rule="evenodd" d="M4234.28 5052.27C4235.07 5044.44 4245.63 5044.46 4246.45 5052.27L4258.52 5168.82C4273.21 5311.15 4287.36 5453.21 4297.61 5596.21C4310.4 5774.53 4318.95 5952.81 4323.07 6131.53C4337.43 6753.98 4340.29 7376.75 4341.5 7999.35C4425.72 7993.52 4509.95 7987.9 4594.23 7982.47C4651.4 7978.78 4708.58 7975.24 4765.76 7971.75L4911.58 7962.91L4971.61 7959.23C5012.17 7956.72 5058.26 7946.51 5086.62 7982.43C5097.98 7996.81 5103.67 8015.5 5093.09 8032.58C5068.67 8071.95 5031.17 8070.58 4988.75 8072.28C4948.73 8073.9 4908.71 8075.48 4868.69 8077.02C4782.93 8080.36 4697.18 8083.5 4611.39 8085.9C4521.36 8088.43 4431.38 8090.48 4341.38 8092.01C4340.47 8354.85 4329.59 8617.36 4317.83 8879.9L4312.51 8998.05C4298.12 9317.56 4282.63 9637.34 4260.64 9956.43C4258.83 9982.55 4221.87 9982.5 4220.07 9956.43C4195.3 9597.09 4178.96 9236.99 4162.76 8877.17C4151.01 8616.28 4144.17 8355.33 4140.92 8094.34C4129.02 8094.42 4117.12 8094.58 4105.23 8094.62C3767.46 8096.1 3429.77 8097.57 3091.99 8094.4C3092.55 8095.07 3093.11 8095.73 3093.48 8096.61C3117.92 8154.3 3120.25 8227.92 3119.65 8289.83C3118.97 8360.83 3109.41 8430.97 3093.05 8500.02C3034.44 8747.38 2883.28 8968.94 2711.11 9152.11L2705.49 9158.07C2664.88 9200.97 2618.29 9244.07 2593.36 9298.71C2567.89 9354.5 2559.05 9419.76 2546.48 9479.71L2545.01 9486.6L2495.87 9713.52C2480.25 9785.6 2475.82 9890.72 2418.75 9942.72C2365.51 9991.25 2294.97 9965.9 2269.91 9903.43C2250.34 9854.67 2269.84 9801.12 2281.42 9752.39L2372.22 9370.81C2387.14 9308.58 2403.45 9245.95 2435.65 9190.05C2468.63 9132.79 2516.99 9091.29 2566.33 9048.82C2659.76 8968.4 2745.53 8876.34 2818.06 8776.66C2890.58 8677.02 2952.54 8567.18 2996 8451.68C3017.76 8393.87 3035.59 8333.8 3047.89 8273.25C3059.58 8215.79 3059.48 8156.27 3071.98 8099.43C3072.84 8095.5 3076.15 8092.81 3079.95 8091.61C3079.05 8089.08 3080.43 8085.65 3083.98 8085.43L3360.22 8067.68C3605.78 8051.84 3851.32 8035.6 4096.66 8017.04L4140.01 8013.91C4136.64 7665.69 4139.5 7317.39 4145.79 6969.04C4151.55 6649.59 4151.67 6330.06 4161.18 6010.66C4165.9 5852.13 4176.09 5693.98 4187.43 5535.78C4199.03 5374 4217.59 5213.58 4234.28 5052.27ZM1640.47 6904.5C1637.52 6886.76 1659.84 6875.77 1670.14 6892C1787.76 7077.35 1844.48 7278.69 1868.39 7495.6C1889.5 7687.04 1883.28 7881.24 1872.76 8073.18C1861.55 8277.91 1848.46 8482.57 1835.23 8687.18L1814.9 9000.95L1763.88 9787.56C1760.22 9843.82 1747.45 9894.99 1698.99 9921.14C1692.85 9926.27 1686.46 9930.86 1679.01 9934.84C1652.83 9948.83 1618.1 9941.76 1602.96 9914.9L1609.03 9918.9C1614.32 9922.22 1608.38 9917.58 1591.22 9904.97L1576.65 9886.13C1566.07 9870.22 1559.31 9854.59 1556.59 9835.68C1552.37 9806.31 1557.84 9774.08 1559.76 9744.56L1593.2 9228.76C1619.21 8827.77 1649.58 8426.89 1672.47 8025.7C1683.14 7838.71 1690.6 7651.55 1685.55 7464.24C1680.51 7277.96 1671.02 7088.53 1640.47 6904.5ZM2658.06 3451.62L2664.59 3450.53C2898.23 3411.73 3152.28 3418.99 3365.81 3531.58C3367.57 3532.51 3366.77 3535.44 3364.79 3535.36L3296.06 3532.61C3078.48 3524.09 2861.58 3519.05 2647.65 3570.16L2625.75 3575.43C2548.7 3594.22 2468.25 3617.22 2406.37 3668.09C2347.22 3716.72 2317.77 3791.73 2289.45 3860.78L2285.66 3869.89C2256.93 3938.1 2220.56 4002.78 2157.58 4045.43C2076.01 4100.66 1977.9 4093.89 1884.37 4101.39C1719.68 4114.62 1585.04 4233.94 1518.05 4379.96C1477.49 4468.37 1460.18 4567.49 1456.76 4664.18C1455 4713.4 1454.75 4764.55 1461.31 4813.45C1463.4 4829.08 1482.74 4886.04 1492.6 4884.67C1514.5 4881.64 1534.53 4893.06 1541.36 4910.56C1595.47 4858.3 1651.14 4807.54 1708.6 4758.61C1851.83 4636.67 2006.1 4526.15 2168.57 4431.18C2292.57 4358.69 2423.36 4286.87 2558.81 4232.58C2548.07 4232.35 2537.49 4234.48 2527.25 4239.8C2522.77 4242.15 2518.31 4236.52 2521.85 4232.8C2564.51 4187.93 2615.61 4181.54 2667.12 4193.51C2678.11 4190.01 2689.11 4186.63 2700.16 4183.42C2705.65 4181.82 2708.39 4189.39 2703.9 4192.32L2691.25 4200.4C2747.45 4219.22 2802.62 4256.21 2846.3 4285.4C2971.78 4369.24 3082.23 4471.73 3194.19 4572.3L3214.55 4590.53C3313.09 4678.5 3414.16 4763.98 3526.12 4834.56C3584.73 4871.5 3646.3 4905.66 3710.87 4931.08C3766.25 4952.89 3856.43 4966.62 3882.37 5025.14C3905.42 5053.14 3895.79 5088.88 3868.79 5107.72C3823.25 5157.83 3732.14 5125.46 3677.88 5104.59C3612.45 5079.43 3549.08 5049.19 3488.63 5013.72C3371.28 4944.84 3263.07 4859.21 3162.28 4768.11C3057.01 4672.97 2957.71 4571.9 2855.32 4473.77C2810.96 4431.25 2767.62 4387.73 2723.19 4345.28L2700.88 4324.15C2678.2 4302.89 2645.89 4269.75 2611.35 4249.69C2546.27 4288.5 2480.19 4325.71 2415.7 4365.52C2325.68 4421.08 2238.31 4480.66 2152.29 4542.19C1986.69 4660.66 1829.76 4793.34 1684.07 4935.55C1416.88 5196.36 1189.23 5494.18 990.369 5809.54L975.268 5833.57C862.262 6014.07 755.396 6200.39 679.623 6399.84C596.25 6619.31 555.702 6850.1 533.675 7083.07C511.813 7314.38 504.439 7546.85 480.006 7777.93C454.95 8014.94 405.582 8246.7 349.429 8478.04L336.037 8532.89C285.227 8740.07 232.785 8947.25 206.667 9159.32C192.723 9272.6 184.337 9387.43 186.232 9501.63C188.136 9616.49 206.19 9728.81 220.757 9842.47C226.339 9886.01 183.48 9922.35 145.13 9928.12C101.025 9934.74 63.1333 9906.61 49.4239 9865.65C6.68596 9737.96 -1.07751 9596.81 0.264005 9462.79C1.61417 9326.73 18.9846 9191.55 43.4261 9057.84C91.4955 8794.81 165.677 8537.23 227.733 8277.36C282.423 8048.31 319.129 7818.86 338.914 7584.21C359.452 7340.76 371.75 7096.49 409.218 6854.8C446.2 6616.19 515.786 6388.28 620.726 6170.71C716.277 5972.62 835.386 5786.16 960.259 5605.44C1111.9 5385.98 1278.45 5177.15 1464.62 4986.88C1447.89 4986.15 1430.72 4980.75 1414.95 4970.92C1366.71 4940.84 1344.24 4881.99 1337.34 4828.26C1321.17 4702.56 1325.07 4571.34 1357.41 4448.44C1409.57 4250.19 1544.95 4074.04 1741.16 4002.58C1791.66 3984.19 1845.35 3977.47 1898.87 3976.15C1949.65 3974.88 2005.12 3981.5 2054.13 3965.41C2132.13 3939.78 2165.56 3847.94 2194.85 3778.32L2196.2 3775.12C2233.75 3686.41 2278.83 3610.37 2360.17 3554.97C2446.95 3495.86 2555.67 3468.98 2658.06 3451.62ZM4878.02 3802.47C4948.23 3778.12 5036.01 3800.22 5104.67 3821.49C5181.16 3845.19 5251.85 3888.86 5312.45 3940.71C5376.38 3995.4 5429.22 4062.92 5466.55 4138.35L5470.12 4145.62C5504.22 4215.59 5543.05 4311.66 5525.85 4388.53C5525.36 4390.71 5524.8 4392.81 5524.16 4394.84C5663.46 4463.4 5792.11 4549.27 5904.13 4658.1C6034.58 4784.82 6145.04 4929.01 6238.51 5084.8C6609.75 5703.52 6675.09 6446.61 6718.94 7152.22L6729.87 7331.13C6753.68 7717.46 6781.54 8102.88 6853.92 8483.88L6859.2 8511.38C6936.56 8910.29 7047.3 9312.25 7036.09 9721.46C7032.72 9844.07 6851.47 9843.24 6846.21 9721.46C6826.43 9263.11 6719.44 8820.56 6646.99 8369.37C6519.51 7575.57 6583.38 6757.2 6402.75 5971.35C6331.87 5662.96 6222.06 5363.81 6065.26 5088.53C5987.81 4952.53 5899.19 4821.12 5795.39 4703.8C5706.08 4602.85 5613.25 4505.7 5508.88 4420.84C5475.53 4454.24 5408.89 4437.22 5391.48 4388.53C5379.52 4355.07 5383 4315.95 5375.33 4280.9C5368.2 4248.37 5358.38 4216.12 5345.3 4185.49C5319.21 4124.45 5280.92 4065.83 5236.72 4016.42C5188.97 3963.02 5134.09 3918.65 5072.68 3882.01C5010.85 3845.13 4943.23 3834.11 4878.02 3807.16C4875.83 3806.25 4875.62 3803.31 4878.02 3802.47ZM5150.8 8044.81C5150.9 8041.59 5154.7 8040.07 5157.04 8042.22C5181.65 8064.86 5196.53 8097.36 5214.64 8125.22C5235.54 8157.33 5257.48 8188.8 5280.48 8219.44C5326.58 8280.84 5377.89 8338.71 5429.61 8395.41C5477.72 8448.14 5528.99 8498.65 5582.17 8546.25C5639.8 8597.85 5704.37 8643.87 5756.73 8701C5865.97 8820.2 5883.62 8983.8 5906.67 9137.41L5909.19 9154.02C5923.25 9245.19 5935.84 9336.59 5947.2 9428.13C5952.72 9472.66 5958.22 9517.23 5962.72 9561.86L5964.1 9576.01C5968.11 9619.71 5969.19 9664.04 5944.09 9702.23C5917.21 9743.08 5856.12 9757.4 5819.79 9718.23C5757.38 9650.93 5769.09 9531.41 5760.97 9444.84C5754.26 9373.25 5746.65 9301.76 5738.13 9230.37L5733.8 9194.68C5723.76 9113.47 5715.61 9030.64 5697.02 8950.83C5680.64 8880.56 5649.42 8827.52 5598.2 8776.6C5546.6 8725.32 5492.99 8677.44 5445.36 8622.21C5394.84 8563.64 5349.27 8500.83 5308.21 8435.27C5273.09 8379.21 5244.94 8318.19 5219.15 8257.24L5214.88 8247.09C5189.95 8187.65 5148.85 8110.28 5150.8 8044.81ZM6051.88 5491.9C6052.42 5483.61 6064.68 5483.48 6064.86 5491.9C6066.41 5563.19 6067.9 5634.49 6069.38 5705.8C6081.29 6280.35 6073.95 6856.26 6131.61 7428.84C6158.8 7698.81 6208.88 7964.81 6266.82 8229.7C6296.48 8365.24 6327.58 8500.47 6357.14 8636.03C6385.94 8768.15 6416.83 8900.9 6439.68 9034.25C6462.13 9165.31 6482.24 9297.37 6491.27 9430.11L6492.38 9447.43C6496.27 9511.73 6514.81 9606.3 6479.4 9663.29C6441.02 9725.04 6367.55 9726.15 6326.43 9667.21C6287.82 9611.87 6297.42 9513.44 6290.6 9447.43C6283.67 9380.17 6276.34 9312.86 6268.01 9245.76C6251.76 9114.87 6230.36 8984.28 6208.1 8854.28C6161.74 8583.56 6094.49 8316.24 6044.85 8045.95C5993.98 7768.99 5957.82 7490.05 5956.29 7208.06C5954.78 6923.67 5984.89 6639.84 6000.09 6356.08C6015.53 6067.88 6033.08 5779.89 6051.88 5491.9ZM3337 3704.84C3352.43 3652.9 3406.89 3620.42 3460.01 3635.01C3508.7 3648.39 3548.89 3707.46 3529.86 3758C3509.09 3813.15 3472.79 3860.18 3442.18 3910.3C3413.92 3956.62 3372.69 3993.09 3343.89 4038.59L3375.62 4072.79C3391.5 4089.85 3407.42 4106.8 3423.52 4123.47L3478.86 4180.78C3521.96 4225.32 3565.34 4269.63 3609.93 4312.62C3741.07 4439.08 3874.29 4561.39 4021.16 4669.68C4054.59 4694.33 4088.28 4718.83 4122.92 4741.78L4135.84 4750.33C4159.6 4765.89 4186.11 4781.18 4214.82 4778.54C4284.57 4772.14 4347.6 4698.08 4395.53 4651.98L4398.04 4649.58C4516.83 4536.59 4626.83 4413.05 4722.99 4280.21C4744.34 4250.7 4765.02 4220.68 4785.15 4190.31C4738.66 4136.02 4749.76 4030.03 4747.2 3964.18C4745.39 3917.88 4745.25 3871.57 4745 3825.24L4744.87 3815.9C4744.31 3785.91 4742.96 3757.14 4762.42 3732.47C4763.56 3731.04 4765.9 3731.08 4767.35 3731.83C4794.01 3745.8 4802.23 3769.19 4813.61 3795.42L4814.79 3798.15C4828.64 3829.63 4841.9 3861.42 4855.32 3893.08C4869.36 3926.24 4882.24 3959.88 4895.29 3993.44C4901.37 4009.05 4907.17 4024.72 4912.84 4040.47C4916.29 4050.54 4919.87 4060.55 4923.53 4070.54L4924.4 4071.31C4929.25 4075.42 4933.36 4079.76 4936.9 4084.25C4951.78 4091.69 4963.6 4105.25 4969.15 4125.16C4981.22 4168.52 4956.23 4203.88 4933.95 4238.29C4843.42 4378.12 4740.21 4511.36 4625.5 4632.23C4568.52 4692.28 4508.58 4749.62 4446.18 4804.02L4435.27 4813.47C4379.22 4861.63 4318.36 4907.25 4243.49 4918.52C4155.88 4931.7 4084.58 4888.14 4017.51 4837.96L4010.82 4832.92C3947.24 4784.81 3884.94 4735 3824.59 4682.9C3701.52 4576.68 3584.45 4462.63 3480.54 4337.51C3379.47 4215.8 3279.57 4079.71 3217.27 3933.27C3213.47 3924.35 3223.46 3915.01 3231.28 3922.46C3261.71 3951.42 3290.99 3981.96 3319.93 4012.88C3320.73 3967.36 3312.33 3921.45 3317 3875.64C3322.7 3819.96 3321.06 3758.45 3337 3704.84Z" fill="black"/>
<path fill-rule="evenodd" clip-rule="evenodd" d="M4102.92 67.3862C4494.61 67.3862 4964.57 257.168 5004.53 260.964L5005.61 261.022C5026.63 261.022 5108.77 323.569 5252.04 448.662L5096.86 751.148L5109.42 763.132C5169.51 820.714 5245.51 775.127 5286 816.5C5616.63 1154.31 5483.5 2356 5483.5 2895C5405.58 3357.54 5223.89 3851 4552 3851C3880.11 3851 3260.15 3515.74 3145 3390C3068.24 3306.17 2981.81 3302.94 2886.12 3306.45C2882.19 3301.49 2878.29 3296.54 2874.42 3291.61L2860.34 3289.62C2727.91 3270.45 2633.02 3244.65 2575.67 3212.22C2463.66 3148.89 2340.55 2815.93 2340.55 2742.58C2340.55 2669.97 2156.72 2141.73 2153.04 2085.83L2152.98 2084.28C2152.98 2037.55 1912.82 1822.73 1912.82 1754.51C1912.82 1686.29 1864.41 1690.43 1912.82 1450.03L1926.89 1379.41C1978.4 1123.45 2191.24 632.828 2575.67 448.662C2998.13 246.283 3707.27 67.3862 4102.92 67.3862Z" fill="white"/>
<path fill-rule="evenodd" clip-rule="evenodd" d="M2400.38 507.668C2611.79 283.401 3811.99 -63.4886 4419.2 10.0436L4437.41 12.4011C4485.87 18.5426 4533.63 27.8426 4580.76 40.4765C4733.1 76.0357 4890.46 129.879 5016.33 219.817C5121.42 293.392 5452.92 413.546 5355.21 606.02C5391.44 674.62 5468.98 703.935 5444.5 771.5C5441.42 794.838 5482.21 854.487 5473 876.772C5550.4 990.925 5497.5 1190.5 5518.5 1445.5C5542.65 1738.7 5550.32 2001.69 5572 2340.5C5605.69 2867 5601.64 3461.81 4938.5 3825.5C4603 4009.5 4007.5 3871.62 3968.5 3825.5C3948.39 3801.71 3858.09 3769.18 3889.64 3757.92C3899.04 3767.83 3908.69 3777.49 3918.52 3786.96C3918.08 3785.91 3917.99 3784.86 3918.17 3783.71L3908.93 3775.35C3891.51 3759.24 3868.95 3735.89 3894.65 3740.46C3895.78 3741.78 3897.02 3742.92 3898.24 3744.23C3903.68 3747.5 3907.79 3750.33 3910.99 3752.82L3912.64 3754.14L3912.13 3753.61C3897.33 3737.83 3888.45 3721.74 3910.58 3732.02L3913.51 3733.44C3923.35 3743.8 3933.35 3753.71 3943.53 3763.36C3943.37 3762.22 3943.53 3761.08 3944.16 3759.85L3934.66 3750.68C3925.4 3741.61 3926.81 3741.57 3931.34 3734.23C3911.64 3706.64 3910.93 3722.68 3913.51 3733.44C3936.52 3728 3992.28 3728.08 4007.5 3732.02C4781.5 3932.5 5494 3681 5451 2474.5V2367C5402 1920.5 5411.51 1634 5360.99 1260.5C5343.09 1221.72 5321.92 1034.08 5299.89 997.584C5284.7 970.21 5268.46 943.539 5251 917.569C5202.09 913.621 5153.81 904.672 5106.24 890.81C5089.9 886.686 5073.75 882.124 5057.61 876.772C4821.64 889.634 4590.94 903.628 4354.32 916.893L4280.41 921.494C4079.96 934.374 3872.66 955.002 3710.91 1078.91C3552.19 1191.73 3551.47 1414.18 3415.61 1538.04C3221.87 1669.45 3220.46 1787.96 3183.15 1981.63C3185.92 2127.62 3287.2 2339.74 3101.34 2401.18C3132.69 2445.86 3088.99 2424.39 3085.54 2408.72C3085.19 2408.81 3084.84 2408.9 3084.58 2408.9C3112.52 2460.81 3071.45 2428.12 3067.81 2411.44C3065.62 2410.83 3063.42 2409.25 3061.23 2407.06C3089.38 2452.54 3043.87 2420.69 3046.57 2412.41C2992.17 2328.84 2880.21 2315.86 2801.29 2338.01C2800.33 2340.99 2796.82 2341.25 2794.63 2339.68C2459.06 2412.36 2545.64 3106.66 2889.52 3039.54C2904.24 3036.54 2903.89 3043.6 2906.82 3044.28C2898.87 3023.43 2921.27 3031.92 2921.03 3036.3L2922.39 3036.23C2923.47 3036.13 2923.03 3036.02 2923.84 3036.3C2916.16 2993.66 2959.38 3055.43 2955.97 3057.97C2957.29 3057.18 2958.78 3056.74 2960.1 3056.56L2958.61 3052.52C2951.44 3033.42 2952.05 3041.35 2952.1 3030.42C2946.71 3016.9 2946.32 3022.81 2947.58 3014C2966.53 2999.33 2972.12 3043.83 2978.44 3047.09C2967.61 3032 2976.22 3019.67 2986.44 3027.86C3063.89 3190.68 3163.94 3343.67 3293.23 3464.18C3307.37 3475.32 3321.68 3486.29 3336.51 3496.64C3391.51 3544.52 3475.87 3575.31 3527.35 3617.72C3527.35 3618.42 3527.01 3619.3 3526.48 3620.18L3527.66 3621.24L3528.85 3622.37L3546.76 3630.97C3552.03 3635.44 3556.77 3640.44 3560.97 3645.97C3565.46 3651.15 3569.4 3656.85 3572.74 3662.9C3574.41 3670.27 3570.73 3673.34 3563.7 3670.19C3560.62 3669.13 3557.56 3667.9 3554.49 3666.76C3554.66 3667.03 3554.74 3667.2 3554.92 3667.38C3555.93 3668.9 3562.75 3684.7 3554.89 3682.13L3553.96 3681.77C3549.65 3680.19 3545.36 3678.43 3541.14 3676.77C3546.15 3682.99 3550.7 3689.75 3554.74 3695.45C3559.05 3699.93 3561.67 3705.19 3562.74 3711.16C3562.55 3714.49 3560.72 3715.9 3557.38 3715.46C3552.29 3713.79 3547.29 3712.03 3542.27 3710.19L3543.7 3712.91C3547.24 3719.87 3552.27 3731.55 3543.34 3727.65C3535.69 3725.28 3528.33 3722.56 3520.95 3719.58C3520.33 3720.81 3519.11 3721.25 3516.65 3720.11C3493.21 3711.77 3470.56 3701.59 3448.88 3689.57C3429.83 3675.71 3410.6 3662.11 3391.47 3648.34C3373.47 3637.55 3356.08 3625.53 3339.5 3612.02C3228.49 3540.35 3131.31 3449.32 3054.21 3347.93C2925.26 3459.54 2667.45 3352.92 2507.97 3265.55C2366.91 3187.46 2311.47 3043.09 2297.13 2887.43C2267.33 2677.86 2095.97 2606.13 2107.9 2146.31C2107.63 2146.39 2107.36 2146.39 2107.01 2146.39C2100.78 2144.55 2094.73 2142.09 2089.02 2138.94C2083.14 2136.13 2077.61 2132.79 2072.42 2128.76L2066.01 2119.9C2062.69 2118.06 2059.7 2116.12 2057.42 2114.19L2056.24 2115.72C2052.49 2120.24 2055.01 2113.44 2055.23 2112.09L2044.09 2096.96C2017.7 2060.94 1988.74 2020.53 1965.15 1988.21L1964.41 1989.52C1963.87 1990.51 1963.59 1991.23 1963.84 1991.54C1907.7 1910.93 1854.91 1813.56 1840.24 1719.3C1822.92 1646.69 1829.69 1571.87 1844.8 1504.61C1909.57 1269.08 2121.77 736.106 2400.38 507.668ZM3923.85 3764.88L3920.33 3761.75L3923.43 3765.62C3925.05 3767.62 3926.71 3769.42 3929.41 3771.26C3929.23 3770.64 3929.23 3770.03 3929.31 3769.33C3927.52 3767.96 3925.69 3766.46 3923.85 3764.88ZM4416.51 128.388C4004.74 93.0038 3599.73 183.67 3206.79 293.418L3179.68 301.205C2956.26 364.923 2720 422.26 2531.19 558.643C2267.39 760.584 2131.17 1081.84 2012.29 1378.44C1908.49 1598.82 1961.55 1847.31 2117.98 2001.19C2134.26 1848.28 2162.01 1699.84 2205.37 1552.59C2214.42 1529.59 2207.57 1522.05 2227.08 1519.05C2256.54 1915.86 2111.44 2209.04 2398.58 2679.32C2523.17 2901.22 2378.95 3063.58 2730.78 3180.35L2740.3 3183.98C2813.61 3211.63 2893.65 3233.45 2965.45 3218L2959.02 3207.54C2952.46 3196.77 2950.46 3191.54 2960 3186.94C2959.75 3186.41 2959.4 3185.88 2959.04 3185.27C2951.32 3170.71 2943.86 3155.97 2936.74 3141.05C2933.85 3142.02 2930.96 3142.72 2927.96 3143.51C2929.9 3147.11 2930.16 3150.7 2924.72 3151.93C2905.38 3158.56 2885.52 3161.22 2865.18 3159.98L2860.82 3159.65C2837.84 3158.25 2823.37 3154.06 2810.42 3150.18C2806.13 3149.47 2801.83 3148.77 2797.6 3147.9C2755.95 3138.67 2711.86 3115.19 2683.32 3091.92C2358.01 2907.25 2391.63 2278.64 2792.61 2219.21C2800.83 1823.42 2989.19 1155.68 3301.79 778.534C3584.35 431.619 4355.74 281.258 4892.42 334.277C4900.24 336.865 4908.06 339.479 4915.88 342.12C4998.68 349.472 5077.59 386.339 5160.45 403.465C5100.96 358.904 5033.47 329.223 4963.95 303.999C4825.45 219.325 4666.66 173.51 4513.26 141.197C4481.48 133.388 4449.27 129.089 4416.51 128.388ZM2774.26 2537.17C2795.82 2525.46 2793.35 2536.76 2798.31 2533.48C2953.39 2520.84 3120.61 2656.54 3207.29 2769.67C3200.45 2776.77 3181.92 2755.72 3178.68 2752.38C3178.24 2752.82 3177.71 2753.17 3177.18 2753.35L3179.6 2756.75C3214.73 2807.15 3145.08 2747.85 3138.56 2735.62C3137.42 2736.24 3136.28 2736.59 3134.96 2736.33C3140.48 2741.74 3157.35 2755.86 3160.24 2765.89L3164.71 2769.61C3206.87 2805.69 3203.37 2832.83 3155.51 2781.6C3156.64 2783.97 3157.08 2786.16 3156.29 2787.92L3157.94 2789.01C3181.47 2805.45 3200.83 2851.27 3151.64 2804.23C3156.76 2838.59 3102.89 2772.18 3101.16 2772.65C3007.95 2699.52 2870.72 2628.4 2753.8 2618.85L2749.78 2618.39C2728.32 2615.63 2718.18 2609.27 2725.71 2595.25C2699.29 2588.97 2705.48 2575.96 2717.99 2576.38C2699.35 2564.14 2716.13 2552.42 2726.94 2557C2719.51 2536.42 2749.33 2550.13 2752.05 2547.26C2767.52 2523.4 2771.69 2543.3 2774.26 2537.17ZM2449.19 1261.93C2523.68 1234.66 2743.69 1316.29 2726.09 1424.4C2715.61 1449.22 2681.08 1463.44 2656.8 1449.43L2625.12 1428.17C2569.99 1391.26 2520.27 1358.91 2461.08 1326.72C2428.86 1310.75 2414.99 1276.83 2449.19 1261.93ZM2872.97 1101.28L2844.2 1082.57C2688.97 981.025 2469.51 827.165 2858.7 986.351C2903.06 1005.36 2962 1016.61 2986.2 1058.83C3024.22 1136.64 2924.17 1141.87 2872.97 1101.28ZM2890.41 645.674C2877.96 598.428 3032.96 653.868 3078.08 668.485L3084.95 671.079C3128.84 687.425 3179.16 702.589 3205.41 740.446C3236.17 792.754 3173.91 803.589 3135.35 779.962C3056.28 728.321 2969.59 689.357 2890.41 645.674ZM3284.57 425.59C3197.32 330.367 3430.81 421.587 3465.79 446.909L3466.79 447.656C3492.89 466.019 3487.59 505.57 3463.07 517.186C3393.31 518.511 3341.98 460.395 3284.57 425.59ZM3681.58 321.262C3542.88 221.638 3725.58 269.024 3789.04 308.067C3832.29 346.188 3787.74 410.542 3681.58 321.262Z" fill="black"/>
<path fill-rule="evenodd" clip-rule="evenodd" d="M4327.04 2878.04C4379.1 2792.45 4490.07 3002.11 4501.86 3038.16C4512.3 3070.1 4519.19 3102.81 4522.69 3135.91C4563.05 3144.95 4604.97 3144.96 4646.32 3137.04C4707.78 3125.26 4745.36 3092.23 4798.77 3063.87C4835.67 3044.28 4882.17 3067.26 4901.36 3099.75C4923.93 3138 4909.55 3177.71 4879.87 3206.22C4823.57 3260.29 4712.82 3272.72 4639.33 3258.36C4597.23 3250.13 4558.65 3234.35 4524.57 3211.42C4524.35 3215.7 4524.2 3219.98 4523.86 3224.25L4523.21 3231.67C4517.56 3291.64 4501.07 3367.05 4454.46 3406.07C4378.02 3470.08 4283.68 3346.98 4357.96 3283.04L4360.26 3281.12C4406.43 3243.83 4416.5 3143.8 4414.01 3088.71C4412.38 3052.75 4405.83 3016.32 4394.47 2982.07L4392.13 2975.25C4388.71 2965.58 4351.43 2873.8 4337.95 2885.49L4337.31 2886.15C4331.76 2892.78 4322.78 2885.06 4327.04 2878.04ZM4742.69 2395.09C4812.97 2437.78 4920.04 2537.33 4844.45 2643.17C4755.46 2736.49 4627.34 2629.49 4564.2 2581.1C4505.66 2543.6 4439.88 2640.05 4494.2 2683.84C4950.42 3021.42 5135.56 2406.25 4778.24 2344.9C4738.89 2338.13 4724.28 2381.88 4742.69 2395.09ZM3992.29 2000.48C4060.97 1988.31 4131.32 2005.38 4188.16 2045.54L4192.46 2048.63C4247.22 2088.65 4308.48 2158.93 4277.06 2227.91C4264.45 2255.61 4226.68 2259.95 4202.72 2247.39C4162.83 2226.49 4155.6 2175.04 4120 2146.57C4090.81 2123.24 4051.5 2109.08 4013.9 2112.49C3925.58 2120.51 3871.25 2207.58 3843.81 2282.61C3840.3 2292.21 3826.21 2295.94 3820.7 2285.63C3756.01 2164.79 3870.51 2022.08 3992.29 2000.48ZM5092.37 1954.88C5223.93 1944.05 5377.92 2080.36 5343.28 2219.15C5326.67 2285.74 5227.83 2283.84 5210.26 2219.15C5200.59 2183.55 5201.56 2152.06 5175.92 2122.5C5154.76 2098.1 5124.69 2083.92 5092.37 2086.1C5056.75 2088.5 5023.89 2106.29 4998.92 2131.3C4976.37 2153.88 4962.89 2186.93 4939.53 2206.92C4933.78 2211.83 4926.08 2212.14 4920.4 2206.92C4880.2 2169.87 4904.33 2092.75 4929.82 2054.08C4966.3 1998.73 5025.7 1960.38 5092.37 1954.88ZM3741.76 1754.33C3826.16 1679.67 3979.52 1607.56 4093.32 1644.3C4158.75 1665.43 4187.27 1770.8 4114.23 1804.2C4029.65 1842.87 3932.13 1827.13 3846.04 1867.22C3809.88 1884.06 3775.88 1905.11 3750.71 1935.98C3730.88 1960.31 3710.7 1992.32 3682.02 2006.35C3674.48 2010.04 3664.27 2010.14 3658.23 2003.29C3595.36 1932.21 3686.87 1802.89 3741.76 1754.33ZM4947.31 1640.6C4999.47 1625.97 5057.34 1626.26 5110.32 1635.45C5163.3 1644.64 5217.08 1666.58 5260.32 1698.59L5265.34 1702.34C5312.55 1737.89 5368.89 1789.62 5365.87 1852.61C5363.35 1905.21 5307.99 1940.78 5260.19 1913.22C5221.23 1890.74 5202.89 1845.7 5169.9 1815.71C5142.68 1790.96 5110.71 1771.45 5076.59 1757.78C5038.7 1742.59 5000.74 1735.48 4960.07 1734.8C4928.75 1734.28 4897.25 1744.54 4866.52 1747.83C4869.06 1753.02 4844.77 1750.6 4830.84 1745.99C4820.53 1741.6 4820.48 1728.57 4824.05 1720.12C4841.78 1678.24 4906.28 1652.09 4947.31 1640.6Z" fill="black"/>
</svg>
