<svg viewBox="0 0 7491 10173" fill="none" xmlns="http://www.w3.org/2000/svg">
<rect x="4155" y="5913" width="2134" height="2807" fill="white"/>
<path fill-rule="evenodd" clip-rule="evenodd" d="M3537.73 3501.33C3773.62 3321.6 4365.84 3240.77 4617.61 3413.83C4866.28 3587.61 4893.39 3868.64 5009.26 4127.17C5118.59 4075.59 5299.14 4149.47 5330.84 4250.97C5370.15 4298.85 5371.92 4433.36 5399.03 4497.71C6578.65 4685.59 6757.74 5605.79 6899.73 6650.48C7087.56 7710.57 7513.96 8768.35 7328.85 9859.2C7352.97 9894.12 7371.99 9928.06 7389.57 9968.38C7431.7 10040.1 7377.44 10141.6 7292.45 10137.7C7182.45 10128 7073.54 10114.9 6963.03 10110.7C6656.66 10100.1 6350.01 10101.4 6043.53 10105.2L6001.74 10105.8C4457.16 10125 2912.67 10162.9 1368.02 10173C1311.98 10173.1 1284.55 10122.8 1292.03 10073.2C1307.1 9973.32 1321.08 9873.4 1335.67 9773.48C970.326 9870.03 581.928 9894.33 217.612 9783.64C192.125 9757.66 276.993 9771.74 290.458 9767.79C-44.8273 9538.55 55.3013 9055.62 85.0017 8707.79C269.683 7515.92 334.788 6197.19 1048.33 5180.15C1357.02 4765.09 1809.59 4436.48 2329.62 4362.54L2344.05 4360.56C2496.11 4340.28 2665.57 4333.74 2798.52 4250.97C2948.05 4131.54 3011.77 3910.85 3169.07 3908.78C3221.02 3908.1 3291.68 3973.85 3367.72 4018.49C3373.4 3920.29 3426.29 3837.41 3437.97 3761.27L3438.91 3754.76C3451.1 3665.98 3434.41 3586.12 3537.73 3501.33ZM6072.85 6681.97C5741.34 6451.54 4884.99 6567.32 4865.39 6580.22C4822.22 6608.63 4803.64 6611.14 4780.29 6648.03C4757.24 6651.09 4734.21 6654.27 4711.2 6657.54C4665.03 6672.63 4699.25 6729.44 4752.57 6709.17C4720.5 6847.57 4814.88 6945.99 4852.46 7082.81C4864.66 7127.24 4852.9 7207.14 4852.46 7252.53C4856.1 7310.41 4920.05 7378.77 4909.4 7436.83C4871.5 7643.26 4665.87 7844.63 4752.57 8044.82C4810 8157.89 4982.74 8215.54 5097.58 8253.98C5335.52 8345.35 5750.1 8250.54 5888.35 8044.82C5962.09 7935.09 6047.52 7658.31 6091.49 7572.45L6101.23 7436.26C6125.27 7097.71 6146.64 6733.26 6072.85 6681.97Z" fill="white"/>
<path fill-rule="evenodd" clip-rule="evenodd" d="M3111.31 3888.82C3134.2 3868.54 3168.07 3894.02 3153.52 3921.41C3120.84 3982.98 3087.32 4041.32 3043.46 4095.74C3016.86 4128.74 2988.38 4159.95 2959.51 4190.81C3033.59 4254.94 3097.13 4334.56 3157.14 4409.18C3233.86 4504.62 3306.4 4604.1 3392.53 4691.42C3477.47 4777.55 3571.39 4837.75 3684.96 4877.89L3707.89 4885.87C3821.98 4925.94 3943.91 4980.06 4008.21 5088.14C4020.89 5109.45 3995.36 5135.78 3973.89 5122.48C3862.16 5053.25 3730.86 5039.33 3609.23 4993.59C3491.74 4949.41 3389.32 4881.4 3298.82 4794.61C3208.48 4707.96 3132.62 4609.38 3053.5 4512.89C2975.25 4417.47 2891.01 4335.98 2798.46 4255.25C2655.64 4351.38 2492.61 4393.22 2326.84 4434.3L2308.75 4438.78C2142.78 4479.9 1977.69 4527.65 1821.99 4599.25C1684.71 4662.36 1549.68 4737.74 1437.85 4840.45C1319.15 4949.45 1226.76 5088.67 1142.2 5224.82C953.043 5529.42 820.061 5863.12 702.989 6200.87C581.225 6552.19 479.377 6910.54 397.156 7273.15C355.339 7457.59 321.376 7643.34 293.463 7830.4C280.027 7920.49 268.091 8010.77 257.608 8101.25C246.418 8197.87 243.848 8297.28 214.224 8390.18C201.524 8429.99 171.537 8446.51 141.521 8445.11L135.425 8521.4C127.34 8623.12 119.804 8724.86 117.258 8827.21C113.035 8997.39 114.95 9167.08 127.184 9336.9L128.917 9360.05C138.53 9483.99 160.012 9623.25 253.155 9714C349.614 9807.99 497.954 9837.54 627.964 9839.24C930.768 9843.19 1222.25 9700.03 1490.2 9574.44C1766.16 9445.1 2034.58 9301.53 2296.57 9145.83C2429.99 9066.53 2561.97 8984.6 2692.27 8900.27C2756.21 8858.88 2819.7 8816.79 2882.71 8774.02C2918.81 8749.52 2953.01 8722.66 2989.75 8700.93C2971.75 8684.16 2963.71 8657.79 2978.79 8634.76C2872.57 8542.51 2828.37 8377.89 2823.2 8244.69C2819.02 8137.17 2834.84 8029.95 2847.32 7923.44C2853.62 7869.74 2861.39 7816.12 2869.47 7762.66C2872.66 7741.53 2875.1 7718.94 2878.82 7696.64C2592.02 7854.34 2297.17 7994.78 1994.52 8119.55C1839.39 8183.51 1682.27 8241.02 1522.98 8293.71L1490.69 8304.34C1339.76 8353.77 1185.22 8400.47 1029.2 8428.73C1020.85 8430.24 1014.08 8417.92 1022.98 8413.99C1175.04 8346.85 1332.36 8290.23 1486.7 8228.4L1512.06 8218.07C1509.15 8217.9 1506.13 8217.5 1502.98 8216.75C1412.46 8194.89 1322.65 8161.2 1233.88 8132.84C1151.48 8106.52 1058.92 8089.99 981.903 8050.25C975.978 8047.19 979.294 8038.95 985.066 8038.56C1071.62 8032.55 1165.59 8057.79 1250.46 8072.64L1282.34 8078.23C1335.75 8087.65 1390.34 8097.79 1443.49 8111C1445.41 8093.18 1455.36 8075.29 1469.51 8064.8C1625.25 7949.4 1609.43 7716.33 1626.09 7544.46L1638.44 7416.86C1660.16 7193.54 1683.15 6970.26 1718.07 6748.61C1719.93 6736.78 1738.23 6740.17 1738.31 6751.35C1740.11 7026.1 1719.38 7299.58 1708.99 7573.91L1707.38 7618.91C1701.63 7788.18 1697.13 7963.94 1590.59 8094.19C1605.49 8085.48 1625.63 8085.48 1637.7 8099.84C1652.53 8117.5 1661.09 8137.33 1660.82 8156.79C1757.1 8116.4 1852.96 8074.96 1948.35 8032.68C2255.03 7896.73 2555.28 7744.59 2847.6 7579.98C2879.05 7562.26 2908.95 7576.18 2924.51 7599.54L2926.76 7599.22C2927.13 7599.17 2927.51 7599.13 2927.9 7599.12L2930.13 7599.03C2930.22 7599.03 2930.3 7599.04 2930.38 7599.04C2971.53 7576.41 3027.58 7592.52 3062.89 7625.52C3063.94 7626.52 3064.82 7627.59 3065.75 7628.64C3110.45 7608.56 3152.2 7581.45 3190.08 7547.1C3267.59 7476.8 3333.25 7389.88 3390.5 7302.71C3495.91 7142.17 3585.45 6963.64 3727.84 6831.49C3843.54 6724.13 3986.98 6657.28 4137.46 6615.31C4136.83 6610.92 4138.51 6606.23 4141.55 6603.11C4149.28 6595.19 4154.79 6592.44 4164.78 6597.25C4165.57 6597.64 4166.05 6598.18 4166.37 6598.75L4181.06 6573.65C4189.07 6560.03 4197.3 6546.31 4200.15 6542.7C4217.24 6521.18 4234.82 6499.82 4252.67 6478.91C4282.94 6443.5 4317.43 6408.56 4357.36 6384.01C4444.8 6330.26 4536.72 6360.68 4626.61 6390.05C4680.93 6407.81 4735.07 6426.14 4789.29 6444.16L4794.88 6445.99C4835.31 6458.99 4882.62 6470.35 4900.7 6513.21C4907.86 6530.18 4908.97 6547.78 4905.63 6564.86C5289.63 6467.15 5716.14 6512.04 6090.86 6626.74C6105.25 6631.14 6119.61 6642.98 6122.64 6658.52C6165.57 6878.83 6184.7 7104.77 6165.27 7328.83C6148.51 7522.25 6105.68 7711.79 6024.97 7888.86L6020.38 7898.86C5944.53 8062.96 5824.31 8265.25 5640.71 8316.69C5529.85 8347.74 5407.23 8329.43 5294.16 8323.74C5184.28 8318.21 5071.96 8317.4 4963.11 8300.12C4866.18 8284.72 4781.24 8241.24 4721.33 8162.38C4669.65 8094.34 4642.44 8012.11 4620.14 7930.31C4609.94 7933.56 4599.8 7937.01 4589.82 7940.92C4547.71 7957.38 4512.03 7983.94 4479.77 8015.2C4411.64 8081.21 4358.79 8161.39 4287.52 8224.38C4222.99 8281.4 4149.47 8325.75 4070.6 8359.85C3907.18 8430.5 3731.87 8458.73 3559 8496.18L3546.95 8498.81C3416.81 8527.38 3283.98 8562.46 3169.12 8630.25C3166.87 8650.21 3157.79 8668.99 3143.22 8681.28C3163.48 8700.32 3172.06 8730.47 3154.26 8758.75C3104.53 8837.72 3018.87 8882.64 2941.98 8933.14L2936.97 8936.44C2861.33 8986.62 2785.02 9035.81 2708.1 9083.99C2551.71 9181.96 2392.06 9274.53 2230.15 9363.04C1969.73 9505.38 1703.73 9639.66 1432.91 9761.45C1449.17 9841.47 1443.23 9923.98 1455.44 10004.5L1457.32 10016C1462.54 10045.9 1455.49 10070.9 1434.91 10090.5L1432.73 10092.5L1432.77 10092.2L1430.84 10094L1430.19 10094.5L1430.41 10094.3C1428.04 10096.5 1425.59 10098.5 1423.09 10100.3L1419.92 10102.3C1400.09 10114.4 1374.57 10114.2 1354.28 10103.6L1351.96 10102.3L1348.06 10100.1C1321.25 10084.6 1302.76 10046.4 1313.88 10016C1341.22 9941.36 1351.55 9861.69 1376.8 9786.53L1356.77 9795.49L1330.37 9807.01C1044.85 9930.54 727.703 10034.6 416.612 9950.35C279.157 9913.13 150.685 9834.4 81.9102 9706.07C14.234 9579.8 4.66832 9433.18 1.07523 9292.72C-3.3588 9119.36 5.9297 8943.35 28.7783 8771.48C44.1158 8656.11 62.6642 8538.56 91.2751 8424.38C76.5588 8411.39 65.7413 8392.75 62.884 8369.67C49.3812 8260.62 73.0135 8147.24 87.4814 8038.76C101.615 7932.83 117.229 7827.12 134.889 7721.73C170.543 7508.9 211.969 7296.52 260.198 7086.18C346.031 6711.83 459.376 6344.14 595.837 5985.23L607.787 5953.97C733.884 5625.92 879.885 5304.86 1083.19 5016.67C1180.44 4878.79 1283.24 4753.78 1420.66 4654.43C1549.4 4561.34 1694.61 4494.31 1844.47 4443.08C1994.49 4391.81 2148.69 4357.45 2305.61 4336.08C2464.98 4314.38 2633.19 4301.07 2781.86 4235.67C2763.05 4201.93 2779.19 4156.39 2810.84 4135.47C2917.35 4065.06 3015.85 3973.46 3111.31 3888.82ZM6520.98 6950.66C6525.44 6943.88 6536.04 6948.17 6534.08 6956.19C6482.28 7168.54 6433.65 7381.33 6401.89 7597.74C6344.57 7988.33 6355.11 8384.02 6359.8 8777.5L6360.04 8797.85C6362.45 9009.79 6365.79 9221.76 6372.8 9433.61C6376.33 9540.69 6383.33 9648.81 6379.52 9755.94C6377.45 9814.05 6361.97 9869.02 6356.48 9926.44C6351.68 9976.65 6355.96 10027.6 6358.36 10077.9C6359.96 10111.3 6310.65 10109.9 6307.3 10077.9L6303.01 10036.5C6297.44 9984.13 6290.55 9932.06 6273.39 9881.92C6252.76 9821.62 6242.86 9762.39 6235.7 9699.08C6224.74 9602.05 6219.86 9504.05 6215.63 9406.35L6212.74 9338.76C6195.07 8930.44 6195.69 8520.2 6224.3 8112.31L6226.39 8083.17C6254.71 7697.61 6303.86 7281.02 6520.98 6950.66ZM5416.73 4520.6C5403.2 4515.03 5407.94 4494.56 5422.92 4498.13L5450.17 4504.63C5649.84 4552.49 5845.89 4604.33 6032.26 4693.38C6218.74 4782.47 6376.63 4915.49 6502.08 5079.05C6745.95 5396.98 6847.29 5783.37 6927.3 6169.39C7016.21 6598.34 7097.16 7028.85 7186.84 7457.66L7203.5 7537.54C7286.48 7936.93 7364.83 8336.54 7422.56 8740.66L7426.71 8769.97C7484.93 9185.53 7519.94 9615.48 7456.42 10032.1C7443.85 10114.6 7306.76 10094 7312.12 10012.6C7327.6 9777.16 7338.69 9542.96 7327.97 9306.99C7317.25 9070.98 7295.13 8836 7262.15 8602.06C7234.4 8405.18 7193.03 8210.76 7156.42 8015.44L7150.68 7984.6C7120.02 7818.48 7088.42 7652.52 7056.89 7486.55L7009.76 7238.07C6939.13 6865.99 6867.12 6493.59 6785.75 6123.86L6780.92 6102.1C6701.3 5746.39 6583.9 5373.78 6345.05 5091.31C6102.66 4804.64 5755.66 4660.27 5416.73 4520.6ZM4535.97 8293.61C4541.8 8280.61 4562.19 8282.04 4568.46 8293.61C4593.03 8338.95 4595.76 8396.83 4600.4 8448.03L4600.89 8453.3C4606.79 8515.76 4612.02 8578.44 4615.22 8641.11C4621.29 8760.04 4624.19 8878.83 4623.82 8997.92C4623.44 9119.96 4620.98 9241.87 4614.41 9363.73L4612.62 9396.38C4606.62 9502.28 4596.56 9620.41 4546.26 9712.99C4527.98 9746.65 4478.26 9736.76 4467.67 9702.72C4432.99 9591.27 4450.8 9459.13 4459.7 9344.98L4466.6 9255.91C4473.45 9166.83 4479.97 9077.72 4485.14 8988.54C4492.23 8866.52 4498.08 8744.4 4503.71 8622.33C4505.54 8582.68 4507.52 8543.02 4509.61 8503.37L4512.82 8443.91C4515.56 8394.17 4515.33 8339.59 4535.97 8293.61ZM635.676 8451.56L651.032 8436.72C698.172 8390.56 757.743 8319.47 827.431 8323.88C855.22 8325.64 872.928 8348.72 867.165 8376.08C854.857 8434.55 795.237 8464.9 752.32 8500.61C705.304 8539.7 660.993 8581.5 616.767 8623.69C577.532 8661.11 539.799 8699.59 502.972 8739.26L489.203 8754.2C476.002 8768.61 381.998 8853.69 392.162 8875.76L392.715 8876.75C395.544 8880.98 390.833 8886.79 386.141 8885.31C345.546 8872.48 348.079 8837.66 363.426 8802.39C392.916 8734.62 444.557 8671.92 489.652 8614.05C534.626 8556.31 583.303 8502.55 635.676 8451.56ZM4683.07 6751.95C4651.68 6677.71 4536.04 6679.27 4470.39 6683.71C4305.07 6694.89 4126.2 6736.74 3979.1 6814.05C3826.6 6894.21 3723.88 7022.64 3631.96 7164.66L3627.66 7171.32C3538.07 7310.67 3451.79 7475.61 3311.5 7571.42C3240.05 7620.23 3156.62 7664.8 3069.93 7684.11C3063.97 7694.58 3054.33 7702.87 3041.69 7705.88L3035.81 7707.22C3011.12 7712.68 2972.76 7718.72 2939.63 7715.11C2939.85 7731.32 2939.68 7747.41 2940.09 7762.78C2941.25 7806.81 2941.75 7851.03 2941.75 7895.09C2941.77 7987.41 2936.81 8079.91 2940.66 8172.22C2944.07 8253.87 2955.6 8339.18 2994.78 8412.16C3023.51 8465.7 3061.44 8501.14 3107.22 8534.97C3219.85 8466.29 3347.21 8424.43 3476.46 8392.95C3632.78 8354.89 3792.84 8329.48 3945.6 8277.87C4019.12 8253.02 4089.81 8220.5 4153.86 8176.33C4221.83 8129.43 4273.75 8065.98 4327.16 8003.92L4335.51 7994.27C4390.03 7931.71 4449.52 7871.85 4526.56 7837.93C4592.91 7808.71 4680.36 7803.51 4738.37 7758.3C4768.7 7734.65 4771.25 7700.32 4774.44 7665.17C4737.28 7670.49 4697.95 7661.97 4660.92 7657.63L4641.73 7655.38C4606.72 7651.21 4572.51 7646.64 4538.04 7637.72C4531.64 7636.07 4531.64 7626.41 4538.04 7624.76C4578.78 7614.23 4619.15 7609.75 4660.92 7604.85L4670.73 7603.63C4708.52 7598.67 4748.24 7591.18 4785.3 7599.5C4791.95 7574.19 4801.56 7550.01 4815.03 7525.8C4833.94 7491.79 4869.73 7453.23 4874.57 7413.5C4876.01 7401.64 4873.25 7387.65 4867.66 7377.16L4865.73 7373.58C4863.38 7369.36 4860.6 7365.11 4856.52 7362.48C4856.07 7363.01 4855.12 7363.61 4853.05 7364.26C4824.52 7373.25 4799.64 7359.28 4786.43 7337.74C4730.36 7344.71 4669.18 7342.36 4616.6 7344.69L4563.44 7347.26C4506.64 7349.86 4447.25 7351.01 4393.88 7339.52C4386.42 7337.93 4384.17 7325.52 4391.63 7322.32C4457.25 7294.24 4536.85 7285.28 4607.11 7274.49C4646.35 7268.46 4685.87 7263.87 4725.22 7258.56C4751.43 7255.03 4779.23 7249.18 4806.38 7247.78C4874.45 7163 4837.77 7029.25 4743.04 6992.74C4708.54 7007.92 4677.51 6999.09 4639.81 6995.85C4602.18 6992.62 4564.45 6990.43 4526.67 6990.59C4450.95 6990.92 4370.72 7010.85 4295.74 7002.27C4283.55 7000.87 4272.22 6984.63 4284.34 6974.73C4341.74 6927.86 4423.99 6912.58 4496.84 6902.6L4511.94 6900.58C4536.37 6897.37 4566.07 6892.7 4596.88 6889.92C4603.84 6876.32 4616.34 6866.04 4635.12 6863.49C4640.7 6862.72 4646.31 6862.27 4651.91 6861.79L4651.82 6861.24C4697.62 6859.04 4695.63 6781.65 4683.07 6751.95ZM1548.01 8199.82C1547.21 8201.07 1546.32 8202.26 1545.38 8203.41L1543.92 8205.09L1551.45 8202.03L1548.01 8199.82ZM5482.17 6586.06C5289.42 6565.34 5096.4 6569.71 4903.08 6575.28C4887.62 6625.88 4833.8 6669 4781.65 6670.63C4822.49 6732.83 4826.71 6817.01 4798.07 6882.97C4858.87 6907.19 4911.26 6950.7 4943.06 7012.66C4987.17 7098.55 4981.39 7194.13 4937.81 7273.51C4975.01 7307.2 4996.96 7361.93 4994.76 7413.5C4992.31 7471.02 4958.05 7520.14 4929.58 7567.76C4898.82 7619.26 4897.79 7664.6 4888.34 7722.28C4874.51 7806.69 4817.61 7857.88 4744.4 7889.85L4748.29 7905.17C4767.17 7978.68 4790.65 8056.25 4844.6 8110C4913.99 8179.15 5021.65 8178.51 5113.33 8182.89L5117.76 8183.11C5201.71 8187.31 5285.63 8192.23 5369.56 8196.99L5432.51 8200.51C5529.14 8205.83 5621.94 8206.47 5700.82 8142.55C5829.61 8038.21 5917.9 7865.54 5973.78 7712.68C6091.08 7391.83 6092.48 7039.72 6038.64 6705.56C5858.08 6647.33 5670.73 6606.34 5482.17 6586.06ZM3879.24 7118.38L3880.66 7118.48C3920.35 7123.01 3947.61 7155.17 3957.32 7193.31C3971.42 7248.75 3964.51 7298.87 3998.44 7348.91C4033.35 7400.38 4054.81 7441.58 4059.89 7505.15C4061.97 7531.31 4061.01 7557.41 4066.83 7583.01L4071.05 7600.95C4075.53 7620.08 4079.2 7638.51 4076.97 7659.05C4074.94 7677.78 4065.82 7692.37 4047.04 7698.37C3985.85 7717.96 3938.61 7672.84 3922.8 7615.79C3909.15 7566.51 3927.38 7507.78 3908.12 7461.5C3897.44 7435.85 3877.76 7414.39 3866.63 7388.57C3855.61 7362.97 3850.08 7336.23 3848.31 7308.4C3844.96 7255.77 3891.48 7192.54 3865.52 7144.86C3860 7134.69 3866.26 7118.07 3879.24 7118.38ZM3066.47 6575.29C3107.91 6566.87 3154.91 6547.56 3195.78 6563.61C3216.78 6571.87 3227.16 6597.49 3209.41 6615.31C3178.6 6646.21 3133.82 6647.93 3092.32 6655.22L3088.67 6655.88C3039.6 6664.96 2990.44 6673.58 2941.22 6681.74C2848.61 6697.09 2755.78 6710.66 2662.63 6722.19C2566.96 6734.03 2471.01 6744.58 2374.94 6752.52L2337.74 6755.57C2256.58 6762.06 2172.14 6766.96 2092.51 6754.52C2080.93 6752.72 2082.8 6735.86 2092.51 6732.91C2179.74 6706.49 2275.44 6699.4 2365.63 6688.22C2461.51 6676.32 2557.24 6663.75 2652.71 6648.83C2748.04 6633.93 2843.23 6617.95 2938.08 6600.28C2980.95 6592.3 3023.75 6583.97 3066.47 6575.29ZM4561.57 6490.47C4525.2 6477.59 4485.2 6458.5 4445.8 6464.89C4377.86 6475.9 4317.39 6542.14 4263.61 6585.76L4290.61 6580.51C4428.79 6553.93 4611.77 6525.31 4727.76 6613.21C4728.05 6612.7 4728.28 6612.2 4728.62 6611.69C4737.98 6597.46 4748.83 6586.36 4760.67 6574.19C4761.8 6573.12 4762.89 6572.02 4763.97 6570.9L4770.36 6564.09L4755.75 6559.03C4724.45 6547.96 4687.38 6533.67 4681.52 6531.58L4681.11 6531.44C4641.22 6517.92 4601.27 6504.55 4561.57 6490.47ZM3426.29 3592.57C3420.6 3519.4 3534.42 3520 3540.06 3592.57C3552.36 3751.01 3516.72 3907.95 3440.03 4046.85C3439.46 4047.86 3438.84 4048.76 3438.25 4049.72C3486.22 4074.69 3534.74 4098.65 3584.33 4120.07C3647.78 4147.48 3712.41 4172.43 3778.21 4193.6C3837.72 4212.76 3911.05 4220.33 3961.08 4260.2C4066.59 4344.26 4026.95 4518.73 4006.66 4631.81L4003.49 4649.66C3993.38 4707.86 3986.07 4767.56 4010.59 4823.41C4036.78 4883.06 4089.73 4927.31 4136.96 4970L4146.5 4978.65C4188.35 5016.8 4236.17 5063.15 4266.86 5114.86C4294.88 5056.89 4333.07 5009.53 4373.46 4956.2C4402.27 4918.15 4381.76 4905.6 4361.06 4868.42C4341.14 4832.64 4331.41 4794.5 4337.64 4753.68C4349.14 4678.3 4409.35 4623.85 4469.29 4582.93C4540.07 4534.64 4619.07 4498.86 4692.24 4453.93C4842.59 4361.62 4989.02 4256.08 5120.94 4138.86C5124.59 4135.62 5130.89 4139.86 5127.98 4144.29C5023.77 4302.89 4901.57 4439.94 4751.4 4556.27C4690.51 4603.43 4626.54 4642.56 4562.14 4683.69L4543.63 4695.58C4517.78 4712.34 4485.52 4734.73 4473.83 4763.27C4462.07 4791.96 4487.16 4813.63 4500.66 4837.4C4543.54 4912.88 4522.85 4983.31 4472.02 5047.33L4469.65 5050.28C4419.13 5112.56 4380.85 5170.49 4362.54 5250.06C4323.2 5420.99 4378 5599.04 4435.36 5759.51L4437.63 5765.83C4468.65 5852.33 4501.63 5938.19 4528.59 6026.07L4536.01 6050.37C4560.43 6131.23 4580.43 6210.98 4553.03 6294.11C4543.72 6322.38 4505.18 6329.06 4489.17 6302.45C4432.7 6208.62 4418.63 6095.69 4383.23 5992.52C4348.74 5891.97 4309.13 5793.24 4275.8 5692.28C4232.9 5562.29 4204.18 5422.36 4219.77 5286.01C4219.31 5285.22 4218.8 5284.47 4218.42 5283.63L4207.5 5259.72C4177.71 5194.99 4148.95 5138.46 4094.78 5086.87C4038.29 5033.05 3976.96 4985.4 3932.51 4920.25C3835.95 4778.72 3895.67 4621.29 3907.33 4466.55L3908.67 4447.57C3910.78 4415.44 3911.95 4371.78 3890.97 4349.54C3867.38 4324.51 3812.05 4318.12 3780.74 4307.04C3699.84 4278.39 3620.11 4245.01 3544.18 4204.93C3471.9 4166.78 3401.88 4124.63 3336.69 4075.26L3303.65 4050.38C3251.51 4011.03 3197.45 3968.04 3162.51 3914.47C3158.48 3908.3 3165.33 3898.35 3172.63 3901.3C3230.96 3924.99 3284.25 3962.66 3338.83 3995.44C3339.68 3993.44 3340.66 3991.42 3341.78 3989.39C3409.3 3867.12 3437.07 3731.65 3426.29 3592.57ZM5289.57 4430.32C5312.81 4366.55 5418.72 4371.48 5414.5 4447.25C5411.26 4505.45 5386.56 4557.99 5363.98 4610.84L5361.57 4616.51C5338.25 4671.57 5311.32 4723.27 5279.1 4773.74C5217.53 4870.21 5145.41 4959.75 5068.38 5044.25C4998.54 5120.85 4906.88 5167.7 4801.26 5159.91C4756.76 5156.63 4711.83 5145.3 4672.83 5123.06C4626.52 5096.63 4576.21 5017.28 4517.12 5036.5C4511.4 5038.36 4506.07 5029.98 4511.01 5026.01C4579.23 4971.04 4656.66 5056.27 4721.98 5076.81C4820.4 5107.75 4921.4 5073.54 4984.74 4993.93C5050.88 4910.81 5111.75 4817.75 5167.34 4727.25C5195.57 4681.3 5221.33 4633.6 5243.57 4584.45C5266.02 4534.83 5271.12 4480.91 5289.57 4430.32ZM5130.92 4037.89C5128.05 4029.08 5138.99 4020.71 5146.72 4025.73C5191.55 4054.94 5230.39 4093.52 5271.74 4127.34C5317.62 4164.86 5363.83 4201.61 5410.76 4237.8C5479.17 4290.57 5399.83 4387.72 5339.61 4330.07C5257.2 4251.22 5166.94 4148.1 5130.92 4037.89ZM4884.8 3729.24C4903.01 3658.98 5010.73 3687.95 4995.03 3757.4L4994.52 3759.51C4964.79 3874.22 5007.13 3991 5097.52 4065.37L5100.85 4068.07C5158.03 4113.86 5077.01 4193.91 5020.39 4148.56C4896.79 4049.58 4845.36 3881.43 4884.8 3729.24Z" fill="black"/>
<path fill-rule="evenodd" clip-rule="evenodd" d="M4123.92 67.3862C4515.61 67.3862 4985.57 257.168 5025.53 260.964L5026.61 261.022C5047.63 261.022 5129.77 323.569 5273.04 448.662L5117.86 751.148L5130.42 763.132C5190.51 820.714 5266.51 775.127 5307 816.5C5637.63 1154.31 5504.5 2356 5504.5 2895C5426.58 3357.54 5244.89 3851 4573 3851C3901.11 3851 3281.15 3515.74 3166 3390C3089.24 3306.17 3002.81 3302.94 2907.12 3306.45C2903.19 3301.49 2899.29 3296.54 2895.42 3291.61L2881.34 3289.62C2748.91 3270.45 2654.02 3244.65 2596.67 3212.22C2484.66 3148.89 2361.55 2815.93 2361.55 2742.58C2361.55 2669.97 2177.72 2141.73 2174.04 2085.83L2173.98 2084.28C2173.98 2037.55 1933.82 1822.73 1933.82 1754.51C1933.82 1686.29 1885.41 1690.43 1933.82 1450.03L1947.89 1379.41C1999.4 1123.45 2212.24 632.828 2596.67 448.662C3019.13 246.283 3728.27 67.3862 4123.92 67.3862Z" fill="white"/>
<path fill-rule="evenodd" clip-rule="evenodd" d="M2421.38 507.668C2632.79 283.401 3832.99 -63.4886 4440.2 10.0436L4458.41 12.4011C4506.87 18.5426 4554.63 27.8426 4601.76 40.4765C4754.1 76.0357 4911.46 129.879 5037.33 219.817C5142.42 293.392 5473.92 413.546 5376.21 606.02C5412.44 674.62 5489.98 703.935 5465.5 771.5C5462.42 794.838 5503.21 854.487 5494 876.772C5571.4 990.925 5518.5 1190.5 5539.5 1445.5C5563.65 1738.7 5571.32 2001.69 5593 2340.5C5626.69 2867 5622.64 3461.81 4959.5 3825.5C4624 4009.5 4028.5 3871.62 3989.5 3825.5C3969.39 3801.71 3879.09 3769.18 3910.64 3757.92C3920.04 3767.83 3929.69 3777.49 3939.52 3786.96C3939.08 3785.91 3938.99 3784.86 3939.17 3783.71L3929.93 3775.35C3912.51 3759.24 3889.95 3735.89 3915.65 3740.46C3916.78 3741.78 3918.02 3742.92 3919.24 3744.23C3924.68 3747.5 3928.79 3750.33 3931.99 3752.82L3933.64 3754.14L3933.13 3753.61C3918.33 3737.83 3909.45 3721.74 3931.58 3732.02L3934.51 3733.44C3944.35 3743.8 3954.35 3753.71 3964.53 3763.36C3964.37 3762.22 3964.53 3761.08 3965.16 3759.85L3955.66 3750.68C3946.4 3741.61 3947.81 3741.57 3952.34 3734.23C3932.64 3706.64 3931.93 3722.68 3934.51 3733.44C3957.52 3728 4013.28 3728.08 4028.5 3732.02C4802.5 3932.5 5515 3681 5472 2474.5V2367C5423 1920.5 5432.51 1634 5381.99 1260.5C5364.09 1221.72 5342.92 1034.08 5320.89 997.584C5305.7 970.21 5289.46 943.539 5272 917.569C5223.09 913.621 5174.81 904.672 5127.24 890.81C5110.9 886.686 5094.75 882.124 5078.61 876.772C4842.64 889.634 4611.94 903.628 4375.32 916.893L4301.41 921.494C4100.96 934.374 3893.66 955.002 3731.91 1078.91C3573.19 1191.73 3572.47 1414.18 3436.61 1538.04C3242.87 1669.45 3241.46 1787.96 3204.15 1981.63C3206.92 2127.62 3308.2 2339.74 3122.34 2401.18C3153.69 2445.86 3109.99 2424.39 3106.54 2408.72C3106.19 2408.81 3105.84 2408.9 3105.58 2408.9C3133.52 2460.81 3092.45 2428.12 3088.81 2411.44C3086.62 2410.83 3084.42 2409.25 3082.23 2407.06C3110.38 2452.54 3064.87 2420.69 3067.57 2412.41C3013.17 2328.84 2901.21 2315.86 2822.29 2338.01C2821.33 2340.99 2817.82 2341.25 2815.63 2339.68C2480.06 2412.36 2566.64 3106.66 2910.52 3039.54C2925.24 3036.54 2924.89 3043.6 2927.82 3044.28C2919.87 3023.43 2942.27 3031.92 2942.03 3036.3L2943.39 3036.23C2944.47 3036.13 2944.03 3036.02 2944.84 3036.3C2937.16 2993.66 2980.38 3055.43 2976.97 3057.97C2978.29 3057.18 2979.78 3056.74 2981.1 3056.56L2979.61 3052.52C2972.44 3033.42 2973.05 3041.35 2973.1 3030.42C2967.71 3016.9 2967.32 3022.81 2968.58 3014C2987.53 2999.33 2993.12 3043.83 2999.44 3047.09C2988.61 3032 2997.22 3019.67 3007.44 3027.86C3084.89 3190.68 3184.94 3343.67 3314.23 3464.18C3328.37 3475.32 3342.68 3486.29 3357.51 3496.64C3412.51 3544.52 3496.87 3575.31 3548.35 3617.72C3548.35 3618.42 3548.01 3619.3 3547.48 3620.18L3548.66 3621.24L3549.85 3622.37L3567.76 3630.97C3573.03 3635.44 3577.77 3640.44 3581.97 3645.97C3586.46 3651.15 3590.4 3656.85 3593.74 3662.9C3595.41 3670.27 3591.73 3673.34 3584.7 3670.19C3581.62 3669.13 3578.56 3667.9 3575.49 3666.76C3575.66 3667.03 3575.74 3667.2 3575.92 3667.38C3576.93 3668.9 3583.75 3684.7 3575.89 3682.13L3574.96 3681.77C3570.65 3680.19 3566.36 3678.43 3562.14 3676.77C3567.15 3682.99 3571.7 3689.75 3575.74 3695.45C3580.05 3699.93 3582.67 3705.19 3583.74 3711.16C3583.55 3714.49 3581.72 3715.9 3578.38 3715.46C3573.29 3713.79 3568.29 3712.03 3563.27 3710.19L3564.7 3712.91C3568.24 3719.87 3573.27 3731.55 3564.34 3727.65C3556.69 3725.28 3549.33 3722.56 3541.95 3719.58C3541.33 3720.81 3540.11 3721.25 3537.65 3720.11C3514.21 3711.77 3491.56 3701.59 3469.88 3689.57C3450.83 3675.71 3431.6 3662.11 3412.47 3648.34C3394.47 3637.55 3377.08 3625.53 3360.5 3612.02C3249.49 3540.35 3152.31 3449.32 3075.21 3347.93C2946.26 3459.54 2688.45 3352.92 2528.97 3265.55C2387.91 3187.46 2332.47 3043.09 2318.13 2887.43C2288.33 2677.86 2116.97 2606.13 2128.9 2146.31C2128.63 2146.39 2128.36 2146.39 2128.01 2146.39C2121.78 2144.55 2115.73 2142.09 2110.02 2138.94C2104.14 2136.13 2098.61 2132.79 2093.42 2128.76L2087.01 2119.9C2083.69 2118.06 2080.7 2116.12 2078.42 2114.19L2077.24 2115.72C2073.49 2120.24 2076.01 2113.44 2076.23 2112.09L2065.09 2096.96C2038.7 2060.94 2009.74 2020.53 1986.15 1988.21L1985.41 1989.52C1984.87 1990.51 1984.59 1991.23 1984.84 1991.54C1928.7 1910.93 1875.91 1813.56 1861.24 1719.3C1843.92 1646.69 1850.69 1571.87 1865.8 1504.61C1930.57 1269.08 2142.77 736.106 2421.38 507.668ZM3944.85 3764.88L3941.33 3761.75L3944.43 3765.62C3946.05 3767.62 3947.71 3769.42 3950.41 3771.26C3950.23 3770.64 3950.23 3770.03 3950.31 3769.33C3948.52 3767.96 3946.69 3766.46 3944.85 3764.88ZM4437.51 128.388C4025.74 93.0038 3620.73 183.67 3227.79 293.418L3200.68 301.205C2977.26 364.923 2741 422.26 2552.19 558.643C2288.39 760.584 2152.17 1081.84 2033.29 1378.44C1929.49 1598.82 1982.55 1847.31 2138.98 2001.19C2155.26 1848.28 2183.01 1699.84 2226.37 1552.59C2235.42 1529.59 2228.57 1522.05 2248.08 1519.05C2277.54 1915.86 2132.44 2209.04 2419.58 2679.32C2544.17 2901.22 2399.95 3063.58 2751.78 3180.35L2761.3 3183.98C2834.61 3211.63 2914.65 3233.45 2986.45 3218L2980.02 3207.54C2973.46 3196.77 2971.46 3191.54 2981 3186.94C2980.75 3186.41 2980.4 3185.88 2980.04 3185.27C2972.32 3170.71 2964.86 3155.97 2957.74 3141.05C2954.85 3142.02 2951.96 3142.72 2948.96 3143.51C2950.9 3147.11 2951.16 3150.7 2945.72 3151.93C2926.38 3158.56 2906.52 3161.22 2886.18 3159.98L2881.82 3159.65C2858.84 3158.25 2844.37 3154.06 2831.42 3150.18C2827.13 3149.47 2822.83 3148.77 2818.6 3147.9C2776.95 3138.67 2732.86 3115.19 2704.32 3091.92C2379.01 2907.25 2412.63 2278.64 2813.61 2219.21C2821.83 1823.42 3010.19 1155.68 3322.79 778.534C3605.35 431.619 4376.74 281.258 4913.42 334.277C4921.24 336.865 4929.06 339.479 4936.88 342.12C5019.68 349.472 5098.59 386.339 5181.45 403.465C5121.96 358.904 5054.47 329.223 4984.95 303.999C4846.45 219.325 4687.66 173.51 4534.26 141.197C4502.48 133.388 4470.27 129.089 4437.51 128.388ZM2795.26 2537.17C2816.82 2525.46 2814.35 2536.76 2819.31 2533.48C2974.39 2520.84 3141.61 2656.54 3228.29 2769.67C3221.45 2776.77 3202.92 2755.72 3199.68 2752.38C3199.24 2752.82 3198.71 2753.17 3198.18 2753.35L3200.6 2756.75C3235.73 2807.15 3166.08 2747.85 3159.56 2735.62C3158.42 2736.24 3157.28 2736.59 3155.96 2736.33C3161.48 2741.74 3178.35 2755.86 3181.24 2765.89L3185.71 2769.61C3227.87 2805.69 3224.37 2832.83 3176.51 2781.6C3177.64 2783.97 3178.08 2786.16 3177.29 2787.92L3178.94 2789.01C3202.47 2805.45 3221.83 2851.27 3172.64 2804.23C3177.76 2838.59 3123.89 2772.18 3122.16 2772.65C3028.95 2699.52 2891.72 2628.4 2774.8 2618.85L2770.78 2618.39C2749.32 2615.63 2739.18 2609.27 2746.71 2595.25C2720.29 2588.97 2726.48 2575.96 2738.99 2576.38C2720.35 2564.14 2737.13 2552.42 2747.94 2557C2740.51 2536.42 2770.33 2550.13 2773.05 2547.26C2788.52 2523.4 2792.69 2543.3 2795.26 2537.17ZM2470.19 1261.93C2544.68 1234.66 2764.69 1316.29 2747.09 1424.4C2736.61 1449.22 2702.08 1463.44 2677.8 1449.43L2646.12 1428.17C2590.99 1391.26 2541.27 1358.91 2482.08 1326.72C2449.86 1310.75 2435.99 1276.83 2470.19 1261.93ZM2893.97 1101.28L2865.2 1082.57C2709.97 981.025 2490.51 827.165 2879.7 986.351C2924.06 1005.36 2983 1016.61 3007.2 1058.83C3045.22 1136.64 2945.17 1141.87 2893.97 1101.28ZM2911.41 645.674C2898.96 598.428 3053.96 653.868 3099.08 668.485L3105.95 671.079C3149.84 687.425 3200.16 702.589 3226.41 740.446C3257.17 792.754 3194.91 803.589 3156.35 779.962C3077.28 728.321 2990.59 689.357 2911.41 645.674ZM3305.57 425.59C3218.32 330.367 3451.81 421.587 3486.79 446.909L3487.79 447.656C3513.89 466.019 3508.59 505.57 3484.07 517.186C3414.31 518.511 3362.98 460.395 3305.57 425.59ZM3702.58 321.262C3563.88 221.638 3746.58 269.024 3810.04 308.067C3853.29 346.188 3808.74 410.542 3702.58 321.262Z" fill="black"/>
<path fill-rule="evenodd" clip-rule="evenodd" d="M4536.07 3292.26C4476.3 3267.87 4422.98 3227.19 4383.99 3175.22C4370.44 3157.15 4366.92 3138.07 4369.76 3120.62C4372.96 3101 4384.57 3083.22 4400.39 3071.29C4416.27 3059.32 4436.12 3053.42 4455.32 3056.43C4472 3059.04 4488.61 3068.18 4501.75 3087.13L4504.5 3090.92C4527.68 3122.29 4557.88 3148.02 4592.3 3164.61C4625.47 3180.6 4662.57 3188.06 4700.96 3183.72C4774.08 3175.46 4824.47 3135.91 4878.04 3082.19C4884.68 3075.41 4891.32 3068.42 4898 3061.31C4902.21 3054.87 4908.06 3050.73 4914.56 3048.55C4921.77 3046.14 4929.93 3046.28 4937.41 3048.89C4944.61 3051.4 4951.06 3056.17 4955.38 3062.52C4959.48 3068.55 4961.81 3076 4961.06 3084.57C4956.15 3140.24 4927.06 3189.92 4885.73 3228.93C4839.83 3272.25 4778.99 3302.23 4721.71 3312.74C4658.6 3324.32 4594.3 3316.02 4536.07 3292.26ZM4751.48 2433.49C4818.62 2474.31 4920.92 2569.5 4848.69 2670.7C4763.67 2759.94 4641.27 2657.62 4580.95 2611.35C4525.02 2575.49 4462.18 2667.72 4514.07 2709.6C4949.94 3032.4 5126.82 2444.16 4785.44 2385.49C4747.85 2379.02 4733.89 2420.86 4751.48 2433.49ZM3970.4 2057.99C3977.82 1965.88 4118.05 1944.96 4132 2036.11C4144.5 2117.75 4129.79 2192.75 4093.03 2266.26C4057.9 2336.48 3969.61 2303.72 3962.93 2239.78C3953.98 2154.06 3965.79 2115.28 3970.4 2057.99ZM5037.88 2017.21C5057.43 1991.6 5085.66 1974.11 5119.48 1983.99C5225.15 2014.88 5194.01 2164.94 5156.9 2237.99C5136.73 2277.65 5071.55 2287.71 5042.1 2252.79C4994.08 2195.83 4971.09 2082.09 5032.13 2025.99C5033.78 2023.09 5035.62 2020.16 5037.88 2017.21ZM4091.54 1654.96L4108.23 1652.04C4159.87 1643.1 4224.07 1634.52 4260.6 1676.05C4279.97 1698.07 4286.64 1739 4260.6 1760.07C4214.79 1797.16 4164.15 1782.79 4109.26 1785.93C4064.02 1788.52 4020.54 1796.01 3976.97 1808.47C3881.37 1835.8 3803.48 1885.7 3721.83 1940.48C3711.12 1947.67 3700.18 1933.96 3705.3 1923.94C3752.43 1831.6 3843.76 1755.74 3935.25 1709.5C3984.08 1684.82 4037.52 1664.35 4091.54 1654.96ZM4941.56 1613.59L4954.33 1616.21C5093.36 1645.28 5273.99 1703.35 5339.83 1839.95C5342.34 1859.27 5339.69 1863.41 5337.53 1866.11L5336.82 1867.01C5335.04 1869.32 5333.62 1872.51 5325.25 1875.13C5322.93 1874.58 5320.58 1873.99 5318.21 1873.37C5288.03 1865.46 5264.16 1854.56 5241.04 1843.25L5215.98 1830.9C5186.9 1816.64 5157.57 1802.9 5126.48 1792.75C5060.13 1771.11 4991.89 1755.86 4922.59 1747.71C4907.57 1745.95 4893.11 1740.88 4881.7 1732.19C4870.87 1723.94 4862.59 1712.52 4858.82 1697.34C4853.93 1677.69 4855.33 1662.82 4865.87 1645.09C4873.8 1631.78 4885.13 1622.56 4898.15 1617.26C4911.43 1611.86 4926.54 1610.58 4941.56 1613.59Z" fill="black"/>
</svg>
