<svg width="8467" height="10420" viewBox="0 0 8467 10420" fill="none" xmlns="http://www.w3.org/2000/svg">
<path fill-rule="evenodd" clip-rule="evenodd" d="M7689.47 3946.89C7589.33 3670.91 7664.55 3321.51 7458.15 3093.15C7397.1 3056.02 7364.72 3076.68 7339.59 3141.42C7324.42 3226.61 7288.88 3519.93 7416.7 3519.79C7432.79 3702.98 7422.73 3887.5 7383.36 4067.29C7289.03 4052.14 7220.25 4100.65 7151.43 4136.73C7100.11 4163.63 7048.78 4183.62 6986.81 4165.16C6730.97 4120.04 6658.05 4388.86 6654.95 4608.28C6651.19 4715.34 6641.14 4964.91 6594 5068.8C6380.69 4626.75 5932.68 4425.5 5505.8 4326.13C5438.88 4307.61 5381.78 4282.3 5338.86 4239.05C4979.2 4096.95 5151.99 3631.42 4986.52 3363.86C4727.52 3045.79 4416.48 2954.26 4024.63 3008.77C3681.79 3046.71 3448.74 3395.17 3469.88 3724.1C3476.22 3791.21 3435.96 3861.81 3412.27 3930.88C3175.62 4214.21 2807.39 4340.98 2490.67 4512.19C1434.3 5028.79 1068.21 5423.57 657.695 6522.84C465.652 6936.43 235.824 7337.83 159.496 7793.33C69.8033 8330.09 69.5218 8879.56 100.746 9421.61C42.4518 9428.61 105.89 9845.3 157.021 9989.64C174.541 10039.1 216.519 10074.8 268.825 10074C374.038 10125.1 621.065 10331.3 731.112 10324.5C1086.67 10302.6 1432.29 10336.4 1774.85 10318.9C2145.45 10300 2512.49 10230.8 2884.68 10239.8C3533.73 10255.4 3069.04 10294 3740.55 10324.5C4164.46 10344 5710.99 10112.4 6133.7 10150.2C6477.52 10222.6 6634.38 10100.6 6581.93 9741.17C6562.54 9603.4 6500.61 9297.02 6704.32 9284.01C6800.68 9295.2 6880.45 9391.55 6952.65 9447.85C7590.31 9922.87 8241.75 9580.83 8293.09 8799.91C8389.73 8144.94 8525.23 7990.21 8230.67 7336.15C7298.71 4901.29 8702.81 5232.1 7754.79 4091.64C7680.76 4156.14 7699.58 3984 7689.47 3946.89Z" fill="white"/>
<path fill-rule="evenodd" clip-rule="evenodd" d="M7335.31 3074.92C7386.17 3024.9 7467.02 3037.34 7516.61 3081.81C7567.09 3126.97 7597.47 3197.96 7623.38 3259.16C7739.66 3534.29 7712.58 3835.53 7771.4 4123.39C7879.04 4181.56 7976.2 4257.5 8045.01 4359.67C8149.54 4514.86 8199.14 4695.61 8146.73 4879.53C8119.65 4974.71 8073.64 5062.89 8040.84 5156.02C8005.8 5255.18 7984.35 5358.22 7974.06 5462.92C7963.96 5565.67 7962.61 5668.99 7965.52 5772.13C7967.07 5825.55 7969.88 5878.87 7972.7 5932.18C7975.22 5979.97 7983.69 6029.83 7972.26 6076.65L7970.86 6082.04C7975.32 6081.35 7979.69 6080.48 7984.06 6079.51C8021.53 6071.15 8054.52 6058.14 8093.64 6063.29C8124.11 6067.27 8139.93 6092.71 8127.02 6121.46C8121.4 6133.99 8113.92 6144.48 8104.9 6153.41C8183.51 6735.15 8320.85 7307.54 8411.22 7887.43C8452.18 8150.52 8477.12 8414.39 8463.05 8680.77L8461.57 8707.19C8447.22 8951.76 8411.97 9221.28 8287.76 9435.17C8229.71 9535.31 8149.93 9624.16 8053.26 9688.16C8008.99 9717.49 7961.54 9740.41 7910 9751.87C7642.89 9858.31 7360.45 9832.18 7108.58 9691.47C6995.31 9628.24 6882.33 9554.53 6789.83 9463.04C6744.89 9418.56 6701.52 9361.94 6674.91 9300.08C6675.01 9313.97 6672.5 9328.17 6675.3 9341.85L6680.9 9368.91C6722.85 9569.94 6882.73 10312.9 6884.85 10375.3C6886.01 10408.9 6602.92 10408.1 6572.2 10409.1L6571.35 10409.2C6112.87 10428.3 5654.11 10418.1 5195.88 10399.1L5159.71 10397.6C4715.32 10378.8 4231.74 10353.5 3786.88 10340.5L3787.8 10333.1C3793.12 10293.1 3819.04 10115.3 3821.93 10101.7L3822.03 10101.2C3834.64 10050.3 3858.96 9892.21 3846.16 9839.75C3813.19 9704.62 3664.59 9735.49 3560.03 9749.81L3538.01 9752.69C3521.09 9755.03 3479.91 9761.08 3480.29 9761.49C3469.19 9749.91 3495.61 9717.05 3502.12 9708.27L3507.33 9701.03C3535.42 9661.69 3560.83 9620.83 3558.06 9570.15C3551.3 9446.34 3374.49 9453.33 3287.6 9461.91C3281.47 9462.51 3278.97 9472.08 3286.03 9473.52L3303.17 9477.1C3358.29 9488.93 3480.73 9519.11 3477.96 9564.74C3476.39 9590.67 3448.8 9609.79 3431.94 9626.12C3413.35 9644.14 3394.88 9663.53 3381.16 9685.64C3354.76 9728.21 3348.77 9785.63 3374.88 9829.95C3405.02 9881.06 3458.46 9887.03 3511.98 9882.37L3515.01 9882.1C3526.79 9880.99 3538.57 9879.86 3550.35 9878.72L3621.01 9871.8C3638.51 9870.1 3694.74 9855.36 3711.16 9865.52C3734.43 9879.92 3706.44 9943.8 3701.19 9964.83L3700.91 9966.33C3696.4 9996.8 3693.7 10316 3693.24 10337C3346.55 10329 2999.82 10251.9 2653.14 10270C2377.72 10284.4 2103.05 10309.3 1828.15 10330.9L1821.21 10271.8C1745.02 9628.86 1625.55 8780.48 1682.89 8144.52C1687.37 8094.74 1609.7 8095.04 1605.24 8144.52C1545.96 8802.14 1675.73 9685.51 1751.21 10336.8C1634.18 10345.7 1517.11 10353.8 1399.9 10359.9L1370.01 10361.5C971.167 10381.4 559.504 10382.6 169.181 10291.1C157.146 10288.2 153.069 10276.2 155.593 10266.2C151.71 10268.4 145.887 10267.2 144.237 10261.7C98.7669 10111.8 75.6716 9729.91 55.0656 9564.66L53.6799 9553.86C32.5209 9393.31 20.3884 9230.94 11.653 9069.43C-6.0119 8746.32 -3.87657 8422.83 20.0002 8100.11C95.9981 7070.77 398.631 6030.85 1033.79 5203.61C1187.34 5003.65 1362.14 4820.68 1571.89 4679.18C1777.66 4540.32 2008.47 4442.51 2242.67 4363.08C2397.48 4310.53 2554.72 4265.56 2711.96 4220.7C2717.91 4217.72 2723.86 4214.78 2729.84 4211.89L2738.84 4207.6C2794.75 4181.07 2849.78 4152.04 2907.05 4128.44L2919.7 4123.29C3002.68 4089.98 3099.37 4060.51 3189.2 4061.52C3334.69 3988.2 3456.89 3877.4 3445.05 3699.67C3440.2 3626.64 3554.73 3626.73 3558.8 3699.67C3569.48 3893.71 3450.01 4031.32 3297.71 4123.68L3298.44 4124.42L3299.17 4125.23C3322.95 4152.23 3348.38 4177.29 3375.85 4200.59C3540.27 4340.64 3748.26 4456.89 3956.17 4533.41C4200.08 4623.24 4443.8 4650.15 4696.05 4577.51C4827.96 4539.53 4952.49 4480.97 5066.92 4405.22C5101.86 4382.1 5135.35 4357.35 5167.47 4330.83C5137.09 4289.26 5112.83 4244.49 5092.45 4197C5051.5 4101.44 5017.61 3971.98 5059.45 3871.08C5069.74 3846.22 5110.6 3830.87 5124.87 3862.53C5164.17 3949.16 5180.58 4042.78 5226.39 4127.47C5243.86 4159.71 5263.95 4190.3 5286.47 4219.14C5286.47 4220.7 5458.46 4250.12 5458.46 4250.12C5666.36 4250.03 5862.13 4329.95 6046.06 4429.79C6154.78 4488.82 6261.63 4551.59 6368.17 4614.45L6576.4 4737.36C6591.73 4746.39 6608.91 4755.13 6626.09 4764.46C6606 4665.2 6596.2 4564 6602.8 4463.68C6612.79 4312.37 6671.61 4146.9 6827.39 4092.99C6901.06 4067.45 6986.28 4075.31 7057.81 4103.67C7090.81 4116.78 7126.73 4134.17 7157.4 4157.38C7172.26 4090.56 7234.85 4040.45 7297.74 4018.32C7318.13 4011.12 7339 4006.55 7360.15 4004.32C7359.53 3993.6 7359.47 3982.75 7359.62 3971.58L7359.77 3963.14C7360.74 3913.61 7360.35 3864.08 7359.28 3814.65C7357.34 3720.94 7352.88 3629.16 7343.36 3535.73C7335.42 3458.39 7321.62 3381.94 7311.38 3304.91L7307.14 3271.8C7298.5 3206.57 7284 3125.33 7335.31 3074.92ZM1081.3 9399.02L1063.95 9388.71C1007.11 9355.15 948.563 9324.21 879.708 9339.74C814.115 9354.53 767.585 9407.82 743.135 9467.87C731.585 9496.24 725.558 9524.85 721.103 9555.07C718.598 9571.99 716.91 9589.05 713.94 9605.9L712.946 9611.12C711.601 9617.83 709.543 9627.17 707.669 9635.28C689.772 9627.39 671.748 9614.89 657.101 9607.47L645.289 9601.53C617.568 9587.72 588.726 9574.58 558.518 9568.19C493.08 9554.35 420.489 9574.37 383.082 9633.03C351.088 9683.18 351.742 9742.3 363.981 9798.52L364.854 9802.44C370.163 9825.76 397.602 9919.18 437.513 9905.55C476.327 9892.3 481.51 9840.67 484.451 9806.27L484.67 9802.99C485.994 9777.05 480.854 9722.55 510.211 9712.7C546.89 9700.4 617.462 9756.59 649.404 9771.27C706.524 9797.51 769.273 9805.26 815.755 9754.2C857.431 9708.42 860.946 9641.4 871.733 9583.34L874.518 9568.72C880.24 9539.22 891.311 9492.09 923.938 9493.29C950.601 9494.28 979.874 9521.91 1001.85 9535.03C1026.1 9549.52 1051.29 9561.6 1077.61 9571.89C1139.04 9595.92 1207.34 9603.59 1272.69 9596.5C1310.56 9592.4 1335.21 9574.31 1348.59 9538.69C1353.13 9528.23 1356.58 9517.44 1358.97 9506.28C1380.19 9426.52 1264.26 9369.58 1221.51 9440.94C1172.2 9439.06 1126.29 9425.78 1081.3 9399.02ZM8216.12 8865.64C8180.77 8840.41 8132.76 8845.84 8101.17 8874.26L8099.29 8876.03C8090.53 8884.49 8070.78 8906.52 8058 8925.88L8053.99 8922.77C8053.35 8922.27 8052.73 8921.77 8052.13 8921.28L8050.4 8919.85C8024.27 8897.76 7996.96 8877.51 7963.34 8868.49C7875.74 8844.93 7796.12 8903.61 7757.87 8978.86C7739.73 9014.55 7731.96 9051.4 7722.92 9089.89L7722.15 9093.44C7718.5 9111.38 7713.76 9147.74 7698.04 9156.62C7692.26 9159.88 7679.16 9153.44 7666.19 9145.95C7636.62 9128.87 7610.07 9107.11 7581.09 9089.12C7513.09 9046.89 7435.82 9029.45 7359.46 9059.88C7283.86 9090 7229.7 9161.08 7228.43 9243.92C7227.48 9304.98 7268.35 9411.52 7345.25 9404.08C7360.65 9402.59 7380.48 9393.1 7382.97 9375.34C7389.6 9328.2 7352.45 9270.29 7395.06 9231.35C7436.26 9193.71 7478.95 9225.37 7516.25 9251.47L7542.97 9270.24C7586.38 9300.41 7631.08 9328.03 7686.04 9331.32C7755.58 9335.48 7819.77 9297.06 7854.76 9237.83C7886.39 9184.3 7886.86 9123.75 7911.59 9068.77C7917 9056.76 7930.93 9045.69 7926.3 9040.16C7945.04 9049.93 7969.22 9078.07 7980.89 9085.95C8039.03 9125.2 8116.76 9124.91 8167.72 9072.88C8188.03 9052.17 8200.96 9026.61 8215.99 9002.23C8221.43 8993.41 8228.21 8985.25 8233.17 8976.18C8234.99 8972.85 8237.97 8960.46 8240.42 8949.42L8244.19 8931.87L8244.58 8929.01C8247.8 8902.45 8238.43 8881.55 8216.12 8865.64ZM5976.8 8633.8C5910.01 8598.72 5827.68 8612.06 5767.51 8654.58C5700.04 8702.25 5666.93 8775.49 5644.42 8852.89C5628.03 8909.25 5620.18 8986.96 5573.1 9027.77C5518.3 9075.26 5426.43 9024.84 5368.58 9006.12C5298.59 8983.48 5214.49 8974.21 5146.2 9007.7C5079.28 9040.54 5047.02 9107.5 5040.11 9179.24C5033.66 9246.19 5043.25 9334.36 5081.42 9390.39C5085.18 9395.91 5092.35 9394.49 5094.73 9388.64C5119.82 9326.83 5114.98 9256.11 5135.36 9192.14C5157.11 9123.85 5208.08 9109.4 5272.8 9127.78C5340.31 9146.93 5402.13 9182.78 5471.55 9195.55C5545.57 9209.15 5618.86 9195.13 5677.21 9146.18C5726.31 9105 5756.04 9045.02 5776.13 8985.27C5795.7 8927.01 5798.9 8849.01 5840.59 8800.65C5851.12 8788.44 5869.45 8773.7 5886.47 8772.14C5911.77 8769.81 5920.91 8788.61 5941.34 8803.03C5995.24 8841.08 6081.27 8841.85 6114.27 8774.91C6125.08 8753 6130.43 8721.88 6114.27 8700.43C6085.94 8662.83 6062.68 8663.14 6025.29 8671.27C6024.1 8670.27 6022.77 8668.98 6021.28 8667.23L6020.14 8665.84C6010.25 8653.3 5991.04 8641.29 5976.8 8633.8ZM3331.56 8238.76C3329.34 8188.45 3268.81 8140.16 3221.05 8175.32C3213.35 8180.91 3205.77 8186.67 3198.33 8192.63L3195.29 8195.93C3186.4 8195.89 3178.12 8193.56 3169.34 8190.76L3153.99 8185.83C3113.7 8173.05 3074.95 8162.74 3031.94 8172.18C2957.94 8188.44 2910.98 8252.32 2886.87 8320.14C2864.4 8383.33 2871.77 8447.81 2861.23 8512.6C2851.24 8574.04 2819.69 8598.02 2760.45 8584.86L2757.41 8584.16C2639.57 8555.93 2505.31 8476.96 2402 8585.22C2290.39 8702.15 2363.39 8887.88 2485.56 8963.02C2490.9 8966.3 2496.8 8960.9 2495.59 8955.31C2479.36 8879.77 2432.01 8807.73 2447.88 8727.55C2458.87 8671.98 2497.46 8645.68 2552.54 8654.54C2668.37 8673.18 2776.7 8765.54 2895.51 8698.51C2954.85 8665.01 2987.55 8602.1 3002.33 8537.65C3015.65 8479.64 3011.87 8414.23 3037.39 8359.52C3065.3 8299.65 3112.32 8343.06 3162.98 8351.22C3234.66 8362.79 3335.37 8325.18 3331.56 8238.76ZM7217.61 6449.56C7217.84 6399.56 7140.2 6399.5 7139.96 6449.56C7137.1 7082.96 6840.95 7668.44 6787.75 8295.55C6783.54 8345.37 6861.21 8345.09 6865.4 8295.55C6918.62 7668.25 7214.75 7083.98 7217.61 6449.56ZM805.826 7486.38C764.944 7440.06 705.059 7454.43 656.412 7477.64C583.345 7512.5 513.424 7551.68 446.394 7596.98C429.903 7608.11 440.299 7632.32 459.711 7628.6C508.871 7619.14 556.722 7608.55 604.417 7593.2C640.261 7581.68 677.571 7564.95 714.949 7559.02C712.61 7567.62 709.766 7576.05 706.417 7584.32C700.283 7601.3 693.159 7617.92 687.112 7634.95C675.082 7668.86 664.243 7703.26 653.733 7737.69L648.502 7754.91C626.654 7827.09 605.427 7932.14 706.252 7954.36C743.661 7962.59 780.739 7946.28 815.538 7933.46L822.705 7930.87L949.64 7885.85C964.762 7880.49 992.773 7876.75 1005.31 7867.35L1003.31 7877C1000.71 7889.79 998.162 7902.34 992.657 7915.09L989.585 7922.13C958.054 7993.65 918.301 8065.22 955.075 8144.28C986.581 8212.02 1061.05 8244.16 1132.82 8224.93C1201.02 8206.67 1250.38 8129.82 1215.07 8062.97C1201.91 8038.05 1163.41 8025.86 1138.95 8041.43L1132.38 8045.8C1124.68 8050.84 1111.41 8059.47 1111.09 8061.07C1109.26 8061.55 1107.35 8062.02 1105.41 8062.5C1109.53 8050.38 1112.3 8031.75 1115.91 8023.5L1129.2 7993.31C1153.91 7936.6 1175.33 7878.89 1156.47 7815.28C1102.48 7633.13 919.377 7736.69 784.308 7788.67C786.278 7780.98 788.229 7773.37 789.879 7765.92C795.703 7739.55 802.072 7713.32 808.374 7687.07L821.295 7632.89C832.925 7582.97 841.978 7527.37 805.826 7486.38ZM7716.37 7283.08C7716.49 7278.77 7711.19 7275.47 7707.47 7277.97C7621.12 7336.06 7563.35 7457.34 7595.8 7560.66C7611.55 7610.83 7645.05 7654.83 7692.09 7679.19C7750.57 7709.45 7815.14 7697.93 7876.59 7684.98L7902.68 7679.4C7921.08 7675.53 7939.23 7672.69 7957.95 7677.86C7964.37 7679.63 7971.83 7685.24 7977.93 7686.44C7975.41 7690.74 7972.73 7698.18 7971.37 7700.94L7966.92 7709.9C7962.45 7718.99 7958.09 7728.42 7955.35 7737.97C7946.17 7769.97 7948.44 7804.33 7963.31 7834.2C7991.01 7889.82 8049.11 7921.18 8109.6 7926.5C8145.64 7929.7 8236.44 7898.13 8257.91 7936.38C8300.52 8012.31 8421.85 7961.24 8398.27 7877.17C8382.32 7820.33 8337.08 7783.6 8281.03 7768.22C8251.16 7760.04 8220.25 7761.14 8189.88 7764.5C8177.99 7765.81 8166.13 7767.65 8154.22 7768.92L8145.27 7769.74C8147.6 7769.55 8120.59 7768.9 8109.74 7768.19L8112.05 7761.96C8112.39 7761.07 8112.7 7760.31 8112.98 7759.72C8125.05 7733.87 8134 7708.13 8133.28 7679.26C8131.95 7627.19 8098.27 7581.77 8054.02 7556.7C8013.22 7533.58 7964.64 7524.36 7918.27 7529.51C7867.29 7535.18 7794.85 7575.58 7744.72 7554.3C7706.95 7538.25 7694.13 7482.3 7693.55 7445.64C7692.67 7390.42 7714.84 7338.09 7716.37 7283.08ZM4199.14 6920.9C4060.21 6858.52 3940.9 6965.07 3859.37 7067.02C3855.17 7072.29 3860.46 7081.14 3867.09 7077.05L3877.91 7070.29C3944.48 7028.52 4018.29 6979.16 4100.78 6993.39C4175.46 7006.27 4193.96 7055.17 4179.09 7121.8L4174.73 7140.54C4158.93 7209.16 4146.82 7280.17 4186.16 7343.98C4223.3 7404.23 4295.78 7430.56 4363.65 7432.17C4441.95 7434.03 4509.53 7397.59 4581.11 7372.18L4586.77 7370.19C4617.17 7359.69 4728.08 7332.25 4729.62 7394.75C4730.34 7423.32 4699.76 7456.89 4688.01 7482.57C4672.62 7516.17 4662.38 7551.46 4662.57 7588.77C4663.02 7681.82 4740.61 7757.4 4832.42 7712.26C4868.11 7694.7 4877.31 7644.34 4858.7 7611.98C4832.48 7566.37 4821.87 7568.75 4840.24 7520.85L4845.54 7507.37C4868.14 7449.66 4886.14 7390.24 4860.75 7329.68C4810.02 7208.7 4657.93 7194.04 4549.27 7234.1L4545.3 7235.61C4477.67 7261.82 4275.12 7366.86 4289.08 7218.32C4294.58 7159.81 4312.32 7103.7 4299.91 7044.54C4288.38 6989.61 4250.07 6943.77 4199.14 6920.9ZM3529.69 6424.06C3504.32 6379.38 3419.18 6395.37 3426.24 6452.09L3428.5 6469.75C3431.38 6493.91 3432.02 6516.62 3415.33 6538.11C3395.08 6564.19 3360.42 6572.08 3328.97 6568.09C3262.36 6559.65 3219.89 6497.86 3146.59 6512.29C3087.09 6524.01 3046.01 6572.72 3022.22 6625.83C2997.03 6682.08 2997.56 6743.06 2978.8 6800.98C2957.2 6867.6 2911.12 6864.53 2853.59 6841.22L2841.2 6836.13C2786.16 6813.23 2730.93 6787.79 2669.6 6798.73C2567.73 6816.92 2480.01 6973.64 2575.45 7049.31C2592.68 7062.96 2622.79 7055.84 2622.06 7030L2621.96 7025.11C2621.48 6978.1 2633.33 6917.44 2687.18 6906.35C2744.28 6894.6 2808.79 6946.74 2861.82 6961.75C2999.15 7000.62 3077.38 6897.2 3100.7 6774.88L3101.55 6770.19C3109 6727.38 3114.88 6648.15 3159.63 6628.11C3183.5 6617.41 3208.96 6643.72 3228.91 6654.32C3259.9 6670.77 3293.15 6681.22 3328.21 6683.89C3457.9 6693.79 3605.27 6557.31 3529.69 6424.06ZM6775.12 6255.11C6732.38 6236.59 6668.65 6246.9 6658.21 6302.7L6651.88 6337.81C6639.46 6405.64 6619.69 6490.45 6553.05 6514.88C6511.38 6530.15 6463.52 6503.38 6426.14 6487.05C6381.25 6467.43 6337.48 6450.6 6288.32 6445.94C6188.57 6436.48 6114.27 6494.22 6078.99 6584.46L6075.92 6592.5C6047.46 6668.32 6009 6813.34 6071.31 6874.85C6080.4 6883.83 6098.74 6888.21 6109.9 6879.83C6146.71 6852.2 6156.02 6806.78 6168.66 6764.19L6169.75 6760.54C6183.17 6716.31 6194.16 6667.59 6218.38 6627.74C6263.4 6553.67 6380.85 6638.25 6437.35 6657.78C6530.13 6689.85 6626.34 6671.11 6697.24 6602.5C6742.03 6559.15 6768.51 6504.29 6786.71 6446.23C6798.34 6452.24 6810.41 6457.44 6823.4 6460.96C6872.9 6474.37 6931.63 6467.3 6969.31 6429.78C7040.05 6359.36 7001.68 6233.04 6893.83 6253.46C6872.59 6257.48 6858.66 6277.78 6856.13 6298.51L6854.69 6301.79C6827.55 6292.81 6797.88 6264.97 6775.12 6255.11ZM1777.35 5625.95C1676.58 5522.22 1501.71 5578.45 1432.78 5688.49C1418.49 5711.3 1442.1 5740.22 1467.2 5733.29C1527.19 5716.75 1611.85 5651.64 1675.25 5693.08C1722.25 5723.8 1696.68 5804.08 1692.38 5849L1691.76 5855.7C1686.32 5916.84 1685.09 6000.5 1732.68 6046.26C1760.08 6072.61 1802.09 6069.05 1838.22 6065.28L1849.71 6064.09C1892.3 6059.81 1934.6 6052.29 1975.4 6039.18C2012.9 6027.14 2048.44 6010.78 2083.68 5993.44L2092.48 5989.09C2108.08 5981.35 2160.09 5950.65 2175.67 5969.94C2183.8 5980 2163.66 6024.07 2159.48 6033.9C2143.68 6070.86 2123.59 6105.67 2109.1 6143.29C2083.56 6209.57 2081.43 6284.35 2117.29 6347.61C2152.04 6408.9 2227.33 6458.55 2294.05 6411.47C2332.26 6384.51 2332.15 6335.47 2294.05 6308.49C2273.9 6294.21 2253.57 6284.8 2245.24 6260.85C2234.37 6229.62 2248.36 6196.5 2261.9 6167.59L2278.11 6133.21C2314.03 6056.42 2349.91 5968.11 2299.73 5889.61C2247.92 5808.57 2142.62 5807.29 2062.97 5841.05C2017.5 5860.31 1976.02 5886.16 1928.64 5901.06C1895.87 5911.39 1862.96 5918.28 1829.39 5922.06C1821.91 5881.64 1832.5 5836.39 1832.6 5796.24C1832.78 5735.24 1821.42 5671.32 1777.35 5625.95ZM6973.57 4183.02C6803.52 4158.06 6721.21 4310.24 6709.47 4456.79C6698.89 4589.84 6720.43 4723.27 6754.11 4852.64C6766.73 4900.61 6780.9 4948 6795.75 4994.62C6819.63 5069.5 6845.54 5144.27 6877.09 5216.33C6886.7 5238.09 6896.4 5259.94 6907.27 5280.92C6944.51 5311.46 6976.37 5352.61 7005.34 5392.16L7024.37 5418.28L7029.47 5425.33C7078.68 5492.73 7120.71 5562.65 7155.07 5638.69C7187.79 5711.11 7212.15 5786.62 7231.08 5863.7L7235.74 5882.94C7250.3 5942.25 7271.77 6013.05 7245.82 6068.25C7296.77 6083.97 7347.44 6098.25 7401.6 6105.82C7476.34 6116.31 7554.08 6116.99 7629.5 6114.27C7702.36 6111.6 7775.15 6105.91 7847.7 6098.18L7899.98 6092.42C7905.39 6091.8 7910.81 6091.16 7916.21 6090.48C7914.17 6087.95 7912.43 6085.14 7911.16 6082.04C7892.54 6037.36 7894.94 5985.56 7892.87 5937.5L7892.62 5932.18C7889.91 5878.87 7888.26 5825.55 7887.58 5772.13C7886.32 5671.91 7889.03 5571.39 7900 5471.65C7909.5 5384.36 7924.36 5297.04 7947.56 5212.26C7970.95 5126.31 8006.67 5045.6 8039.67 4963.05C8072.28 4881.48 8099.18 4797.67 8096.26 4708.71C8094.41 4652.18 8081.99 4597.22 8060.93 4545.26C8059.95 4546.04 8058.7 4546.62 8057.24 4546.52C7991.14 4544.09 7928.54 4524.96 7864.67 4508.84C7796.92 4491.66 7727.53 4477.57 7658.23 4469.22L7643.5 4467.49C7585.74 4461 7522.81 4457.84 7469.44 4482.62C7411.69 4509.53 7375.3 4569.35 7353.36 4626.74L7350.92 4633.36C7311.94 4742.16 7320.88 4887.38 7441.39 4938.87C7478.76 4954.9 7564.08 4964.71 7583.29 4914.01C7591.93 4890.9 7574.17 4856.72 7567.47 4834.87C7559.61 4808.83 7554.47 4783.19 7555.05 4756C7555.52 4732.15 7573.73 4714.16 7596.9 4712.24L7599.02 4712.11C7641.14 4710.27 7728.01 4661.71 7736.46 4731.63C7738.11 4745.22 7727.72 4759.5 7716.75 4766.11C7694.62 4779.21 7671.52 4787.96 7647.45 4793.3C7650.75 4807.86 7655.41 4822.14 7659.98 4836.32C7662.69 4834.96 7665.7 4834.09 7668.9 4833.79C7704.52 4830.88 7739.76 4836.52 7775.38 4836.9L7794.85 4837.04C7822.49 4837.31 7846.6 4838.8 7873.41 4853.12C7898.16 4866.33 7893.79 4899.44 7873.41 4913.62C7819.93 4950.72 7729.37 4928.97 7673.66 4891.29C7676.08 4910.42 7674.92 4929.94 7666.77 4950.43C7642.7 5011.23 7573.69 5041.52 7511.97 5044.15C7457.12 5046.48 7404.7 5029.19 7360.93 4998.89C7352 5030.84 7337.64 5061.53 7331.42 5094.66C7323.27 5138.16 7332.98 5189.04 7317.85 5229.93C7302.69 5271.12 7244.17 5298.69 7210.29 5258.29C7160.7 5199.24 7176.13 5105.72 7219.71 5045.89C7242.91 5014.23 7285.03 4977.91 7327.93 4972.18C7298.13 4944.13 7274.26 4909.45 7259.21 4871.18C7258.14 4871.67 7256.88 4871.77 7255.52 4871.38C7116.05 4833.22 7040.15 4706.76 7035.49 4574.01C7025.2 4581.39 7014.53 4588 7003.36 4593.91C6976.67 4608.3 6942.41 4595.66 6934.16 4565.85C6926.59 4538.07 6948.62 4503.8 6979.58 4506.12C6997.25 4507.58 7015.01 4507.68 7032.58 4504.76C7035 4504.37 7037.33 4503.9 7039.76 4503.4C7041.31 4493.21 7043.35 4483.01 7045.87 4472.91C6993.17 4478.93 6938.04 4470.29 6887.08 4459.02C6843.21 4449.41 6853.4 4379.58 6897.57 4381.23L6904.66 4381.54C6962.61 4384.32 7048.15 4393.68 7097.8 4356.95C7106.54 4344.33 7116.24 4332.38 7126.73 4321.11C7128.08 4318.3 7129.25 4315.3 7130.32 4312.18C7157.01 4235.26 7030.54 4191.37 6973.57 4183.02ZM5447.08 5265.08C5380.88 5247.36 5311.21 5271.5 5265.68 5321.51C5227.42 5363.55 5207.61 5415.18 5189.9 5467.95L5179.79 5498.31C5165.07 5541.3 5148.16 5575.41 5095.56 5559.02C5028.15 5538.01 4969.7 5501.42 4896.4 5504.3C4829.75 5506.94 4764.54 5535.61 4718.15 5583.69C4670.69 5632.85 4648.03 5701.37 4658.11 5768.86L4658.76 5773C4664.01 5804.09 4709.47 5915.08 4757.65 5863.98C4779.15 5841.2 4774.91 5815.98 4780.01 5787.03C4784.86 5759.45 4795.25 5732.4 4812.26 5710.04C4842.43 5670.39 4890.95 5654.94 4938.38 5668.96C5000.95 5687.47 5056.2 5725.6 5123.6 5726.5C5194.51 5727.45 5254.7 5690.66 5293.81 5632.91C5325.38 5586.28 5336.64 5531.71 5358.86 5481.02L5361 5476.18C5379.65 5434.47 5392.37 5419.41 5435.09 5439.35L5450.02 5446.51C5513.99 5476.93 5585.95 5504.76 5652.09 5461.88C5713.53 5422.06 5739.73 5342.01 5688.05 5283.73C5659.53 5251.56 5593.52 5257.04 5574.99 5298.31C5571.74 5305.41 5568.72 5312.61 5565.75 5319.82C5560.09 5318.09 5554.59 5316 5549.37 5313.06C5514.7 5297.43 5484.59 5275.12 5447.08 5265.08ZM3514.44 4793.87C3438.92 4753.15 3375.88 4833.24 3387.94 4905.56L3388.52 4908.73C3388.97 4910.91 3389.99 4915.67 3391.26 4921.13C3387.41 4920.66 3383.59 4919.98 3379.79 4919.01L3362.24 4916.87C3334.66 4913.66 3307.93 4911.99 3280.32 4920.85C3215.16 4941.77 3183.12 5005.14 3181.55 5070.08C3179.99 5134.8 3213.45 5187 3223.29 5248.82C3233.35 5312.05 3167.94 5293.99 3125.24 5289.37L3123.57 5289.19C3064.17 5283.18 3001.72 5283.07 2952.35 5321.81C2901.37 5361.81 2878.78 5430.94 2885.98 5494.23C2892.49 5551.4 2928.23 5639.37 2992.99 5648.41C2999.39 5649.3 3006.67 5647.89 3009.95 5641.5C3036.14 5590.55 2999.7 5534.29 3003.82 5480.54C3008.35 5421.42 3046.02 5411.59 3097.95 5415.41C3148.36 5419.12 3198.63 5429.83 3248.42 5414.78C3302.42 5398.45 3341.61 5352.08 3352.7 5297.39C3364.92 5237.11 3342.46 5181.02 3327.89 5123.73C3323.05 5104.71 3320.67 5085.57 3324.01 5066.11C3324.72 5061.91 3328.37 5058.02 3329.69 5056.36C3337.98 5054.81 3350.39 5058.78 3357.48 5059.54L3367.55 5060.53C3422.24 5065.48 3474.93 5062.16 3514.01 5016.94C3534.04 4993.78 3541.43 4965.46 3539.44 4935.58L3538.43 4923.51C3537.36 4911.9 3535.32 4896.58 3529.29 4890.19L3529.21 4889.88C3531.23 4887.16 3533.15 4884.37 3534.91 4881.47L3536.62 4878.53C3553.37 4850.59 3543.65 4809.62 3514.44 4793.87ZM7383.36 4085.02C7308.14 4085.02 7237.08 4109.6 7180.21 4176.51C7200.49 4195.83 7216.7 4218.27 7225.64 4244.59C7253.49 4229.34 7282.99 4217.4 7313.18 4208.95C7405.29 4183.21 7531.27 4183.6 7608.72 4246.82C7649.3 4279.84 7604.75 4339.08 7561.07 4328.88C7521.95 4319.76 7487.98 4302.86 7446.93 4300.91C7411.3 4299.17 7376.36 4303.83 7342.2 4314.12C7290.08 4329.87 7242.71 4359.67 7207.87 4400.75C7196.22 4414.54 7186.03 4429.5 7177.49 4445.63C7112.46 4569.15 7161.47 4746.29 7251.25 4847.97C7216.02 4730.85 7251.16 4592.75 7321.33 4495.74C7405.81 4378.93 7532.18 4365.69 7665.3 4383.92L7669.69 4384.53C7798.48 4402.7 7957.95 4434.45 8054.23 4529.14C8044.62 4507.29 8033.56 4486.12 8021.12 4465.62C7948.14 4345.39 7827.11 4251.58 7701.51 4184.67C7680.45 4173.3 7659.2 4162.82 7638.04 4153.1C7557.57 4116.1 7467.89 4085.02 7383.36 4085.02ZM7424.51 3167.47L7424.21 3168.84C7424.15 3169.09 7424.08 3169.35 7424.02 3169.61C7419.57 3209.1 7430.07 3254.43 7435.42 3294.28L7436.15 3299.94C7447.41 3390.64 7462.26 3481.45 7467.11 3572.83C7471.84 3660.71 7470.02 3751.87 7459.46 3839.37L7457.89 3851.85C7451.68 3899.53 7447.99 3955.47 7431.89 4004.42C7493.81 4010.34 7555.73 4030.25 7612.02 4051.43C7632.21 4059.09 7652.3 4067.16 7672.3 4075.71C7647.26 3942.55 7633.86 3807.47 7606.69 3674.71L7601.34 3648.29C7571.8 3501.43 7544.06 3353.62 7467.7 3222.24C7457.51 3204.76 7446.54 3190.1 7434.11 3174.46C7431.4 3170.88 7428.19 3168.55 7424.51 3167.47Z" fill="black"/>
<path fill-rule="evenodd" clip-rule="evenodd" d="M4181.92 67.3862C4573.61 67.3862 5043.57 257.168 5083.53 260.964L5084.61 261.022C5105.63 261.022 5187.77 323.569 5331.04 448.662L5175.86 751.148L5188.42 763.132C5248.51 820.714 5324.51 775.127 5365 816.5C5695.63 1154.31 5562.5 2356 5562.5 2895C5484.58 3357.54 5302.89 3851 4631 3851C3959.11 3851 3339.15 3515.74 3224 3390C3147.24 3306.17 3060.81 3302.94 2965.12 3306.45C2961.19 3301.49 2957.29 3296.54 2953.42 3291.61L2939.34 3289.62C2806.91 3270.45 2712.02 3244.65 2654.67 3212.22C2542.66 3148.89 2419.55 2815.93 2419.55 2742.58C2419.55 2669.97 2235.72 2141.73 2232.04 2085.83L2231.98 2084.28C2231.98 2037.55 1991.82 1822.73 1991.82 1754.51C1991.82 1686.29 1943.41 1690.43 1991.82 1450.03L2005.89 1379.41C2057.4 1123.45 2270.24 632.828 2654.67 448.662C3077.13 246.283 3786.27 67.3862 4181.92 67.3862Z" fill="white"/>
<path fill-rule="evenodd" clip-rule="evenodd" d="M2479.38 507.668C2690.79 283.401 3890.99 -63.4886 4498.2 10.0436L4516.41 12.4011C4564.87 18.5426 4612.63 27.8426 4659.76 40.4765C4812.1 76.0357 4969.46 129.879 5095.33 219.817C5200.42 293.392 5531.92 413.546 5434.21 606.02C5470.44 674.62 5547.98 703.935 5523.5 771.5C5520.42 794.838 5561.21 854.487 5552 876.772C5629.4 990.925 5576.5 1190.5 5597.5 1445.5C5621.65 1738.7 5629.32 2001.69 5651 2340.5C5684.69 2867 5680.64 3461.81 5017.5 3825.5C4682 4009.5 4086.5 3871.62 4047.5 3825.5C4027.39 3801.71 3937.09 3769.18 3968.64 3757.92C3978.04 3767.83 3987.69 3777.49 3997.52 3786.96C3997.08 3785.91 3996.99 3784.86 3997.17 3783.71L3987.93 3775.35C3970.51 3759.24 3947.95 3735.89 3973.65 3740.46C3974.78 3741.78 3976.02 3742.92 3977.24 3744.23C3982.68 3747.5 3986.79 3750.33 3989.99 3752.82L3991.64 3754.14L3991.13 3753.61C3976.33 3737.83 3967.45 3721.74 3989.58 3732.02L3992.51 3733.44C4002.35 3743.8 4012.35 3753.71 4022.53 3763.36C4022.37 3762.22 4022.53 3761.08 4023.16 3759.85L4013.66 3750.68C4004.4 3741.61 4005.81 3741.57 4010.34 3734.23C3990.64 3706.64 3989.93 3722.68 3992.51 3733.44C4015.52 3728 4071.28 3728.08 4086.5 3732.02C4860.5 3932.5 5573 3681 5530 2474.5V2367C5481 1920.5 5490.51 1634 5439.99 1260.5C5422.09 1221.72 5400.92 1034.08 5378.89 997.584C5363.7 970.21 5347.46 943.539 5330 917.569C5281.09 913.621 5232.81 904.672 5185.24 890.81C5168.9 886.686 5152.75 882.124 5136.61 876.772C4900.64 889.634 4669.94 903.628 4433.32 916.893L4359.41 921.494C4158.96 934.374 3951.66 955.002 3789.91 1078.91C3631.19 1191.73 3630.47 1414.18 3494.61 1538.04C3300.87 1669.45 3299.46 1787.96 3262.15 1981.63C3264.92 2127.62 3366.2 2339.74 3180.34 2401.18C3211.69 2445.86 3167.99 2424.39 3164.54 2408.72C3164.19 2408.81 3163.84 2408.9 3163.58 2408.9C3191.52 2460.81 3150.45 2428.12 3146.81 2411.44C3144.62 2410.83 3142.42 2409.25 3140.23 2407.06C3168.38 2452.54 3122.87 2420.69 3125.57 2412.41C3071.17 2328.84 2959.21 2315.86 2880.29 2338.01C2879.33 2340.99 2875.82 2341.25 2873.63 2339.68C2538.06 2412.36 2624.64 3106.66 2968.52 3039.54C2983.24 3036.54 2982.89 3043.6 2985.82 3044.28C2977.87 3023.43 3000.27 3031.92 3000.03 3036.3L3001.39 3036.23C3002.47 3036.13 3002.03 3036.02 3002.84 3036.3C2995.16 2993.66 3038.38 3055.43 3034.97 3057.97C3036.29 3057.18 3037.78 3056.74 3039.1 3056.56L3037.61 3052.52C3030.44 3033.42 3031.05 3041.35 3031.1 3030.42C3025.71 3016.9 3025.32 3022.81 3026.58 3014C3045.53 2999.33 3051.12 3043.83 3057.44 3047.09C3046.61 3032 3055.22 3019.67 3065.44 3027.86C3142.89 3190.68 3242.94 3343.67 3372.23 3464.18C3386.37 3475.32 3400.68 3486.29 3415.51 3496.64C3470.51 3544.52 3554.87 3575.31 3606.35 3617.72C3606.35 3618.42 3606.01 3619.3 3605.48 3620.18L3606.66 3621.24L3607.85 3622.37L3625.76 3630.97C3631.03 3635.44 3635.77 3640.44 3639.97 3645.97C3644.46 3651.15 3648.4 3656.85 3651.74 3662.9C3653.41 3670.27 3649.73 3673.34 3642.7 3670.19C3639.62 3669.13 3636.56 3667.9 3633.49 3666.76C3633.66 3667.03 3633.74 3667.2 3633.92 3667.38C3634.93 3668.9 3641.75 3684.7 3633.89 3682.13L3632.96 3681.77C3628.65 3680.19 3624.36 3678.43 3620.14 3676.77C3625.15 3682.99 3629.7 3689.75 3633.74 3695.45C3638.05 3699.93 3640.67 3705.19 3641.74 3711.16C3641.55 3714.49 3639.72 3715.9 3636.38 3715.46C3631.29 3713.79 3626.29 3712.03 3621.27 3710.19L3622.7 3712.91C3626.24 3719.87 3631.27 3731.55 3622.34 3727.65C3614.69 3725.28 3607.33 3722.56 3599.95 3719.58C3599.33 3720.81 3598.11 3721.25 3595.65 3720.11C3572.21 3711.77 3549.56 3701.59 3527.88 3689.57C3508.83 3675.71 3489.6 3662.11 3470.47 3648.34C3452.47 3637.55 3435.08 3625.53 3418.5 3612.02C3307.49 3540.35 3210.31 3449.32 3133.21 3347.93C3004.26 3459.54 2746.45 3352.92 2586.97 3265.55C2445.91 3187.46 2390.47 3043.09 2376.13 2887.43C2346.33 2677.86 2174.97 2606.13 2186.9 2146.31C2186.63 2146.39 2186.36 2146.39 2186.01 2146.39C2179.78 2144.55 2173.73 2142.09 2168.02 2138.94C2162.14 2136.13 2156.61 2132.79 2151.42 2128.76L2145.01 2119.9C2141.69 2118.06 2138.7 2116.12 2136.42 2114.19L2135.24 2115.72C2131.49 2120.24 2134.01 2113.44 2134.23 2112.09L2123.09 2096.96C2096.7 2060.94 2067.74 2020.53 2044.15 1988.21L2043.41 1989.52C2042.87 1990.51 2042.59 1991.23 2042.84 1991.54C1986.7 1910.93 1933.91 1813.56 1919.24 1719.3C1901.92 1646.69 1908.69 1571.87 1923.8 1504.61C1988.57 1269.08 2200.77 736.106 2479.38 507.668ZM4002.85 3764.88L3999.33 3761.75L4002.43 3765.62C4004.05 3767.62 4005.71 3769.42 4008.41 3771.26C4008.23 3770.64 4008.23 3770.03 4008.31 3769.33C4006.52 3767.96 4004.69 3766.46 4002.85 3764.88ZM4495.51 128.388C4083.74 93.0038 3678.73 183.67 3285.79 293.418L3258.68 301.205C3035.26 364.923 2799 422.26 2610.19 558.643C2346.39 760.584 2210.17 1081.84 2091.29 1378.44C1987.49 1598.82 2040.55 1847.31 2196.98 2001.19C2213.26 1848.28 2241.01 1699.84 2284.37 1552.59C2293.42 1529.59 2286.57 1522.05 2306.08 1519.05C2335.54 1915.86 2190.44 2209.04 2477.58 2679.32C2602.17 2901.22 2457.95 3063.58 2809.78 3180.35L2819.3 3183.98C2892.61 3211.63 2972.65 3233.45 3044.45 3218L3038.02 3207.54C3031.46 3196.77 3029.46 3191.54 3039 3186.94C3038.75 3186.41 3038.4 3185.88 3038.04 3185.27C3030.32 3170.71 3022.86 3155.97 3015.74 3141.05C3012.85 3142.02 3009.96 3142.72 3006.96 3143.51C3008.9 3147.11 3009.16 3150.7 3003.72 3151.93C2984.38 3158.56 2964.52 3161.22 2944.18 3159.98L2939.82 3159.65C2916.84 3158.25 2902.37 3154.06 2889.42 3150.18C2885.13 3149.47 2880.83 3148.77 2876.6 3147.9C2834.95 3138.67 2790.86 3115.19 2762.32 3091.92C2437.01 2907.25 2470.63 2278.64 2871.61 2219.21C2879.83 1823.42 3068.19 1155.68 3380.79 778.534C3663.35 431.619 4434.74 281.258 4971.42 334.277C4979.24 336.865 4987.06 339.479 4994.88 342.12C5077.68 349.472 5156.59 386.339 5239.45 403.465C5179.96 358.904 5112.47 329.223 5042.95 303.999C4904.45 219.325 4745.66 173.51 4592.26 141.197C4560.48 133.388 4528.27 129.089 4495.51 128.388ZM2853.26 2537.17C2874.82 2525.46 2872.35 2536.76 2877.31 2533.48C3032.39 2520.84 3199.61 2656.54 3286.29 2769.67C3279.45 2776.77 3260.92 2755.72 3257.68 2752.38C3257.24 2752.82 3256.71 2753.17 3256.18 2753.35L3258.6 2756.75C3293.73 2807.15 3224.08 2747.85 3217.56 2735.62C3216.42 2736.24 3215.28 2736.59 3213.96 2736.33C3219.48 2741.74 3236.35 2755.86 3239.24 2765.89L3243.71 2769.61C3285.87 2805.69 3282.37 2832.83 3234.51 2781.6C3235.64 2783.97 3236.08 2786.16 3235.29 2787.92L3236.94 2789.01C3260.47 2805.45 3279.83 2851.27 3230.64 2804.23C3235.76 2838.59 3181.89 2772.18 3180.16 2772.65C3086.95 2699.52 2949.72 2628.4 2832.8 2618.85L2828.78 2618.39C2807.32 2615.63 2797.18 2609.27 2804.71 2595.25C2778.29 2588.97 2784.48 2575.96 2796.99 2576.38C2778.35 2564.14 2795.13 2552.42 2805.94 2557C2798.51 2536.42 2828.33 2550.13 2831.05 2547.26C2846.52 2523.4 2850.69 2543.3 2853.26 2537.17ZM2528.19 1261.93C2602.68 1234.66 2822.69 1316.29 2805.09 1424.4C2794.61 1449.22 2760.08 1463.44 2735.8 1449.43L2704.12 1428.17C2648.99 1391.26 2599.27 1358.91 2540.08 1326.72C2507.86 1310.75 2493.99 1276.83 2528.19 1261.93ZM2951.97 1101.28L2923.2 1082.57C2767.97 981.025 2548.51 827.165 2937.7 986.351C2982.06 1005.36 3041 1016.61 3065.2 1058.83C3103.22 1136.64 3003.17 1141.87 2951.97 1101.28ZM2969.41 645.674C2956.96 598.428 3111.96 653.868 3157.08 668.485L3163.95 671.079C3207.84 687.425 3258.16 702.589 3284.41 740.446C3315.17 792.754 3252.91 803.589 3214.35 779.962C3135.28 728.321 3048.59 689.357 2969.41 645.674ZM3363.57 425.59C3276.32 330.367 3509.81 421.587 3544.79 446.909L3545.79 447.656C3571.89 466.019 3566.59 505.57 3542.07 517.186C3472.31 518.511 3420.98 460.395 3363.57 425.59ZM3760.58 321.262C3621.88 221.638 3804.58 269.024 3868.04 308.067C3911.29 346.188 3866.74 410.542 3760.58 321.262Z" fill="black"/>
<path fill-rule="evenodd" clip-rule="evenodd" d="M4406.04 2878.04C4458.1 2792.45 4569.07 3002.11 4580.86 3038.16C4591.3 3070.1 4598.19 3102.81 4601.69 3135.91C4642.05 3144.95 4683.97 3144.96 4725.32 3137.04C4786.78 3125.26 4824.36 3092.23 4877.77 3063.87C4914.67 3044.28 4961.17 3067.26 4980.36 3099.75C5002.93 3138 4988.55 3177.71 4958.87 3206.22C4902.57 3260.29 4791.82 3272.72 4718.33 3258.36C4676.23 3250.13 4637.65 3234.35 4603.57 3211.42C4603.35 3215.7 4603.2 3219.98 4602.86 3224.25L4602.21 3231.67C4596.56 3291.64 4580.07 3367.05 4533.46 3406.07C4457.02 3470.08 4362.68 3346.98 4436.96 3283.04L4439.26 3281.12C4485.43 3243.83 4495.5 3143.8 4493.01 3088.71C4491.38 3052.75 4484.83 3016.32 4473.47 2982.07L4471.13 2975.25C4467.71 2965.58 4430.43 2873.8 4416.95 2885.49L4416.31 2886.15C4410.76 2892.78 4401.78 2885.06 4406.04 2878.04ZM4821.69 2395.09C4891.97 2437.78 4999.04 2537.33 4923.45 2643.17C4834.46 2736.49 4706.34 2629.49 4643.2 2581.1C4584.66 2543.6 4518.88 2640.05 4573.2 2683.84C5029.42 3021.42 5214.56 2406.25 4857.24 2344.9C4817.89 2338.13 4803.28 2381.88 4821.69 2395.09ZM4071.29 2000.48C4139.97 1988.31 4210.32 2005.38 4267.16 2045.54L4271.46 2048.63C4326.22 2088.65 4387.48 2158.93 4356.06 2227.91C4343.45 2255.61 4305.68 2259.95 4281.72 2247.39C4241.83 2226.49 4234.6 2175.04 4199 2146.57C4169.81 2123.24 4130.5 2109.08 4092.9 2112.49C4004.58 2120.51 3950.25 2207.58 3922.81 2282.61C3919.3 2292.21 3905.21 2295.94 3899.7 2285.63C3835.01 2164.79 3949.51 2022.08 4071.29 2000.48ZM5171.37 1954.88C5302.93 1944.05 5456.92 2080.36 5422.28 2219.15C5405.67 2285.74 5306.83 2283.84 5289.26 2219.15C5279.59 2183.55 5280.56 2152.06 5254.92 2122.5C5233.76 2098.1 5203.69 2083.92 5171.37 2086.1C5135.75 2088.5 5102.89 2106.29 5077.92 2131.3C5055.37 2153.88 5041.89 2186.93 5018.53 2206.92C5012.78 2211.83 5005.08 2212.14 4999.4 2206.92C4959.2 2169.87 4983.33 2092.75 5008.82 2054.08C5045.3 1998.73 5104.7 1960.38 5171.37 1954.88ZM3820.76 1754.33C3905.16 1679.67 4058.52 1607.56 4172.32 1644.3C4237.75 1665.43 4266.27 1770.8 4193.23 1804.2C4108.65 1842.87 4011.13 1827.13 3925.04 1867.22C3888.88 1884.06 3854.88 1905.11 3829.71 1935.98C3809.88 1960.31 3789.7 1992.32 3761.02 2006.35C3753.48 2010.04 3743.27 2010.14 3737.23 2003.29C3674.36 1932.21 3765.87 1802.89 3820.76 1754.33ZM5026.31 1640.6C5078.47 1625.97 5136.34 1626.26 5189.32 1635.45C5242.3 1644.64 5296.08 1666.58 5339.32 1698.59L5344.34 1702.34C5391.55 1737.89 5447.89 1789.62 5444.87 1852.61C5442.35 1905.21 5386.99 1940.78 5339.19 1913.22C5300.23 1890.74 5281.89 1845.7 5248.9 1815.71C5221.68 1790.96 5189.71 1771.45 5155.59 1757.78C5117.7 1742.59 5079.74 1735.48 5039.07 1734.8C5007.75 1734.28 4976.25 1744.54 4945.52 1747.83C4948.06 1753.02 4923.77 1750.6 4909.84 1745.99C4899.53 1741.6 4899.48 1728.57 4903.05 1720.12C4920.78 1678.24 4985.28 1652.09 5026.31 1640.6Z" fill="black"/>
</svg>
