<svg width="130" height="35" viewBox="0 0 199 39" fill="none" xmlns="http://www.w3.org/2000/svg">
<path d="M53.3409 14.7045C53.2652 13.8712 52.928 13.2235 52.3295 12.7614C51.7386 12.2917 50.8939 12.0568 49.7955 12.0568C49.0682 12.0568 48.4621 12.1515 47.9773 12.3409C47.4924 12.5303 47.1288 12.7917 46.8864 13.125C46.6439 13.4508 46.5189 13.8258 46.5114 14.25C46.4962 14.5985 46.5644 14.9053 46.7159 15.1705C46.875 15.4356 47.1023 15.6705 47.3977 15.875C47.7008 16.072 48.0644 16.2462 48.4886 16.3977C48.9129 16.5492 49.3902 16.6818 49.9205 16.7955L51.9205 17.25C53.072 17.5 54.0871 17.8333 54.9659 18.25C55.8523 18.6667 56.5947 19.1629 57.1932 19.7386C57.7992 20.3144 58.2576 20.9773 58.5682 21.7273C58.8788 22.4773 59.0379 23.3182 59.0455 24.25C59.0379 25.7197 58.6667 26.9811 57.9318 28.0341C57.197 29.0871 56.1402 29.8939 54.7614 30.4545C53.3902 31.0152 51.7348 31.2955 49.7955 31.2955C47.8485 31.2955 46.1515 31.0038 44.7045 30.4205C43.2576 29.8371 42.1326 28.9508 41.3295 27.7614C40.5265 26.572 40.1136 25.0682 40.0909 23.25H45.4773C45.5227 24 45.7235 24.625 46.0795 25.125C46.4356 25.625 46.9242 26.0038 47.5455 26.2614C48.1742 26.5189 48.9015 26.6477 49.7273 26.6477C50.4848 26.6477 51.1288 26.5455 51.6591 26.3409C52.197 26.1364 52.6098 25.8523 52.8977 25.4886C53.1856 25.125 53.3333 24.7083 53.3409 24.2386C53.3333 23.7992 53.197 23.4242 52.9318 23.1136C52.6667 22.7955 52.2576 22.5227 51.7045 22.2955C51.1591 22.0606 50.4621 21.8447 49.6136 21.6477L47.1818 21.0795C45.1667 20.6174 43.5795 19.8712 42.4205 18.8409C41.2614 17.803 40.6856 16.4015 40.6932 14.6364C40.6856 13.197 41.072 11.9356 41.8523 10.8523C42.6326 9.76894 43.7121 8.92424 45.0909 8.31818C46.4697 7.71212 48.0417 7.40909 49.8068 7.40909C51.6098 7.40909 53.1742 7.71591 54.5 8.32954C55.8333 8.93561 56.8674 9.78788 57.6023 10.8864C58.3371 11.9848 58.7121 13.2576 58.7273 14.7045H53.3409ZM61.8864 31V13.5455H67.1705V16.75H67.3636C67.7273 15.6894 68.3409 14.8523 69.2045 14.2386C70.0682 13.625 71.0985 13.3182 72.2955 13.3182C73.5076 13.3182 74.5455 13.6288 75.4091 14.25C76.2727 14.8712 76.822 15.7045 77.0568 16.75H77.2386C77.5644 15.7121 78.2008 14.8826 79.1477 14.2614C80.0947 13.6326 81.2121 13.3182 82.5 13.3182C84.1515 13.3182 85.4924 13.8485 86.5227 14.9091C87.553 15.9621 88.0682 17.4091 88.0682 19.25V31H82.5114V20.5227C82.5114 19.6515 82.2879 18.9886 81.8409 18.5341C81.3939 18.072 80.8144 17.8409 80.1023 17.8409C79.3371 17.8409 78.7348 18.0909 78.2955 18.5909C77.8636 19.0833 77.6477 19.7462 77.6477 20.5795V31H72.3068V20.4659C72.3068 19.6553 72.0871 19.0152 71.6477 18.5455C71.2083 18.0758 70.6288 17.8409 69.9091 17.8409C69.4242 17.8409 68.9962 17.9583 68.625 18.1932C68.2538 18.4205 67.9621 18.7462 67.75 19.1705C67.5455 19.5947 67.4432 20.0947 67.4432 20.6705V31H61.8864ZM96.4318 31.2955C95.3182 31.2955 94.3295 31.1098 93.4659 30.7386C92.6098 30.3598 91.9318 29.7917 91.4318 29.0341C90.9394 28.2689 90.6932 27.3106 90.6932 26.1591C90.6932 25.1894 90.8636 24.3712 91.2045 23.7045C91.5455 23.0379 92.0152 22.4962 92.6136 22.0795C93.2121 21.6629 93.9015 21.3485 94.6818 21.1364C95.4621 20.9167 96.2955 20.7689 97.1818 20.6932C98.1742 20.6023 98.9735 20.5076 99.5795 20.4091C100.186 20.303 100.625 20.1553 100.898 19.9659C101.178 19.7689 101.318 19.4924 101.318 19.1364V19.0795C101.318 18.4962 101.117 18.0455 100.716 17.7273C100.314 17.4091 99.7727 17.25 99.0909 17.25C98.3561 17.25 97.7652 17.4091 97.3182 17.7273C96.8712 18.0455 96.5871 18.4848 96.4659 19.0455L91.3409 18.8636C91.4924 17.803 91.8826 16.8561 92.5114 16.0227C93.1477 15.1818 94.0189 14.5227 95.125 14.0455C96.2386 13.5606 97.5758 13.3182 99.1364 13.3182C100.25 13.3182 101.277 13.4508 102.216 13.7159C103.155 13.9735 103.973 14.3523 104.67 14.8523C105.367 15.3447 105.905 15.9508 106.284 16.6705C106.67 17.3902 106.864 18.2121 106.864 19.1364V31H101.636V28.5682H101.5C101.189 29.1591 100.792 29.6591 100.307 30.0682C99.8295 30.4773 99.2652 30.7841 98.6136 30.9886C97.9697 31.1932 97.2424 31.2955 96.4318 31.2955ZM98.1477 27.6591C98.7462 27.6591 99.2841 27.5379 99.7614 27.2955C100.246 27.053 100.633 26.7197 100.92 26.2955C101.208 25.8636 101.352 25.3636 101.352 24.7955V23.1364C101.193 23.2197 101 23.2955 100.773 23.3636C100.553 23.4318 100.311 23.4962 100.045 23.5568C99.7803 23.6174 99.5076 23.6705 99.2273 23.7159C98.947 23.7614 98.678 23.803 98.4205 23.8409C97.8977 23.9242 97.4508 24.053 97.0795 24.2273C96.7159 24.4015 96.4356 24.6288 96.2386 24.9091C96.0492 25.1818 95.9545 25.5076 95.9545 25.8864C95.9545 26.4621 96.1591 26.9015 96.5682 27.2045C96.9848 27.5076 97.5114 27.6591 98.1477 27.6591ZM118.42 31.3295C116.595 31.3295 115.019 30.9697 113.693 30.25C112.375 29.5227 111.36 28.4886 110.648 27.1477C109.943 25.7992 109.591 24.197 109.591 22.3409C109.591 20.5379 109.947 18.9621 110.659 17.6136C111.371 16.2576 112.375 15.2045 113.67 14.4545C114.966 13.697 116.492 13.3182 118.25 13.3182C119.492 13.3182 120.629 13.5114 121.659 13.8977C122.689 14.2841 123.58 14.8561 124.33 15.6136C125.08 16.3712 125.663 17.3068 126.08 18.4205C126.496 19.5265 126.705 20.7955 126.705 22.2273V23.6136H111.534V20.3864H121.534C121.527 19.7955 121.386 19.2689 121.114 18.8068C120.841 18.3447 120.466 17.9848 119.989 17.7273C119.519 17.4621 118.977 17.3295 118.364 17.3295C117.742 17.3295 117.186 17.4697 116.693 17.75C116.201 18.0227 115.811 18.3977 115.523 18.875C115.235 19.3447 115.083 19.8788 115.068 20.4773V23.7614C115.068 24.4735 115.208 25.0985 115.489 25.6364C115.769 26.1667 116.167 26.5795 116.682 26.875C117.197 27.1705 117.811 27.3182 118.523 27.3182C119.015 27.3182 119.462 27.25 119.864 27.1136C120.265 26.9773 120.61 26.7765 120.898 26.5114C121.186 26.2462 121.402 25.9205 121.545 25.5341L126.648 25.6818C126.436 26.8258 125.97 27.822 125.25 28.6705C124.538 29.5114 123.602 30.1667 122.443 30.6364C121.284 31.0985 119.943 31.3295 118.42 31.3295ZM135.099 7.72727V31H129.543V7.72727H135.099ZM152.716 7.72727H158.33V22.7386C158.33 24.4735 157.917 25.9848 157.091 27.2727C156.265 28.553 155.114 29.5455 153.636 30.25C152.159 30.947 150.443 31.2955 148.489 31.2955C146.511 31.2955 144.784 30.947 143.307 30.25C141.83 29.5455 140.682 28.553 139.864 27.2727C139.045 25.9848 138.636 24.4735 138.636 22.7386V7.72727H144.261V22.25C144.261 23.053 144.436 23.7689 144.784 24.3977C145.14 25.0265 145.636 25.5189 146.273 25.875C146.909 26.2311 147.648 26.4091 148.489 26.4091C149.33 26.4091 150.064 26.2311 150.693 25.875C151.33 25.5189 151.826 25.0265 152.182 24.3977C152.538 23.7689 152.716 23.053 152.716 22.25V7.72727ZM167.412 21.0455V31H161.855V13.5455H167.139V16.75H167.332C167.719 15.6818 168.378 14.8447 169.31 14.2386C170.241 13.625 171.351 13.3182 172.639 13.3182C173.866 13.3182 174.931 13.5947 175.832 14.1477C176.741 14.6932 177.446 15.4583 177.946 16.4432C178.454 17.4205 178.704 18.5644 178.696 19.875V31H173.139V20.9659C173.147 19.9962 172.901 19.2386 172.401 18.6932C171.908 18.1477 171.223 17.875 170.344 17.875C169.76 17.875 169.245 18.0038 168.798 18.2614C168.359 18.5114 168.018 18.8712 167.776 19.3409C167.541 19.8106 167.42 20.3788 167.412 21.0455ZM184.909 37.5455C184.242 37.5455 183.614 37.4924 183.023 37.3864C182.432 37.2879 181.924 37.1553 181.5 36.9886L182.727 32.9545C183.273 33.1364 183.765 33.2424 184.205 33.2727C184.652 33.303 185.034 33.2311 185.352 33.0568C185.678 32.8902 185.928 32.5909 186.102 32.1591L186.318 31.6364L180.114 13.5455H185.932L189.148 26H189.33L192.591 13.5455H198.443L191.864 32.6705C191.545 33.625 191.095 34.4659 190.511 35.1932C189.936 35.928 189.189 36.5038 188.273 36.9205C187.364 37.3371 186.242 37.5455 184.909 37.5455Z" fill="#EBEBEA"/>
<path d="M0 3H7.25V32H10.875V3H29V36H21.75V6.5H18.125V36H0V3Z" fill="#EBEBEA"/>
</svg>
